<svg width="180" height="180" viewBox="0 0 180 180" fill="none" xmlns="http://www.w3.org/2000/svg">
<rect width="180" height="180" rx="2" fill="white"/>
<path d="M61.4903 118.883C61.7068 120.644 60.9941 122.689 60.2226 123.518C59.5484 124.027 59.1931 124.793 59.5741 125.499C60.0511 126.205 61.2679 126.018 61.8467 125.381C62.6511 124.328 63.0454 121.93 62.0663 118.886L61.4903 118.883ZM70.1208 106.12L62.1528 106.086L62.4049 107.015L73.7008 107.063C74.1488 107.065 74.4694 106.906 74.5669 106.555C73.4513 105.526 71.7291 104.175 71.7291 104.175L70.1208 106.12ZM70.3917 110.121L70.3748 114.089L65.6069 114.069L65.6238 110.101L70.3917 110.121ZM65.6029 114.997L70.3709 115.017L70.3657 116.233L70.8457 116.235C71.7097 116.239 73.0878 115.732 73.1208 115.509L73.1419 110.549C73.6863 110.455 74.1674 110.201 74.3284 109.978L71.4577 107.789L70.1077 109.192L65.7557 109.173L62.9446 108.009L62.9064 117.001L63.2903 117.003C64.3783 117.007 65.5969 116.405 65.5979 116.181L65.6029 114.997ZM66.971 116.858C67.7975 118.142 68.6527 120.226 68.6137 121.857C70.5574 123.818 73.1034 119.605 67.3559 116.636L66.971 116.858ZM72.906 120.852L72.522 120.85C72.1314 122.416 71.8054 123.823 71.5475 124.27C71.3863 124.557 71.29 124.621 71.002 124.62C70.7139 124.65 70.0099 124.647 69.0499 124.643L67.0019 124.635C66.2019 124.631 66.1063 124.535 66.1079 124.151L66.1303 118.903C66.7067 118.809 67.0279 118.523 67.0617 118.107L63.7671 117.773L63.7374 124.749C63.7306 126.349 64.1122 126.894 66.4162 126.904L68.8802 126.915C72.8482 126.932 73.8423 126.424 73.8466 125.432C73.8485 124.984 73.6898 124.663 72.9869 124.404L72.906 120.852ZM72.915 118.74C73.8682 120.344 74.8499 122.78 74.8734 124.764C76.9769 126.757 79.3967 122.127 73.3319 118.55L72.915 118.74ZM85.714 119.018L85.3302 118.953C84.8445 120.295 84.166 121.828 83.7466 122.626C83.4559 123.265 83.2639 123.264 82.8182 122.718C80.8753 120.566 79.6076 117.68 78.7897 114.381C80.7494 112.565 82.3912 110.268 83.7157 107.33C84.4193 107.429 84.8044 107.174 84.966 106.791L81.1006 105.239C80.4187 107.572 79.4177 109.679 78.2259 111.498C77.7891 108.872 77.5771 106.056 77.525 103.271L85.1729 103.304C85.5889 103.306 85.9096 103.147 86.0071 102.795C84.9874 101.767 83.2976 100.32 83.2976 100.32L81.7849 102.361L77.5289 102.343C77.5013 101.319 77.5055 100.327 77.5418 99.3033C78.3424 99.1787 78.6317 98.8599 78.6974 98.4762C79.3345 99.1509 80.002 100.21 80.1579 101.17C82.0714 102.715 84.3583 99.2043 78.9229 98.1252L78.6019 98.3478L78.6657 98.4121L74.5076 97.9464C74.5012 99.4504 74.5271 100.89 74.5529 102.331L61.849 102.277L58.6545 100.983L58.6195 109.207C58.5954 114.871 58.4072 121.494 55.9844 126.828L56.3992 127.118C61.061 122.017 61.3173 114.434 61.3395 109.218L61.3651 103.202L74.613 103.259C74.7561 107.228 75.156 111.005 75.9091 114.496C74.4947 115.994 72.9214 117.236 71.3174 118.189L71.6356 118.606C73.3022 118.005 74.9054 117.244 76.3176 116.258C77.2944 119.846 78.753 122.989 80.8541 125.558C81.9999 127.003 84.2339 128.42 85.5184 127.37C86.032 126.988 85.876 126.059 84.9555 124.295L85.714 119.018ZM90.3249 104.254C90.5075 106.463 89.6647 108.987 88.8604 110.008C88.1856 110.645 87.9261 111.476 88.3712 112.15C88.9758 112.952 90.2889 112.702 90.9009 111.776C91.7063 110.5 92.038 107.749 90.8687 104.288L90.3249 104.254ZM92.399 98.1186L92.2723 127.878L92.8483 127.881C93.9363 127.885 95.1869 127.283 95.1884 126.931L95.3053 99.475C96.1378 99.3505 96.3952 99.0316 96.4611 98.5839L92.399 98.1186ZM95.4139 104.019C96.1762 105.367 96.9353 107.45 96.8964 109.082C98.8401 111.042 101.354 106.861 95.8306 103.861L95.4139 104.019ZM103.473 120.15C103.507 119.67 103.51 119.158 103.511 118.71L103.517 117.398L111.965 117.434L111.953 120.186L103.473 120.15ZM111.981 113.754L111.969 116.506L103.521 116.47L103.533 113.718L111.981 113.754ZM111.665 112.825L104.049 112.792L100.694 111.498L100.663 118.73C100.649 122.058 100.412 125.257 97.8731 127.71L98.1596 128.063C101.911 126.287 103.042 123.668 103.373 121.078L111.949 121.114L111.938 123.802C111.936 124.218 111.807 124.409 111.327 124.407C110.719 124.405 108 124.201 108 124.201L107.998 124.681C109.309 124.879 109.948 125.202 110.362 125.651C110.744 126.101 110.901 126.774 110.993 127.67C114.387 127.364 114.808 126.182 114.816 124.134L114.858 114.31C115.531 114.185 116.012 113.899 116.205 113.644L113.047 111.263L111.665 112.825ZM113.502 109.633L109.118 109.614L109.131 106.638L115.595 106.665C116.043 106.667 116.332 106.509 116.429 106.157C115.313 105.128 113.527 103.777 113.527 103.777L111.951 105.722L109.135 105.71L109.147 102.926L116.571 102.958C116.987 102.959 117.307 102.801 117.373 102.449C116.257 101.356 114.312 99.8439 114.312 99.8439L112.607 102.013L109.151 101.998L109.162 99.374C109.93 99.2492 110.156 98.9622 110.221 98.5465L106.255 98.1456L106.239 101.986L99.2307 101.956L99.4508 102.885L106.235 102.914L106.223 105.698L100.399 105.673L100.651 106.602L106.219 106.625L106.206 109.601L98.3663 109.568L98.6184 110.497L117.466 110.577C117.946 110.579 118.267 110.421 118.332 110.069C117.153 108.976 115.239 107.464 115.239 107.464L113.502 109.633Z" fill="#573605"/>
<path d="M98.0819 70.7455C105.769 67.6005 107.268 55.1899 101.432 43.0255C95.5953 30.8612 84.6324 23.5495 76.9457 26.6945C69.259 29.8395 67.7592 42.2501 73.5958 54.4145C79.4324 66.5789 90.3952 73.8905 98.0819 70.7455Z" stroke="#E30413" stroke-width="6.1282" stroke-miterlimit="10" stroke-linecap="round" stroke-linejoin="round"/>
<path d="M49 42.8883C52.3989 36.1281 60.3105 33.8031 66.6339 38.4351" stroke="#E30413" stroke-width="6" stroke-miterlimit="10" stroke-linecap="round" stroke-linejoin="round"/>
</svg>
