<svg width="182" height="182" viewBox="0 0 182 182" fill="none" xmlns="http://www.w3.org/2000/svg">
<rect x="0.916626" y="1.08347" width="180" height="180" rx="2" transform="rotate(-0.0531201 0.916626 1.08347)" fill="#FDBF52"/>
<path d="M54.4549 42.3978C55.3563 43.873 56.3303 45.9961 56.5482 48.0839C60.9073 51.4279 65.6518 43.2875 54.7068 42.2176L54.4549 42.3978ZM62.2357 47.5386L59.5381 50.0971L51.2221 50.1048L51.547 51.1125L59.719 51.105C58.2115 56.0024 54.689 61.9096 50.3728 65.9816L50.6611 66.2694C52.4602 65.3677 54.1512 64.2501 55.7701 63.0246L55.7823 76.2726L56.7183 76.2718C59.2023 76.2695 60.7852 75.08 60.785 74.792L60.7708 59.492C61.3478 60.6075 61.8531 61.939 61.9982 63.1989C65.7809 66.0754 69.9505 59.1955 60.8056 58.232C62.4958 56.2864 63.9339 54.2691 64.9401 52.2881C65.84 52.2153 66.2359 52.0709 66.5596 51.7466L62.2357 47.5386ZM78.5513 55.7675L71.6753 55.7739L71.6684 48.3219C75.3762 48.0665 79.1917 47.5589 81.7472 47.0165C83.0077 47.4834 83.9076 47.4105 84.4112 47.0141L79.0788 42.195C77.5319 43.4565 74.9055 45.1149 72.2428 46.5214L66.6972 44.7985L66.708 56.5345C66.7143 63.2665 66.2889 70.4309 61.9022 76.087L62.2625 76.4826C71.0419 71.5065 71.6824 63.3699 71.6763 56.7819L75.5643 56.7783L75.5825 76.4703L76.5185 76.4694C79.1105 76.467 80.6217 75.5656 80.6215 75.3136L80.6043 56.7736L84.4923 56.77C85.0323 56.7695 85.4281 56.5891 85.5357 56.193C83.8783 54.6466 81.0681 52.3092 81.0681 52.3092L78.5513 55.7675ZM114.871 51.1618L114.875 55.5538L110.231 55.5581L110.227 51.1661L114.871 51.1618ZM110.241 66.6461L110.237 62.1461L114.881 62.1418L114.885 66.6418L110.241 66.6461ZM110.232 56.5661L114.876 56.5618L114.88 61.1338L110.236 61.1381L110.232 56.5661ZM100.22 51.9674L100.224 56.0354L97.1996 56.0382L97.1958 51.9702L100.22 51.9674ZM100.228 60.9674L97.2042 60.9702L97.2005 57.0462L100.225 57.0434L100.228 60.9674ZM120.483 46.8006C120.987 46.8002 121.383 46.6198 121.491 46.2237C119.869 44.7492 117.131 42.5557 117.131 42.5557L114.686 45.798L105.218 45.8068C103.597 44.4403 101.399 42.6783 101.399 42.6783L99.0621 45.7405L92.7981 45.7463L88.1525 44.0946L88.1649 57.4866C88.1707 63.7146 88.3571 70.5544 86.526 75.8841L86.9582 76.1357C92.1734 70.9109 92.1665 63.4949 92.1609 57.4829L92.151 46.7549L96.507 46.7509C96.5801 47.9388 96.5815 49.4148 96.5466 50.6388L93.4494 49.3817L93.4624 63.3857L94.0024 63.3852C95.0104 63.3843 96.0181 63.0593 96.6298 62.7348L96.6322 65.2908L92.9952 64.2861C92.6021 67.3465 91.8131 70.6232 90.9151 72.7841L91.4194 73.0716C93.434 71.5217 95.2317 69.1441 96.5612 66.4428L96.6332 66.4428L96.6375 71.0868C96.6379 71.4468 96.5301 71.6629 96.0621 71.6633C95.5581 71.6638 93.5059 71.5217 93.5059 71.5217L93.5064 72.0257C94.8026 72.2405 95.2711 72.708 95.5956 73.3197C95.9562 73.9314 96.0292 74.9753 96.0664 76.2713C100.206 75.9074 100.78 73.9989 100.778 71.1549L100.77 62.7669L100.914 62.7668C102.246 62.7655 104.261 62.0077 104.297 61.7556L104.288 52.4676C104.9 52.3591 105.296 52.1067 105.476 51.8545L101.729 49.014L99.8949 50.9597L97.7349 50.9617C98.7421 50.0608 99.7491 49.0159 100.468 48.2232C101.26 48.2225 101.656 47.8621 101.764 47.43L98.451 46.7491L103.923 46.744L103.959 46.816L110.475 46.8099C110.476 47.9259 110.477 49.1859 110.442 50.1579L110.37 50.158L105.832 48.3262L105.85 67.7302C105.417 66.4706 104.048 65.1039 101.131 64.1346L100.771 64.2789C101.421 65.8263 102.071 68.0217 102.037 69.9657C103.55 71.4403 105.349 70.7907 105.852 69.3862L105.852 69.7102L106.536 69.7096C106.968 69.7092 107.436 69.6367 107.868 69.5643C106.646 71.8335 104.561 74.3914 102.438 75.9774L102.69 76.4091C106.434 75.4697 110.572 73.2338 112.478 71.0361C113.09 71.1435 113.45 71.0712 113.629 70.783L109.739 68.8066C110.063 68.5903 110.243 68.3741 110.243 68.2301L110.242 67.6541L114.886 67.6498L114.888 68.9098C114.275 68.7664 113.591 68.623 112.835 68.5157L112.547 68.732C114.097 70.5666 115.972 73.3368 116.658 75.7842C120.62 78.2645 123.602 71.5298 115.5 69.0893L115.644 69.0891C117.192 69.0877 119.387 68.1857 119.423 67.8976L119.408 51.6976C119.983 51.5531 120.379 51.3007 120.559 51.0846L116.56 48.0283L114.546 50.1541L111.846 50.1566C112.997 49.2196 114.256 47.9944 115.335 46.8054L120.483 46.8006ZM64.5829 94.1725C63.3643 100.006 57.2159 108.183 50.5959 112.437L50.8122 112.833C54.1951 111.642 57.4695 109.875 60.3836 107.784L60.3874 111.96C60.3925 117.468 59.6065 123.949 51.2945 128.241L51.4748 128.529C63.748 125.493 65.4691 118.112 65.6075 111.992L65.6048 109.076C66.4687 108.967 66.7203 108.571 66.7919 108.102L60.6714 107.568C64.5927 104.648 67.8293 101.045 69.7699 97.3717C70.9981 101.907 73.2332 105.252 76.2956 107.842L70.2832 107.343L70.3027 128.439L71.2387 128.438C73.2907 128.436 75.6298 127.462 75.6294 127.066L75.6127 108.958C76.3325 108.814 76.6563 108.597 76.8361 108.309C78.2411 109.46 79.826 110.43 81.5548 111.293C81.9129 109.276 83.2788 106.935 85.6181 106.213L85.6536 105.673C80.1084 104.382 73.5183 102.084 70.3455 96.9391C71.5694 96.794 72.0732 96.5775 72.2167 96.0374L64.5829 94.1725ZM90.237 117.909C90.4904 119.492 89.3402 121.438 88.549 122.23C87.3617 123.023 86.7509 124.284 87.3641 125.615C88.0855 127.127 90.3176 127.269 91.1806 126.188C92.3312 124.675 92.3645 121.759 90.705 117.908L90.237 117.909ZM93.0447 117.582C93.4065 119.526 93.5528 122.082 93.0869 124.35C95.8622 127.911 100.681 122.039 93.4766 117.474L93.0447 117.582ZM97.2915 116.318C98.049 117.937 98.5552 120.277 98.3051 122.329C101.296 125.53 105.682 119.37 97.6873 116.138L97.2915 116.318ZM107.415 124.301L107.406 114.653L113.994 114.647L114.003 124.295L107.415 124.301ZM117.143 94.5918L114.769 96.826L100.837 96.8389L101.162 97.8466L105.914 97.8422C105.81 101.802 105.382 106.339 101.03 110.591C100.237 109.691 98.9406 108.865 96.9599 108.182L96.6001 108.363C97.1051 109.406 97.5743 110.702 97.8995 112.034C95.4157 112.216 93.0398 112.362 91.1319 112.472C94.9096 110.02 99.2262 106.272 101.384 103.57C102.104 103.75 102.572 103.533 102.787 103.245L97.7441 99.7217C97.2413 101.054 96.3069 102.747 95.1925 104.476C93.3925 104.514 91.6645 104.515 90.2605 104.517C92.7788 102.678 95.6202 99.7957 97.2742 97.6342C97.9222 97.6696 98.354 97.4532 98.4977 97.129L92.8431 94.2903C92.2697 97.0988 90.0425 102.321 88.388 103.906C88.0282 104.159 87.2004 104.376 87.2004 104.376L89.2929 109.27C89.6528 109.125 89.9765 108.837 90.2281 108.405C91.3797 107.9 92.4952 107.431 93.5028 106.962C91.8488 109.159 90.0507 111.141 88.6116 112.114C88.1798 112.403 87.136 112.62 87.136 112.62L89.6609 117.837C90.1287 117.585 90.5242 117.116 90.8116 116.396C93.7265 115.205 96.2813 113.979 98.0804 113.041C98.1889 113.545 98.2253 114.013 98.2258 114.481C100.568 116.675 103.373 113.901 101.463 111.13C108.875 107.631 110.743 102.554 111.242 97.8372L115.13 97.8336C114.919 103.378 114.526 106.222 113.807 106.835C113.555 107.051 113.267 107.123 112.763 107.124C112.079 107.124 110.171 107.054 108.983 106.947L108.947 107.379C110.316 107.702 111.288 108.205 111.829 108.853C112.369 109.464 112.478 110.544 112.479 111.876C113.919 111.875 115.035 111.694 115.935 111.297L113.849 113.639L107.765 113.644L102.579 111.705L102.595 128.337L103.459 128.336C105.943 128.334 107.418 127.541 107.418 127.217L107.416 125.309L114.004 125.303L114.006 127.895L114.942 127.894C117.534 127.891 119.081 127.026 119.081 126.846L119.07 115.002C119.898 114.857 120.258 114.605 120.474 114.281L116.331 111.117C116.583 110.972 116.834 110.828 117.05 110.648C118.849 109.314 119.458 106.218 119.739 98.5853C120.495 98.4766 120.927 98.2602 121.178 97.936L117.143 94.5918Z" fill="#573605"/>
</svg>
