<svg width="180" height="180" viewBox="0 0 180 180" fill="none" xmlns="http://www.w3.org/2000/svg">
<rect width="180" height="180" rx="2" fill="#573605"/>
<path d="M80.392 126.648H74.408V123.704H80.392V126.648ZM74.408 119.8H80.392V122.776H74.408V119.8ZM65.512 115.064V111.832H71.336V115.064H65.512ZM80.392 111.832V115.064H74.408V111.832H80.392ZM83.752 122.776H83.336V120.28C83.944 120.152 84.392 119.896 84.616 119.64L81.544 117.336L80.072 118.904H74.408V115.96H80.392V117.08H80.936C81.928 117.08 83.432 116.44 83.464 116.216V112.312C84.072 112.184 84.52 111.928 84.744 111.704L81.576 109.368L80.072 110.904H74.408V108.376H86.76C87.24 108.376 87.592 108.216 87.656 107.864C86.344 106.712 84.136 105.144 84.136 105.144L82.216 107.48H74.408V105.304C75.208 105.208 75.528 104.888 75.592 104.408L71.336 103.992V107.48H58.248L58.536 108.376H71.336V110.904H65.736L62.472 109.624V117.752H62.92C64.104 117.752 65.512 117.112 65.512 116.856V115.96H71.336V118.904H61.8L62.088 119.8H71.336V122.776H58.184L58.472 123.704H71.336V126.648H61.576L61.864 127.576H71.336V129.848C71.336 130.36 71.144 130.552 70.536 130.552C69.736 130.552 65.768 130.264 65.768 130.264V130.744C67.56 130.968 68.424 131.32 69 131.768C69.544 132.216 69.768 132.888 69.896 133.752C73.896 133.4 74.408 132.152 74.408 129.976V127.576H80.392V129.4H80.872C81.864 129.4 83.304 128.728 83.336 128.536V123.704H87.368C87.816 123.704 88.168 123.544 88.232 123.192C87.176 122.104 85.352 120.568 85.352 120.568L83.752 122.776ZM94.188 105.016C95.308 106.168 96.492 108.088 96.652 109.688C99.18 111.704 101.644 106.488 94.476 104.792L94.188 105.016ZM90.38 132.76C93.868 132.056 98.348 130.328 101.42 127.672C102.124 127.832 102.476 127.736 102.732 127.416L99.308 125.048C96.78 128.184 93.196 130.84 90.188 132.312L90.38 132.76ZM107.66 126.488C111.628 128.28 114.444 130.52 115.948 132.184C118.636 134.616 123.852 128.824 107.884 126.04L107.66 126.488ZM114.892 110.2H111.116C112.716 109.048 114.38 107.64 115.468 106.456C116.172 106.552 116.556 106.328 116.716 105.944L112.908 104.632C112.236 106.328 111.212 108.6 110.22 110.2H109.196V105.144C109.932 105.016 110.156 104.728 110.22 104.344L106.476 103.992V110.2H103.788V105.144C104.492 105.016 104.748 104.728 104.78 104.344L101.1 103.992V110.2H90.604L90.86 111.128H109.164C108.748 112.472 108.012 114.168 107.34 115.512H101.548C103.02 114.968 103.308 112.184 98.444 111.192L98.124 111.416C98.924 112.312 99.788 113.816 99.852 115.128C100.076 115.32 100.3 115.448 100.524 115.512H92.46L92.748 116.44H103.5V119.352H94.06L94.316 120.28H103.5V123.384H90.924L91.212 124.312H103.5V133.72H104.044C105.58 133.72 106.508 133.144 106.54 132.952V124.312H118.572C119.02 124.312 119.34 124.152 119.436 123.8C118.156 122.68 116.204 121.24 116.204 121.24L114.412 123.384H106.54V120.28H115.212C115.66 120.28 115.98 120.12 116.076 119.768C114.892 118.712 113.068 117.4 113.068 117.4L111.436 119.352H106.54V116.44H117.292C117.74 116.44 118.028 116.28 118.124 115.928C116.908 114.872 114.988 113.464 114.988 113.464L113.26 115.512H108.652C109.868 114.616 111.084 113.56 111.852 112.728C112.556 112.792 112.972 112.536 113.1 112.152L109.516 111.128H118.892C119.372 111.128 119.692 110.968 119.788 110.616C118.54 109.56 116.62 108.184 116.62 108.184L114.892 110.2Z" fill="#FFFAE7"/>
<path d="M107.347 95.1753C104.331 95.1753 101.79 93.777 100.182 91.2455L61.1393 29.7848C59.6222 27.3995 59.3754 24.6669 60.4264 22.0713C61.3495 19.7866 63.2047 17.712 65.7911 16.0669C68.1764 14.5498 70.6622 13.7455 72.9744 13.7455C76.0086 13.7455 78.5676 15.1438 80.1761 17.6937L119.218 79.1544C122.125 83.7239 120.242 89.2257 114.548 92.8448C112.145 94.3619 109.659 95.1753 107.347 95.1753Z" fill="#CA9F70"/>
<path d="M72.9745 15.5003C75.2685 15.5003 77.3248 16.4599 78.7048 18.635L117.738 80.0957C120.315 84.1535 118.03 88.5586 113.607 91.3643C111.533 92.6803 109.348 93.4206 107.338 93.4206C105.062 93.4206 103.024 92.461 101.653 90.3041L62.6108 28.8434C60.0335 24.7856 62.3 20.3532 66.7142 17.5475C68.7888 16.2314 70.9731 15.5003 72.9745 15.5003ZM72.9745 12C70.3242 12 67.5185 12.8957 64.8498 14.5955C61.9527 16.4325 59.869 18.7904 58.7997 21.4133C57.5294 24.548 57.8401 27.8564 59.6588 30.7261L98.7012 92.1868C100.639 95.2392 103.709 96.93 107.347 96.93C109.988 96.93 112.812 96.0252 115.49 94.3254C122.07 90.1488 124.163 83.6783 120.699 78.2222L81.6567 16.7615C79.7101 13.6816 76.6211 12 72.9745 12Z" fill="#543714"/>
<path d="M73.3265 27.8898C76.8798 25.6326 78.4636 21.7616 76.8641 19.2436C75.2646 16.7257 71.0875 16.5143 67.5342 18.7714C63.981 21.0286 62.3971 24.8995 63.9966 27.4175C65.5961 29.9355 69.7732 30.1469 73.3265 27.8898Z" fill="white"/>
<path d="M77.5532 39.7282C79.0612 38.8508 80.4504 37.7541 81.6476 36.4837C82.0223 36.0908 81.4282 35.4968 81.0535 35.8897C79.8929 37.1052 78.5768 38.1562 77.1237 38.997C76.6576 39.2712 77.078 40.0024 77.5532 39.7282Z" fill="#543714"/>
<path d="M79.9204 40.4593C80.3865 40.112 80.8526 39.7647 81.3187 39.4174C81.4101 39.3534 81.4832 39.2803 81.5106 39.1706C81.538 39.0701 81.5289 38.933 81.4649 38.8508C81.4101 38.7594 81.3187 38.6862 81.2182 38.6588C81.1176 38.6314 80.9806 38.6314 80.8983 38.7045C80.4322 39.0518 79.9661 39.3991 79.5 39.7464C79.4086 39.8104 79.3355 39.8835 79.3081 39.9932C79.2807 40.0937 79.2898 40.2308 79.3538 40.313C79.4086 40.4044 79.5 40.4775 79.6005 40.505C79.7011 40.5232 79.829 40.5232 79.9204 40.4593Z" fill="#543714"/>
<path d="M78.6317 44.1789C81.1723 42.671 83.5576 40.9254 85.7693 38.9696C86.1714 38.6132 85.5774 38.0191 85.1753 38.3755C83.0184 40.2856 80.688 41.9855 78.2113 43.4569C77.7452 43.7311 78.1656 44.4531 78.6317 44.1789Z" fill="#543714"/>
<path d="M77.736 36.0633C80.0299 39.2163 81.5196 43.5391 79.2256 47.1125C78.9332 47.5695 79.6552 47.9899 79.9476 47.5329C82.3969 43.7128 80.9347 39.0244 78.4579 35.6338C78.1381 35.2042 77.4161 35.6247 77.736 36.0633Z" fill="#543714"/>
<path d="M83.4664 41.1448C84.1975 41.2544 84.9286 41.2544 85.6689 41.2544C86.4183 41.2544 87.1769 41.2636 87.9263 41.2636C88.4655 41.2636 88.4655 40.4227 87.9263 40.4227C87.2043 40.4227 86.4823 40.4136 85.7512 40.4136C85.0657 40.4136 84.3712 40.4319 83.6857 40.3314C83.4572 40.2948 83.2379 40.3862 83.1648 40.6238C83.1191 40.8249 83.247 41.1082 83.4664 41.1448Z" fill="#543714"/>
<path d="M81.7115 44.6633C82.534 46.0981 83.448 47.469 84.4624 48.785C84.5995 48.9678 84.828 49.0592 85.0382 48.9312C85.2118 48.8307 85.3306 48.5382 85.1844 48.3554C84.1791 47.0485 83.256 45.6686 82.4335 44.2337C82.1685 43.7676 81.4373 44.188 81.7115 44.6633Z" fill="#543714"/>
<path d="M83.0276 44.5719C83.0276 44.2795 83.3018 44.0601 83.4937 43.8682C83.7405 43.6306 84.0055 43.393 84.2705 43.1828C84.3894 43.0822 84.5082 42.9908 84.6361 42.8994C84.6727 42.872 84.8189 42.7441 84.8646 42.7441C84.8555 42.7441 84.7823 42.7166 84.8555 42.7623C84.9743 42.8354 85.0657 43 85.1479 43.1096C85.2484 43.2376 85.349 43.3656 85.4404 43.4935C86.2263 44.5537 86.8843 45.7143 87.3961 46.9389C87.4875 47.1491 87.6703 47.2954 87.9171 47.2314C88.1181 47.1766 88.3009 46.9298 88.2095 46.7104C87.5606 45.1568 86.7107 43.7128 85.6597 42.406C85.4221 42.1135 85.1113 41.821 84.7001 41.9124C84.3071 41.9947 83.9324 42.3785 83.6308 42.6161C83.0368 43.0914 82.1685 43.7311 82.1777 44.5719C82.1868 45.1111 83.0276 45.1111 83.0276 44.5719Z" fill="#543714"/>
<path d="M84.2339 46.811C84.8554 46.3266 85.4677 45.8331 86.0617 45.3213C86.2262 45.1751 86.2171 44.8735 86.0617 44.7272C85.8881 44.5627 85.6505 44.5719 85.4677 44.7272C84.8737 45.239 84.2613 45.7417 83.6399 46.2169C83.5576 46.2809 83.5211 46.418 83.5211 46.5094C83.5211 46.6099 83.5668 46.7379 83.6399 46.811C83.7221 46.8841 83.8226 46.9389 83.9323 46.9298C84.0603 46.9298 84.1425 46.8841 84.2339 46.811Z" fill="#543714"/>
<path d="M84.5721 49.6532C85.5866 48.8856 86.6101 48.1179 87.6246 47.3502C87.8074 47.2131 87.8988 46.9846 87.7708 46.7744C87.6703 46.6008 87.3778 46.482 87.195 46.6282C86.1806 47.3959 85.157 48.1635 84.1426 48.9312C83.9598 49.0683 83.8684 49.2968 83.9964 49.507C84.0969 49.6806 84.3893 49.7903 84.5721 49.6532Z" fill="#543714"/>
<path d="M86.3451 52.7514C86.2355 53.2267 86.0892 53.6287 85.8882 54.0217C85.6688 54.4513 85.4129 54.8169 85.1296 55.1459C84.9834 55.3104 84.956 55.5754 85.1296 55.7399C85.285 55.8861 85.5683 55.9135 85.7237 55.7399C86.4183 54.9448 86.9209 53.9943 87.1585 52.9708C87.2042 52.7606 87.0945 52.5047 86.8661 52.4498C86.6467 52.4133 86.4 52.523 86.3451 52.7514Z" fill="#543714"/>
<path d="M86.1532 58.7558C87.5058 57.7231 88.8127 56.6356 90.0739 55.484C90.476 55.1185 89.882 54.5244 89.4798 54.89C88.2826 55.9958 87.0305 57.0377 85.7328 58.0247C85.55 58.1618 85.4586 58.3903 85.5866 58.6005C85.678 58.7832 85.9704 58.8929 86.1532 58.7558Z" fill="#543714"/>
<path d="M86.4547 54.369C86.8386 55.5206 87.6519 56.5259 88.31 57.5312C89.0319 58.6279 89.7539 59.7337 90.4759 60.8304C90.7684 61.2782 91.4995 60.8578 91.1979 60.41C90.5033 59.3498 89.7996 58.2806 89.1051 57.2204C88.7578 56.6995 88.4196 56.1695 88.0723 55.6485C87.7616 55.1733 87.4417 54.698 87.259 54.1497C87.0945 53.6288 86.2811 53.8481 86.4547 54.369Z" fill="#543714"/>
<path d="M87.9445 56.8274C88.1638 58.3994 87.515 59.953 86.9483 61.3787C86.8661 61.5889 87.0397 61.8357 87.2408 61.8996C87.4784 61.9636 87.6703 61.8174 87.7617 61.6072C88.4106 60.0078 89.0138 58.3628 88.7579 56.6081C88.7305 56.3796 88.438 56.2608 88.2369 56.3156C87.9902 56.3796 87.9079 56.599 87.9445 56.8274Z" fill="#543714"/>
<path d="M88.4745 57.6774C89.3792 57.7779 90.2749 57.8693 91.1796 57.9698C91.399 57.9973 91.6092 57.7597 91.6 57.5495C91.5909 57.3027 91.4173 57.1565 91.1796 57.1291C90.2749 57.0377 89.3792 56.9371 88.4745 56.8366C88.2551 56.8092 88.0449 57.0468 88.0541 57.257C88.0723 57.5129 88.246 57.6591 88.4745 57.6774Z" fill="#543714"/>
<path d="M90.284 53.7019C90.6587 54.104 91.1888 54.3964 91.7463 54.4695C91.8651 54.4878 91.9656 54.4878 92.0661 54.4239C92.1575 54.369 92.2398 54.2685 92.2581 54.1771C92.2855 54.0675 92.2763 53.9486 92.2124 53.8572C92.1575 53.775 92.0661 53.6745 91.9656 53.6653C91.7828 53.6379 91.6 53.5922 91.4264 53.5191C91.463 53.5374 91.4904 53.5465 91.5269 53.5648C91.3533 53.4917 91.1979 53.4003 91.0426 53.2815C91.07 53.2997 91.0974 53.3272 91.1248 53.3454C91.0334 53.2723 90.942 53.1992 90.8689 53.1078C90.7227 52.9433 90.4211 52.9433 90.2749 53.1078C90.1286 53.2815 90.1286 53.5282 90.284 53.7019Z" fill="#543714"/>
<path d="M93.1904 50.8048C93.2452 50.9327 93.2818 51.0698 93.3183 51.2069C93.3366 51.2617 93.3457 51.3257 93.3549 51.3806C93.3549 51.3988 93.364 51.4171 93.364 51.4354C93.3732 51.4811 93.3732 51.4719 93.364 51.4079C93.3732 51.4354 93.3732 51.4719 93.3732 51.4993C93.3823 51.6273 93.3914 51.7552 93.3823 51.8832C93.3823 51.9563 93.3732 52.0203 93.364 52.0934C93.3549 52.1939 93.3823 52.002 93.364 52.1025C93.3549 52.1391 93.3549 52.1848 93.3457 52.2213C93.3092 52.4407 93.4097 52.6874 93.6382 52.7423C93.8484 52.788 94.1134 52.6783 94.1591 52.4498C94.2779 51.8284 94.2414 51.1794 94.0129 50.5854C93.9763 50.4757 93.9215 50.3935 93.821 50.3387C93.7296 50.2838 93.6016 50.2656 93.5011 50.293C93.2909 50.357 93.1081 50.5854 93.1904 50.8048Z" fill="#543714"/>
<path d="M90.6863 50.6128C92.3496 52.7971 93.0807 55.548 92.7243 58.2714C92.6512 58.8015 93.492 58.8015 93.5651 58.2714C93.9307 55.4292 93.1447 52.4772 91.4083 50.1924C91.0884 49.7629 90.3664 50.1833 90.6863 50.6128Z" fill="#543714"/>
<path d="M93.2727 55.2464C94.7075 55.6485 96.1972 55.8404 97.6777 55.8039C98.2169 55.7947 98.2169 54.9539 97.6777 54.9631C96.2612 54.9905 94.8629 54.8168 93.492 54.433C92.9711 54.2959 92.7517 55.1002 93.2727 55.2464Z" fill="#543714"/>
</svg>
