<svg width="180" height="180" viewBox="0 0 180 180" fill="none" xmlns="http://www.w3.org/2000/svg">
<rect width="180" height="180" rx="2" fill="#573605"/>
<path d="M79.12 118.144H71.536V116.896C72.24 116.768 72.528 116.544 72.624 116.096H72.56C74.48 115.488 76.464 114.72 77.936 114.112C78.608 114.08 78.96 113.984 79.216 113.76L76.208 111.072L74.448 112.736H61.552L61.84 113.664H73.84C73.04 114.4 72.048 115.264 71.088 115.936L68.56 115.712V118.144H55.76L56.016 119.072H68.56V122.72C68.56 123.136 68.4 123.296 67.888 123.296C67.184 123.296 63.632 123.072 63.632 123.072V123.52C65.232 123.776 66 124.128 66.512 124.576C67.024 125.088 67.184 125.792 67.312 126.752C71.056 126.4 71.536 125.12 71.536 122.88V119.072H83.312C83.728 119.072 84.048 118.912 84.144 118.56C82.96 117.408 80.912 115.808 80.912 115.808L79.12 118.144ZM81.936 107.36L80.24 109.024H80.08L80.56 100.192C81.136 100.096 81.424 100 81.648 99.744L78.8 97.504L77.552 98.976H73.936L74.224 99.872H77.808L77.68 102.336H74.224L74.512 103.264H77.616L77.488 105.728H74.128L74.416 106.656H77.424L77.296 109.024H62.48L62.416 106.656H66.032C66.448 106.656 66.768 106.496 66.832 106.144C66.032 105.312 64.784 104.256 64.784 104.256L63.632 105.728H62.384L62.288 103.264H65.904C66.32 103.264 66.608 103.104 66.704 102.784L66.896 103.04C68.048 102.56 69.232 101.888 70.288 101.152C70.736 101.6 71.12 102.016 71.376 102.4C72.752 102.912 73.456 101.28 71.76 100C72.208 99.616 72.592 99.232 72.88 98.848C73.424 98.976 73.776 98.912 73.936 98.624L71.248 97.248C70.928 97.856 70.512 98.496 70.032 99.136C69.36 98.912 68.528 98.752 67.568 98.656L67.28 98.976C67.856 99.296 68.528 99.712 69.136 100.192C68.336 101.056 67.44 101.888 66.544 102.56L66.64 102.688C65.84 101.92 64.656 100.96 64.656 100.96L63.568 102.336H62.256L62.16 99.904C63.76 99.68 65.392 99.264 66.32 98.976C66.8 99.136 67.12 99.104 67.28 98.944L64.752 96.96C64.144 97.472 63.088 98.208 62.064 98.88L59.408 98.304L59.792 109.024H59.024C58.928 108.448 58.736 107.84 58.48 107.232L58.064 107.264C58.064 109.152 57.072 110.432 56.272 110.88C53.904 112.16 55.376 114.72 57.488 113.76C58.832 113.152 59.376 111.744 59.184 109.92H80.304C79.984 110.88 79.536 112.096 79.248 112.8L79.568 113.024C80.816 112.416 82.64 111.296 83.664 110.528C84.304 110.496 84.656 110.432 84.88 110.176L81.936 107.36ZM71.728 102.784C71.408 103.424 70.96 104.064 70.448 104.704C69.712 104.416 68.816 104.192 67.696 104.032L67.408 104.352C68.048 104.704 68.784 105.248 69.456 105.824C68.528 106.752 67.44 107.616 66.352 108.288L66.672 108.768C67.984 108.32 69.328 107.648 70.512 106.848C70.96 107.36 71.312 107.84 71.536 108.288C73.008 108.96 73.84 107.168 72.08 105.664C72.592 105.248 73.04 104.768 73.392 104.32C73.936 104.448 74.288 104.384 74.448 104.064L71.728 102.784ZM91.188 98.016C92.308 99.168 93.492 101.088 93.652 102.688C96.18 104.704 98.644 99.488 91.476 97.792L91.188 98.016ZM87.38 125.76C90.868 125.056 95.348 123.328 98.42 120.672C99.124 120.832 99.476 120.736 99.732 120.416L96.308 118.048C93.78 121.184 90.196 123.84 87.188 125.312L87.38 125.76ZM104.66 119.488C108.628 121.28 111.444 123.52 112.948 125.184C115.636 127.616 120.852 121.824 104.884 119.04L104.66 119.488ZM111.892 103.2H108.116C109.716 102.048 111.38 100.64 112.468 99.456C113.172 99.552 113.556 99.328 113.716 98.944L109.908 97.632C109.236 99.328 108.212 101.6 107.22 103.2H106.196V98.144C106.932 98.016 107.156 97.728 107.22 97.344L103.476 96.992V103.2H100.788V98.144C101.492 98.016 101.748 97.728 101.78 97.344L98.1 96.992V103.2H87.604L87.86 104.128H106.164C105.748 105.472 105.012 107.168 104.34 108.512H98.548C100.02 107.968 100.308 105.184 95.444 104.192L95.124 104.416C95.924 105.312 96.788 106.816 96.852 108.128C97.076 108.32 97.3 108.448 97.524 108.512H89.46L89.748 109.44H100.5V112.352H91.06L91.316 113.28H100.5V116.384H87.924L88.212 117.312H100.5V126.72H101.044C102.58 126.72 103.508 126.144 103.54 125.952V117.312H115.572C116.02 117.312 116.34 117.152 116.436 116.8C115.156 115.68 113.204 114.24 113.204 114.24L111.412 116.384H103.54V113.28H112.212C112.66 113.28 112.98 113.12 113.076 112.768C111.892 111.712 110.068 110.4 110.068 110.4L108.436 112.352H103.54V109.44H114.292C114.74 109.44 115.028 109.28 115.124 108.928C113.908 107.872 111.988 106.464 111.988 106.464L110.26 108.512H105.652C106.868 107.616 108.084 106.56 108.852 105.728C109.556 105.792 109.972 105.536 110.1 105.152L106.516 104.128H115.892C116.372 104.128 116.692 103.968 116.788 103.616C115.54 102.56 113.62 101.184 113.62 101.184L111.892 103.2Z" fill="#FFFAE7"/>
<path d="M112.94 76.2022C104.7 76.2022 98 70.1493 98 62.7052V25.3129C98 17.8687 104.7 11.8159 112.94 11.8159H137.74C145.98 11.8159 152.68 17.8687 152.68 25.3129V62.7052C152.68 70.1493 145.98 76.2022 137.74 76.2022H112.94Z" fill="white"/>
<path d="M137.74 13.6137C144.86 13.6137 150.68 18.8715 150.68 25.3038V62.6962C150.68 69.1285 144.86 74.3863 137.74 74.3863H112.94C105.82 74.3863 100 69.1285 100 62.6962V25.3038C100 18.8715 105.82 13.6137 112.94 13.6137H137.74V13.6137ZM137.74 10H112.94C103.6 10 96 16.866 96 25.3038V62.6962C96 71.134 103.6 78 112.94 78H137.74C147.08 78 154.68 71.134 154.68 62.6962V25.3038C154.68 16.866 147.08 10 137.74 10Z" fill="#553711"/>
<path d="M115 31V41.05" stroke="#E30413" stroke-miterlimit="10" stroke-linecap="round" stroke-linejoin="round"/>
<path d="M123.68 41.05C125.514 41.05 127 38.8025 127 36.03C127 33.2575 125.514 31.01 123.68 31.01C121.846 31.01 120.36 33.2575 120.36 36.03C120.36 38.8025 121.846 41.05 123.68 41.05Z" stroke="#E30413" stroke-miterlimit="10" stroke-linecap="round" stroke-linejoin="round"/>
<path d="M133.14 41.05C134.974 41.05 136.46 38.8025 136.46 36.03C136.46 33.2575 134.974 31.01 133.14 31.01C131.306 31.01 129.82 33.2575 129.82 36.03C129.82 38.8025 131.306 41.05 133.14 41.05Z" stroke="#E30413" stroke-miterlimit="10" stroke-linecap="round" stroke-linejoin="round"/>
<path d="M122.76 47.84C120.75 49.63 118.62 51.29 116.39 52.8C115.73 53.25 116.35 54.33 117.02 53.88C119.34 52.31 121.55 50.58 123.64 48.72C124.24 48.19 123.36 47.31 122.76 47.84Z" fill="#E30413"/>
<path d="M126.95 49.52C129.34 50.83 131.73 52.14 134.13 53.45C134.84 53.84 135.47 52.76 134.76 52.37C132.37 51.06 129.98 49.75 127.58 48.44C126.87 48.06 126.24 49.14 126.95 49.52Z" fill="#E30413"/>
<path d="M121.81 55.44C123.45 55.44 125.08 55.44 126.72 55.44C127.46 55.44 128.21 55.4 128.94 55.45C129.47 55.49 129.89 55.7 129.98 56.26C130.06 56.77 129.92 57.3 129.75 57.78C129.53 58.42 129.24 59.04 128.92 59.64C128.6 60.26 128.24 60.86 127.83 61.42C127.79 61.49 127.74 61.55 127.69 61.61C127.6 61.68 127.62 61.71 127.77 61.69C127.74 61.61 127.66 61.53 127.62 61.44C127.47 61.08 127.37 60.76 127.11 60.46C126.59 59.85 125.7 60.74 126.23 61.34C126.41 61.55 126.44 61.9 126.58 62.15C126.72 62.41 126.94 62.65 127.2 62.79C127.86 63.13 128.45 62.69 128.83 62.17C129.67 61.02 130.33 59.74 130.84 58.42C131.23 57.43 131.51 56.16 130.9 55.19C130.12 53.96 128.48 54.18 127.23 54.18C125.42 54.18 123.62 54.18 121.81 54.18C121.01 54.19 121 55.44 121.81 55.44Z" fill="#E30413"/>
<path d="M124.45 54.92C123.49 57.52 121.86 59.82 119.75 61.61C119.49 61.83 119.52 62.27 119.75 62.49C120 62.74 120.38 62.71 120.63 62.49C122.9 60.56 124.62 58.05 125.65 55.25C125.77 54.93 125.52 54.57 125.21 54.48C124.87 54.39 124.57 54.6 124.45 54.92Z" fill="#E30413"/>
<path d="M56.5116 61.2294C55.3982 61.2294 54.3284 60.7494 53.582 59.9046L25.2943 28.1741C23.814 26.5102 23.9198 23.9182 25.5369 22.3951L28.765 19.3487C29.4989 18.6575 30.4506 18.2736 31.4519 18.2736C32.5653 18.2736 33.6351 18.7535 34.3815 19.5983L62.6692 51.3352C64.1495 52.9992 64.0438 55.5911 62.4266 57.1143L59.1985 60.1606C58.4646 60.8518 57.513 61.2294 56.5116 61.2294Z" fill="#CA9F70"/>
<path d="M31.4456 19.5599C32.1858 19.5599 32.9259 19.8671 33.4608 20.4687L61.7485 52.2056C62.7624 53.3448 62.6877 55.1303 61.5806 56.1799L58.3525 59.2262C57.8301 59.719 57.1708 59.9622 56.5052 59.9622C55.7651 59.9622 55.0249 59.655 54.49 59.0535L26.2085 27.3102C25.1947 26.171 25.2693 24.3854 26.3765 23.3359L29.6045 20.2895C30.127 19.8031 30.7863 19.5599 31.4456 19.5599ZM31.4456 17C30.1332 17 28.883 17.4992 27.919 18.408L24.6909 21.4543C23.6646 22.4207 23.0675 23.7454 23.0053 25.179C22.9431 26.6126 23.4283 27.9886 24.3675 29.0381L52.6552 60.775C53.6379 61.8758 55.0436 62.5094 56.5052 62.5094C57.8176 62.5094 59.0678 62.0102 60.0319 61.1014L63.26 58.0551C64.2862 57.0887 64.8833 55.7639 64.9455 54.3304C65.0077 52.8968 64.5226 51.5208 63.5834 50.4712L35.2957 18.7344C34.3129 17.6336 32.9073 17 31.4456 17Z" fill="#543714"/>
<path d="M67.452 69.05C67.0166 69.05 66.5688 68.9284 66.1334 68.6788C65.0014 68.0516 63.9254 68.026 62.6814 67.994C60.7471 67.9492 58.5515 67.898 56.3248 65.4021C54.5957 63.4629 53.5258 61.0886 53.3082 58.7334C53.0842 56.2439 53.8244 54.0487 55.4042 52.564C56.6233 51.412 58.2218 50.804 60.0193 50.804C62.7374 50.804 65.6296 52.2312 67.7568 54.6119C70.4313 57.6135 71.1715 64.1285 69.8777 67.1556C69.1687 68.8004 68.0491 69.05 67.452 69.05Z" fill="#E30413"/>
<path d="M60.0133 52.084C62.3022 52.084 64.8585 53.268 66.8302 55.4823C69.8841 58.9062 69.9837 67.77 67.446 67.77C67.2221 67.77 66.9795 67.6996 66.7183 67.5524C63.3658 65.6837 60.43 68.122 57.233 64.5317C54.0298 60.9414 53.5882 56.0007 56.2379 53.4984C57.2579 52.5448 58.5827 52.084 60.0133 52.084ZM60.0133 49.524C57.8986 49.524 56.0077 50.2472 54.5585 51.6168C52.7175 53.3576 51.8094 55.9879 52.0706 58.8486C52.3069 61.4854 53.4949 64.1221 55.4044 66.2661C57.9919 69.1652 60.685 69.2292 62.6505 69.274C63.7825 69.2996 64.6719 69.3188 65.5427 69.8052C66.1647 70.1508 66.8116 70.33 67.4522 70.33C68.1799 70.33 69.9899 70.074 71.0099 67.674C72.4778 64.2373 71.6879 57.1335 68.6651 53.7479C66.3078 51.1048 63.0734 49.524 60.0133 49.524Z" fill="#543714"/>
<path d="M57.8051 66.3941C57.5003 66.3941 57.208 66.2789 56.9779 66.0677C56.7415 65.8501 56.53 65.6325 56.3186 65.4021C54.5895 63.4629 53.5197 61.0886 53.302 58.7334C53.078 56.2439 53.8182 54.0487 55.398 52.564C56.6171 51.412 58.2156 50.804 60.0131 50.804C62.7312 50.804 65.6234 52.2312 67.7506 54.6119C67.931 54.8167 68.1176 55.0535 68.3104 55.3351C68.5405 55.6743 68.6027 56.1031 68.4721 56.4935C68.3415 56.8839 68.0305 57.1847 67.6448 57.2999C65.5612 57.9271 63.7699 58.951 62.3145 60.3398C60.8652 61.7222 59.7395 63.4757 58.9682 65.5621C58.8252 65.9525 58.4955 66.2469 58.0974 66.3493C58.0041 66.3813 57.9046 66.3941 57.8051 66.3941Z" fill="white"/>
<path d="M60.0133 52.084C62.3022 52.084 64.8585 53.268 66.8302 55.4823C66.9919 55.6679 67.1474 55.8727 67.2967 56.0839C65.0762 56.7559 63.0859 57.8695 61.4687 59.4118C59.8578 60.9478 58.6263 62.8997 57.8053 65.1141C57.6187 64.9413 57.4259 64.7493 57.233 64.5381C54.0298 60.9478 53.5882 56.0071 56.2379 53.5048C57.2579 52.5448 58.5827 52.084 60.0133 52.084ZM60.0133 49.524C57.8986 49.524 56.0077 50.2472 54.5585 51.6168C52.7175 53.3576 51.8094 55.9879 52.0706 58.8486C52.3069 61.4854 53.4949 64.1221 55.4044 66.2661C55.6408 66.5349 55.8896 66.7781 56.1508 67.0276C56.6111 67.45 57.2019 67.674 57.8053 67.674C58.0043 67.674 58.1971 67.6484 58.3961 67.6036C59.1923 67.4052 59.8391 66.8165 60.1315 66.0293C60.8343 64.1285 61.8544 62.5349 63.1605 61.287C64.4729 60.0326 66.1025 59.111 67.9995 58.535C68.7708 58.3046 69.3866 57.6967 69.6478 56.9159C69.909 56.1351 69.7908 55.2711 69.3244 54.5927C69.1005 54.2663 68.8828 53.9911 68.6651 53.7416C66.3078 51.1048 63.0734 49.524 60.0133 49.524Z" fill="#543714"/>
</svg>
