<svg width="180" height="180" viewBox="0 0 180 180" fill="none" xmlns="http://www.w3.org/2000/svg">
<rect width="180" height="180" rx="2" fill="#FCDBA3"/>
<path d="M60.624 106.032V110.8H55.696V106.032H60.624ZM60.624 116.624H55.696V111.728H60.624V116.624ZM55.696 122.576V117.552H60.624V122.576H55.696ZM55.696 123.472H60.624V125.04H61.136C62.544 125.04 63.6 124.4 63.6 124.208V106.288C64.304 106.192 64.688 105.968 64.912 105.68L61.936 103.376L60.496 105.104H56.08L52.816 103.824V125.68H53.296C53.904 125.68 54.416 125.584 54.832 125.424C54.064 127.664 52.528 130.448 50.8 132.272L51.12 132.656C53.872 131.28 56.272 128.944 57.648 126.992C58.384 127.088 58.672 126.896 58.832 126.576L55.6 125.008C55.664 124.944 55.696 124.88 55.696 124.848V123.472ZM58.8 125.232C59.92 126.768 61.136 129.072 61.296 131.088C64.112 133.392 66.928 127.568 59.12 125.04L58.8 125.232ZM77.168 110.992H76.304V104.56C77.072 104.464 77.392 104.144 77.488 103.696L73.296 103.248V110.992H63.888L64.144 111.92H72.432C70.768 117.296 67.6 122.672 63.12 126.288L63.472 126.672C67.664 124.304 70.96 121.232 73.296 117.584V128.56C73.296 129.04 73.136 129.232 72.496 129.232C71.76 129.232 68.208 128.976 68.208 128.976V129.456C69.84 129.68 70.64 130.032 71.184 130.544C71.664 131.024 71.856 131.728 71.984 132.688C75.824 132.336 76.304 131.024 76.304 128.784V111.92H80.592C81.04 111.92 81.328 111.76 81.424 111.408C80.432 110.288 78.704 108.656 78.704 108.656L77.168 110.992ZM99.572 129.712V126.384H106.068V129.712H99.572ZM90.164 126.384H96.628V129.712H90.164V126.384ZM96.628 122.192V125.456H90.164V122.192H96.628ZM106.068 122.192V125.456H99.572V122.192H106.068ZM105.748 121.264H90.388L87.156 119.92V132.656H87.604C88.82 132.656 90.164 132.016 90.164 131.728V130.64H106.068V132.496H106.548C107.54 132.496 109.012 131.92 109.044 131.728V122.736C109.716 122.576 110.196 122.32 110.388 122.064L107.22 119.664L105.748 121.264ZM92.82 117.68V114.416H103.412V117.68H92.82ZM103.924 119.856C104.884 119.856 106.388 119.312 106.42 119.088V114.832C106.996 114.736 107.412 114.448 107.604 114.224L104.564 111.984L103.124 113.456H103.412V113.488H92.98L89.844 112.24V120.208H90.26C91.444 120.208 92.82 119.568 92.82 119.312V118.608H103.412V119.856H103.924ZM103.028 110.096H88.724L88.98 111.024H106.74C107.188 111.024 107.508 110.864 107.572 110.512C106.42 109.52 104.628 108.208 104.628 108.208L103.028 110.096ZM109.876 105.104L108.244 106.8H99.092C100.884 106.224 101.14 102.672 95.348 102.672L95.092 102.896C96.148 103.696 97.172 105.168 97.396 106.512C97.62 106.64 97.812 106.736 98.004 106.8H87.796C87.732 106.288 87.572 105.712 87.38 105.136L86.9 105.168C86.996 106.992 85.78 108.624 84.596 109.232C83.732 109.648 83.188 110.448 83.508 111.376C83.892 112.4 85.236 112.528 86.164 111.952C87.188 111.312 88.02 109.872 87.892 107.728H108.436C108.308 108.88 108.084 110.352 107.86 111.312L108.212 111.536C109.332 110.736 110.804 109.328 111.636 108.336C112.276 108.272 112.596 108.208 112.852 107.952L109.876 105.104Z" fill="#573605"/>
<path d="M53.3955 66.05C52.7055 66.05 52.0655 65.69 51.6955 65.11C51.3255 64.52 51.2955 63.79 51.5955 63.17C58.0355 50.12 70.4855 42.01 84.1055 42.01C97.7255 42.01 110.175 50.12 116.615 63.17C116.925 63.79 116.885 64.52 116.515 65.11C116.155 65.7 115.505 66.05 114.815 66.05H53.3955Z" fill="#FFCE32"/>
<path d="M84.1155 44C97.3955 44 108.945 52.11 114.825 64.04H53.3955C59.2855 52.12 70.8255 44 84.1155 44ZM84.1155 40C69.7355 40 56.5855 48.53 49.8155 62.27C49.2055 63.51 49.2755 64.98 50.0055 66.15C50.7355 67.32 52.0155 68.04 53.4055 68.04H114.835C116.215 68.04 117.505 67.33 118.235 66.15C118.965 64.98 119.035 63.51 118.425 62.27C111.635 48.54 98.4955 40 84.1155 40Z" fill="#543714"/>
<path d="M55.0555 86.34C54.0255 86.34 53.1155 85.66 52.8255 84.67L43.4155 52.61C43.1455 51.7 43.4555 50.72 44.2055 50.14C44.6255 49.81 45.1355 49.64 45.6455 49.64C46.0355 49.64 46.4355 49.74 46.7955 49.94C57.8055 56.22 70.7055 59.54 84.1055 59.54C97.5055 59.54 110.415 56.22 121.415 49.94C121.775 49.74 122.165 49.64 122.565 49.64C123.075 49.64 123.585 49.81 124.005 50.14C124.745 50.73 125.055 51.71 124.795 52.61L115.385 84.67C115.095 85.66 114.185 86.34 113.155 86.34H55.0555V86.34Z" fill="#FFCE32"/>
<path d="M122.575 51.96L113.165 84.02H84.1155H55.0555L45.6455 51.96C56.5955 58.21 69.8355 61.86 84.1055 61.86C98.3855 61.86 111.625 58.21 122.575 51.96ZM122.575 47.32C122.515 47.32 122.465 47.32 122.405 47.32C122.405 47.32 122.405 47.32 122.395 47.32C121.595 47.35 120.845 47.58 120.205 47.97C109.565 54.02 97.0855 57.22 84.1055 57.22C71.1055 57.22 58.5955 54.01 47.9455 47.93C47.2255 47.52 46.4355 47.32 45.6455 47.32C44.6255 47.32 43.6055 47.66 42.7655 48.32C41.2855 49.49 40.6555 51.45 41.1855 53.27L50.5955 85.33C51.1755 87.31 52.9855 88.66 55.0455 88.66H84.1055H113.165C115.225 88.66 117.035 87.3 117.615 85.33L126.975 53.44C127.135 52.98 127.215 52.48 127.215 51.96C127.215 49.4 125.155 47.33 122.595 47.32C122.595 47.32 122.585 47.32 122.575 47.32Z" fill="#543714"/>
<path d="M75.7455 65.15C75.7455 68.71 75.7455 72.27 75.7455 75.83C75.7455 76.76 77.1955 76.76 77.1955 75.83C77.1955 72.27 77.1955 68.71 77.1955 65.15C77.1955 64.22 75.7455 64.22 75.7455 65.15Z" fill="#E30413"/>
<path d="M77.1955 67.33C78.0155 66.84 78.9755 66.2 79.9855 66.4C81.1055 66.62 81.1155 67.68 81.1055 68.62C81.0955 71.12 81.0755 73.63 81.0655 76.13C81.0555 77.06 82.5055 77.06 82.5155 76.13C82.5255 74.62 82.5355 73.11 82.5355 71.6C82.5455 70.17 82.7055 68.65 82.4655 67.24C82.2555 66.01 81.3455 65.14 80.1155 64.96C78.7755 64.77 77.5755 65.41 76.4555 66.08C75.6655 66.56 76.3955 67.82 77.1955 67.33Z" fill="#E30413"/>
<path d="M77.2355 70.2201C77.4055 70.1901 77.5755 70.15 77.7455 70.13C77.8355 70.11 77.9355 70.1001 78.0255 70.0901C77.9155 70.1101 78.1555 70.07 78.1555 70.07C78.4855 70.03 78.8255 70 79.1555 69.99C79.8355 69.96 80.5255 69.99 81.2055 70.06C81.5855 70.1 81.9455 69.7 81.9355 69.33C81.9155 68.9 81.6155 68.65 81.2055 68.61C79.7455 68.45 78.2855 68.53 76.8455 68.82C76.4755 68.89 76.2255 69.36 76.3355 69.71C76.4755 70.11 76.8355 70.3001 77.2355 70.2201Z" fill="#E30413"/>
<path d="M77.0655 73.89C78.2555 73.89 79.4355 73.89 80.6255 73.89C81.0055 73.89 81.3655 73.56 81.3455 73.17C81.3255 72.78 81.0255 72.45 80.6255 72.45C79.4355 72.45 78.2555 72.45 77.0655 72.45C76.6855 72.45 76.3255 72.78 76.3455 73.17C76.3555 73.55 76.6555 73.89 77.0655 73.89Z" fill="#E30413"/>
<path d="M76.1655 78C77.9755 77.75 79.7855 77.55 81.6055 77.4C81.9955 77.37 82.3255 77.09 82.3255 76.68C82.3255 76.31 81.9955 75.92 81.6055 75.95C79.6555 76.11 77.7155 76.33 75.7855 76.6C75.3955 76.65 75.1855 77.15 75.2755 77.49C75.3855 77.92 75.7755 78.06 76.1655 78Z" fill="#E30413"/>
<path d="M77.5855 77.52C77.5055 77.98 77.3855 78.43 77.2355 78.86C77.1955 78.97 77.1555 79.07 77.1155 79.17C77.1055 79.2 77.0955 79.23 77.0755 79.26C77.0455 79.33 77.0555 79.32 77.0955 79.22C77.0955 79.26 77.0555 79.32 77.0355 79.35C76.9355 79.57 76.8255 79.78 76.7155 79.99C76.5355 80.32 76.6255 80.8 76.9755 80.98C77.3155 81.16 77.7755 81.07 77.9655 80.72C78.4455 79.84 78.8055 78.88 78.9855 77.89C79.0255 77.69 79.0155 77.51 78.9155 77.33C78.8255 77.18 78.6555 77.04 78.4855 77C78.1255 76.94 77.6555 77.12 77.5855 77.52Z" fill="#E30413"/>
<path d="M79.8855 78.18C80.0555 78.48 80.2055 78.79 80.3355 79.11C80.3155 79.05 80.2855 78.99 80.2655 78.94C80.4355 79.34 80.5755 79.76 80.6955 80.18C80.7955 80.55 81.2155 80.81 81.5855 80.69C81.9555 80.57 82.2055 80.19 82.0955 79.8C81.8655 78.99 81.5455 78.2 81.1355 77.45C80.9555 77.12 80.4655 76.98 80.1455 77.19C79.8055 77.41 79.6855 77.82 79.8855 78.18Z" fill="#E30413"/>
<path d="M84.6655 71.53C86.5455 71.31 88.4355 71.09 90.3155 70.87C90.7055 70.82 91.0355 70.57 91.0355 70.15C91.0355 69.79 90.7055 69.38 90.3155 69.43C88.4355 69.65 86.5455 69.87 84.6655 70.09C84.2755 70.14 83.9355 70.39 83.9355 70.81C83.9355 71.16 84.2755 71.57 84.6655 71.53Z" fill="#E30413"/>
<path d="M88.1755 66.5401C88.2155 68.7701 88.2555 71.0001 88.1955 73.2301C88.1655 74.3401 88.1055 75.46 88.0155 76.57C87.9755 77.08 87.9255 77.5901 87.8655 78.1001C87.8355 78.3601 87.7455 78.67 87.7555 78.93C87.6955 79.12 87.7155 79.14 87.8155 78.99C87.7455 78.87 87.6755 78.75 87.6255 78.62C87.2155 77.78 85.9655 78.5201 86.3755 79.3501C86.6255 79.8601 86.9855 80.36 87.5755 80.5C88.1055 80.63 88.6655 80.42 88.9555 79.95C89.2655 79.44 89.2555 78.6701 89.3255 78.1001C89.4155 77.3301 89.4855 76.57 89.5355 75.8C89.7455 72.72 89.6855 69.6201 89.6355 66.5401C89.6055 65.6101 88.1555 65.6001 88.1755 66.5401Z" fill="#E30413"/>
<path d="M87.6855 70.46C87.4955 70.88 87.2755 71.29 87.0155 71.68C86.8855 71.88 86.7555 72.06 86.6155 72.25C86.5655 72.31 86.6655 72.19 86.5855 72.29C86.5455 72.33 86.5155 72.38 86.4855 72.42C86.4055 72.51 86.3255 72.61 86.2455 72.7C85.9455 73.04 85.6155 73.35 85.2655 73.65C85.2255 73.69 85.1755 73.72 85.1355 73.76C85.1255 73.77 84.9555 73.9 85.0755 73.81C84.9855 73.88 84.8955 73.94 84.8055 74.01C84.6055 74.15 84.4055 74.28 84.1955 74.41C83.8655 74.6 83.7255 75.07 83.9355 75.4C84.1455 75.73 84.5755 75.87 84.9255 75.66C86.6655 74.62 88.0955 73.06 88.9355 71.21C89.0955 70.87 89.0455 70.41 88.6755 70.22C88.3555 70.03 87.8455 70.09 87.6855 70.46Z" fill="#E30413"/>
</svg>
