<svg width="180" height="180" viewBox="0 0 180 180" fill="none" xmlns="http://www.w3.org/2000/svg">
<rect width="180" height="180" rx="2" fill="#FDBF52"/>
<path d="M70.64 73.756C70.856 73.756 71.036 73.72 71.216 73.648C70.64 74.836 70.028 75.844 69.416 76.672L69.776 76.996C71.756 76.312 73.772 75.268 75.5 73.756H86.408C86.912 73.756 87.272 73.576 87.38 73.18C85.904 71.848 83.42 69.94 83.42 69.94L81.224 72.748H76.508C76.796 72.46 77.012 72.172 77.264 71.884C78.092 71.956 78.56 71.704 78.74 71.272L72.872 68.86C72.512 70.336 72.044 71.74 71.468 73.036C70.136 71.776 68.012 70.012 68.012 70.012L66.032 72.748H62.396C62.684 72.388 62.936 71.992 63.188 71.596C64.016 71.596 64.484 71.272 64.628 70.84L58.652 69.004C57.716 72.82 55.916 76.42 54.08 78.688L54.44 79.012C56.996 77.896 59.516 76.204 61.604 73.756H70.64ZM76.076 74.548C76.724 75.232 77.3 76.492 77.3 77.68C80.684 80.164 84.536 73.972 76.364 74.368L76.076 74.548ZM56.636 84.772C58.58 84.124 60.38 83.08 61.82 81.496C62.144 82.144 62.36 82.864 62.396 83.548C64.916 85.456 67.616 81.28 62.972 80.056C63.152 79.768 63.296 79.48 63.476 79.192C64.268 79.264 64.7 78.94 64.88 78.508L59.876 76.78C59.336 79.948 57.968 82.648 56.24 84.412L56.636 84.772ZM62.72 74.44C63.26 75.088 63.8 76.348 63.8 77.464C66.932 79.84 70.712 74.188 63.008 74.26L62.72 74.44ZM68.156 76.78C67.616 79.876 66.356 82.612 64.772 84.376L65.168 84.736C66.968 84.052 68.66 83.044 70.064 81.496C70.784 82.324 71.396 83.368 71.576 84.34C74.456 86.068 76.652 80.956 70.892 80.488C71.18 80.056 71.468 79.624 71.72 79.156C72.512 79.192 72.98 78.904 73.124 78.472L68.156 76.78ZM70.82 88.552H70.352V85.888H75.14C75.248 86.932 75.356 87.976 75.536 88.984C74.384 87.94 72.476 86.5 72.476 86.5L70.82 88.552ZM64.808 97.912V85.888H66.212V97.84L64.808 97.912ZM81.368 84.88H79.424C79.316 83.116 79.28 81.316 79.28 79.444C79.748 79.372 80.072 79.192 80.252 79.012C80.756 80.02 81.08 81.46 80.9 82.72C81.404 83.224 81.944 83.44 82.448 83.512L81.368 84.88ZM87.488 93.772L87.128 93.7C86.588 95.032 85.796 96.688 85.328 97.516C85.04 98.02 84.788 98.02 84.32 97.66C83.564 97.048 82.916 96.328 82.34 95.536C83.78 93.736 85.004 91.576 86.048 88.984C86.876 89.056 87.344 88.768 87.524 88.336L81.98 86.284C81.584 88.012 81.044 89.632 80.396 91.144C79.964 89.524 79.676 87.76 79.496 85.888H86.516C87.056 85.888 87.416 85.708 87.524 85.312C86.552 84.412 85.112 83.26 84.284 82.612C85.004 81.46 84.428 79.48 80.504 78.508V78.436L74.78 77.932C74.816 80.344 74.888 82.648 75.032 84.88H55.376L55.664 85.888H60.704V88.516H56.6L56.924 89.524H60.704V91.756H56.852L57.176 92.764H60.704V95.212H56.528L56.852 96.22H60.704V98.092C58.544 98.2 56.78 98.236 55.556 98.272L57.968 103.492C58.4 103.42 58.796 103.132 59.048 102.664C67.112 100.612 72.26 99.1 75.752 97.804L75.716 97.336C73.88 97.444 72.08 97.552 70.352 97.624V96.292H75.284C75.788 96.292 76.112 96.112 76.22 95.716C75.032 94.672 73.16 93.232 73.16 93.232L71.504 95.284H70.352V92.8H74.96C75.428 92.8 75.788 92.62 75.896 92.224C74.708 91.18 72.836 89.74 72.836 89.74L71.18 91.792H70.352V89.56H74.6C75.104 89.56 75.464 89.38 75.536 89.02C75.968 91.576 76.616 93.952 77.624 96.076C75.536 98.992 72.944 101.26 70.136 102.916L70.424 103.312C73.736 102.268 76.688 100.864 79.208 98.776C80 99.892 80.972 100.9 82.088 101.836C83.564 102.952 86.264 104.14 87.704 102.412C88.244 101.692 88.064 100.72 86.912 98.884L87.488 93.772ZM92.78 70.084C93.824 71.236 94.904 73.18 95.156 75.016C99.692 77.968 103.76 69.544 92.996 69.904L92.78 70.084ZM110.24 76.816V82.324H105.164L105.452 83.332H121.94C122.444 83.332 122.84 83.152 122.948 82.756C121.364 81.316 118.7 79.264 118.7 79.264L116.36 82.324H115.388V76.816H122.876C123.38 76.816 123.776 76.636 123.884 76.24C122.228 74.764 119.492 72.604 119.492 72.604L117.044 75.808H115.388V70.624C116.252 70.48 116.504 70.156 116.54 69.688L110.24 69.184V75.808H104.336L104.516 76.384C103.184 75.196 101.42 73.792 101.42 73.792L99.476 76.384H89.972L90.26 77.392H104.012C104.516 77.392 104.912 77.212 104.984 76.816H110.24ZM91.448 80.992L91.736 82H102.644C103.148 82 103.508 81.82 103.616 81.424C102.32 80.2 100.16 78.508 100.16 78.508L98.252 80.992H91.448ZM102.644 86.716C103.148 86.716 103.508 86.536 103.616 86.14C102.32 84.916 100.16 83.224 100.16 83.224L98.252 85.708H91.448L91.736 86.716H102.644ZM96.128 98.452V91.468H98.54V98.452H96.128ZM98.216 90.46H96.272L91.7 88.66V103.024H92.348C94.22 103.024 96.128 102.052 96.128 101.62V99.46H98.54V101.512H99.332C100.844 101.512 103.004 100.576 103.04 100.288V92.08C103.688 91.936 104.12 91.684 104.3 91.432L100.196 88.336L98.216 90.46ZM118.232 87.292V85.096C119.06 84.988 119.384 84.664 119.456 84.16L113.228 83.62V88.192H103.832L104.12 89.2H113.228V97.804C113.228 98.272 113.048 98.452 112.472 98.452C111.572 98.452 106.604 98.164 106.604 98.164V98.596C108.908 98.992 109.772 99.496 110.528 100.18C111.284 100.9 111.5 101.944 111.644 103.42C117.404 102.952 118.232 101.224 118.232 97.984V89.2H122.876C123.38 89.2 123.74 89.02 123.848 88.624C122.336 87.22 119.816 85.168 119.816 85.168L118.232 87.292ZM104.948 89.812C106.136 91.648 107.504 94.204 107.936 96.58C112.184 99.676 116.108 91.576 105.236 89.632L104.948 89.812Z" fill="#573605"/>
</svg>
