<svg width="180" height="180" viewBox="0 0 180 180" fill="none" xmlns="http://www.w3.org/2000/svg">
<rect width="180" height="180" rx="2" fill="#FDBF52"/>
<path d="M68.012 65.764H63.944L61.244 64.756C61.424 64.036 61.532 63.316 61.604 62.632H67.94V63.64H68.768C69.164 63.64 69.596 63.604 70.064 63.496L68.012 65.764ZM63.44 72.496V66.772H68.372V72.496H63.44ZM67.94 54.928V57.808H61.82V54.928H67.94ZM67.94 61.624H61.712C61.784 60.616 61.82 59.68 61.82 58.816H67.94V61.624ZM64.34 50.428H61.136C63.116 48.52 64.772 46.468 65.96 44.488C68.12 46.324 69.452 48.772 69.92 50.752C68.516 49.492 66.356 47.872 66.356 47.872L64.34 50.428ZM72.728 55.72C73.448 55.54 73.952 55.216 74.168 54.928L69.668 51.616L67.58 53.92H62.54L58.652 52.588C59.264 52.12 59.876 51.616 60.416 51.112L60.524 51.436H69.056C69.488 51.436 69.812 51.292 69.956 51.004L70.028 51.364C73.772 54.388 79.316 45.928 66.14 44.164C67.256 44.056 67.616 43.804 67.76 43.3L60.848 42.04C59.804 45.928 56.996 51.724 53.468 55.396L53.72 55.648C54.944 55.072 56.096 54.388 57.212 53.632V58.492C57.212 63.532 56.96 70.012 53.9 75.124L54.188 75.412C56.276 74.08 57.788 72.46 58.904 70.732V76.276H59.732C62.072 76.276 63.44 75.304 63.44 75.016V73.504H68.372V75.772H69.2C70.712 75.772 73.16 74.98 73.196 74.764V67.564C73.952 67.42 74.42 67.06 74.636 66.772L70.208 63.46C71.468 63.244 72.692 62.776 72.728 62.632V55.72ZM79.784 46.54C80.648 46.396 80.9 46.072 80.972 45.604L75.392 45.1V68.356H76.22C77.876 68.356 79.784 67.492 79.784 67.096V46.54ZM81.98 42.76V70.588C81.98 71.02 81.8 71.2 81.26 71.2C80.468 71.2 76.832 70.984 76.832 70.984V71.452C78.668 71.776 79.388 72.316 79.964 73.036C80.54 73.792 80.72 74.908 80.828 76.456C86.048 75.988 86.768 74.188 86.768 70.948V44.344C87.632 44.236 87.992 43.876 88.064 43.336L81.98 42.76ZM102.392 42.4C103.724 44.236 105.056 46.792 105.416 49.312C110.312 52.876 114.848 43.48 102.644 42.22L102.392 42.4ZM122.048 51.508C122.588 51.508 122.984 51.328 123.092 50.932C121.148 49.276 117.872 46.828 117.872 46.828L114.992 50.5H91.196L91.484 51.508H122.048ZM95.912 53.74C97.712 58.816 99.476 64.684 99.656 70.012C105.236 75.34 109.232 62.884 96.344 53.596L95.912 53.74ZM115.964 72.892H109.16C112.796 67.456 116.252 60.4 118.16 55.864C119.096 55.864 119.492 55.468 119.636 55L112.256 53.164C111.392 58.708 109.664 66.952 108.008 72.892H89.792L90.08 73.9H123.236C123.776 73.9 124.208 73.72 124.316 73.324C122.3 71.632 118.916 69.112 118.916 69.112L115.964 72.892ZM71.792 111.896V105.56H74.06V111.896H71.792ZM62.432 107.504V99.008H66.788V107.828C65.636 106.46 64.016 104.84 64.016 104.84L62.432 107.504ZM74.06 98.216V104.552H71.792V98.216H74.06ZM81.512 98.216V104.552H79.136V98.216H81.512ZM79.136 111.896V105.56H81.512V111.896H79.136ZM81.728 126.116H79.136V119.636H86.372C86.912 119.636 87.308 119.456 87.38 119.06C85.868 117.512 83.168 115.208 83.168 115.208L80.792 118.628H79.136V112.904H81.512V114.488H82.376C84.176 114.488 86.588 113.372 86.624 113.012V99.044C87.344 98.864 87.812 98.54 88.028 98.252L83.456 94.688L81.152 97.208H72.044L66.788 95.156V97.208C65.348 95.912 63.8 94.616 63.8 94.616L61.388 98H53.72L54.008 99.008H57.392V108.044H53.792L54.08 109.052H57.392V118.988C55.664 119.384 54.224 119.708 53.36 119.888L55.628 125.576C56.06 125.432 56.456 125 56.6 124.532C61.712 121.22 65.168 118.556 67.256 116.756L67.148 116.432C65.564 116.864 63.98 117.296 62.432 117.692V109.052H66.392C66.536 109.052 66.68 109.052 66.788 109.016V115.316H67.544C69.668 115.316 71.792 114.164 71.792 113.66V112.904H74.06V118.628H66.572L66.86 119.636H74.06V126.116H63.476L63.764 127.124H87.812C88.316 127.124 88.748 126.944 88.82 126.548C87.2 124.892 84.284 122.372 84.284 122.372L81.728 126.116ZM95.192 116C95.372 118.088 94.04 119.96 92.78 120.644C91.52 121.256 90.656 122.372 91.088 123.848C91.628 125.396 93.428 125.864 94.796 125.072C96.704 123.956 97.856 120.608 95.624 115.964L95.192 116ZM96.38 109.088H112.256C111.896 111.068 111.104 113.48 110.312 115.1L110.6 115.496C113.624 114.056 116.468 111.752 117.908 109.412C118.664 109.34 118.952 109.232 119.132 108.872L114.632 105.848L112.076 108.08H96.056L96.38 109.088ZM107.792 103.976H100.484L100.772 104.984H112.436C112.94 104.984 113.3 104.804 113.408 104.408C112.076 103.076 109.808 101.132 109.808 101.132L107.792 103.976ZM104.696 114.056C105.92 115.64 107.036 118.016 107.216 120.176C111.32 123.344 115.46 115.352 104.984 113.876L104.696 114.056ZM115.28 118.556H114.956C114.02 120.716 113.372 122.084 112.868 122.696C112.544 123.092 112.292 123.2 111.716 123.236C111.104 123.272 109.916 123.272 108.8 123.272H104.804C103.688 123.272 103.508 123.128 103.508 122.624V116.756C104.264 116.612 104.588 116.324 104.66 115.82L98.288 115.352V123.524C98.288 126.764 99.404 127.52 103.868 127.52H108.152C115.208 127.52 117.224 126.944 117.224 124.82C117.224 123.92 116.864 123.38 115.424 122.84L115.28 118.556ZM115.136 115.676C116.936 117.584 118.448 120.572 118.7 123.308C123.344 126.872 127.52 117.404 115.424 115.46L115.136 115.676ZM103.112 93.86C101.24 98.612 96.164 104.3 90.008 107.468L90.116 107.792C98.288 105.992 105.056 101.168 107.972 97.352C110.78 102.068 115.244 105.416 121.22 107.072C121.508 105.056 122.3 102.608 124.424 101.744V101.168C118.16 100.988 112.004 99.476 108.44 96.956C109.808 96.812 110.204 96.524 110.348 96.02L103.112 93.86Z" fill="#573605"/>
</svg>
