<svg width="180" height="180" viewBox="0 0 180 180" fill="none" xmlns="http://www.w3.org/2000/svg">
<rect width="180" height="180" fill="#FFFFFD"/>
<path d="M85.248 119.76H77.472V106.48H88.672C89.12 106.48 89.472 106.32 89.536 105.968C88.16 104.816 85.888 103.184 85.888 103.184L83.904 105.552H62.656L62.944 106.48H74.368V119.76H61.152L61.408 120.688H74.368V132.72H74.912C76.512 132.72 77.472 132.048 77.472 131.824V120.688H89.984C90.464 120.688 90.816 120.528 90.88 120.176C89.536 118.96 87.264 117.296 87.264 117.296L85.248 119.76ZM65.408 108.56C66.656 110.896 67.968 114.192 68.128 116.976C71.104 119.824 74.144 113.2 65.792 108.368L65.408 108.56ZM80.288 118.064C82.496 116.144 84.736 113.36 86.528 110.448C87.232 110.512 87.648 110.224 87.776 109.872L83.552 108.304C82.528 111.664 81.056 115.44 79.872 117.776L80.288 118.064ZM118.212 109.104C117.956 110.384 117.54 111.952 117.252 113.008L117.54 113.2C118.916 112.336 120.644 110.864 121.636 109.744C122.244 109.712 122.596 109.648 122.852 109.392L119.78 106.416L118.02 108.176H109.252C111.332 107.728 111.94 103.728 105.348 102.896L105.092 103.12C106.276 104.176 107.3 106.032 107.396 107.632C107.78 107.92 108.132 108.112 108.452 108.176H97.444C97.316 107.6 97.124 107.024 96.868 106.384H96.356C96.612 108.24 95.62 110.064 94.596 110.8C93.764 111.248 93.22 112.112 93.604 113.072C94.052 114.128 95.492 114.224 96.356 113.52C97.252 112.784 97.892 111.248 97.604 109.104H118.212ZM111.716 118.096C111.076 120.816 109.892 123.312 107.876 125.424C105.86 124.976 103.556 124.592 100.836 124.176C101.924 122.416 103.14 120.24 104.196 118.096H111.716ZM117.38 117.168H115.428C115.588 116.432 115.716 115.696 115.812 114.96C116.484 114.96 116.9 114.736 117.06 114.224L112.388 113.264C112.292 114.64 112.164 115.92 111.908 117.168H104.676C105.668 115.248 106.532 113.456 107.14 112.176C108.1 112.24 108.356 111.952 108.516 111.6L104.1 110.192C103.62 111.728 102.5 114.448 101.22 117.168H93.956L94.18 118.096H100.804C99.652 120.496 98.468 122.864 97.572 124.368C100.644 125.2 103.492 126.128 106.02 127.12C103.3 129.232 99.46 130.928 94.084 132.24L94.276 132.656C100.708 131.728 105.22 130.192 108.388 128.112C111.652 129.488 114.212 130.96 116.068 132.304C119.044 133.904 122.98 129.648 110.82 126.192C113.124 123.952 114.436 121.232 115.204 118.096H121.764C122.212 118.096 122.532 117.936 122.628 117.584C121.348 116.464 119.236 114.928 119.236 114.928L117.38 117.168Z" fill="#573605"/>
<path d="M77.404 87.6881C75.9179 87.6881 74.702 86.4721 74.702 84.986V48.3062C74.702 47.5902 74.9857 46.9011 75.4991 46.4013L88.4012 33.4992C88.9281 32.9723 89.6171 32.702 90.3061 32.702C90.9951 32.702 91.6841 32.9723 92.211 33.4992L105.113 46.4013C105.627 46.9146 105.91 47.5902 105.91 48.3062V84.986C105.91 86.4721 104.694 87.6881 103.208 87.6881H77.404Z" fill="#CA9F70"/>
<path d="M90.3062 35.404L103.208 48.3062V84.986H90.3062H77.404V48.3062L90.3062 35.404ZM90.3062 30C88.8741 30 87.4961 30.5674 86.4828 31.5807L73.5807 44.4828C72.5674 45.4961 72 46.8741 72 48.3062V84.986C72 87.9718 74.4183 90.3901 77.404 90.3901H90.3062H103.208C106.194 90.3901 108.612 87.9718 108.612 84.986V48.3062C108.612 46.8741 108.045 45.4961 107.032 44.4828L100.574 38.025L96.1425 33.5937C93.1703 30.6215 92.5488 30 90.3062 30Z" fill="#543714"/>
</svg>
