<svg width="180" height="180" viewBox="0 0 180 180" fill="none" xmlns="http://www.w3.org/2000/svg">
<rect width="180" height="180" rx="2" fill="#FCDBA3"/>
<path d="M88.184 108.312V111.672H85.24V108.312H88.184ZM88.184 116.056H85.24V112.6H88.184V116.056ZM78.872 108.312H82.616V111.672H76.824L77.08 112.6H82.616V116.056H78.968L79.256 116.952H82.616V120.376H78.52L78.776 121.304H82.616V124.504H77.464L77.72 125.432H82.616V129.56H83.16C84.088 129.56 85.24 128.92 85.24 128.632V125.432H92.504C92.92 125.432 93.208 125.272 93.272 124.92C92.344 123.896 90.68 122.488 90.68 122.488L89.272 124.504H85.24V121.304H91.128C91.576 121.304 91.896 121.144 91.96 120.792C91.032 119.832 89.432 118.488 89.432 118.488L88.088 120.376H85.24V116.952H88.184V117.816H88.6C89.432 117.816 90.68 117.272 90.712 117.08V112.6H93.4C93.816 112.6 94.104 112.44 94.168 112.088C93.496 111.16 92.248 109.816 92.248 109.816L91.16 111.672H90.712V108.6C91.192 108.504 91.608 108.28 91.768 108.088L89.176 106.072L87.896 107.384H85.24V105.304C86.008 105.176 86.264 104.856 86.328 104.472L82.616 104.056V107.384H78.584L78.872 108.312ZM69.784 113.976C70.36 113.88 70.648 113.656 70.776 113.368L69.144 112.76C70.104 110.616 70.968 108.312 71.672 105.88C72.376 105.912 72.76 105.624 72.888 105.208L68.664 103.96C67.736 110.008 65.688 116.344 63.608 120.536L64.088 120.792C65.112 119.608 66.104 118.328 67 116.856V133.72H67.512C68.568 133.72 69.752 133.08 69.784 132.856V113.976ZM76.536 115.48L75.096 116.984H73.848C74.872 114.552 76.312 110.936 77.048 108.76C77.688 108.696 78.232 108.536 78.488 108.248L75.832 105.912L74.52 107.192H71.32L71.608 108.12H74.648C73.88 110.552 72.472 114.296 71.448 116.568C71.032 116.728 70.616 116.92 70.328 117.144L72.696 118.84L73.688 117.912H75.384C75.224 120.632 74.968 123.256 74.296 125.72C73.208 124.28 72.376 122.456 71.672 120.056L71.256 120.248C71.896 123.192 72.696 125.528 73.784 127.32C72.92 129.56 71.672 131.608 69.72 133.24L70.008 133.688C72.248 132.376 73.816 130.808 75 128.984C77.688 132.12 81.592 133.016 87.256 133.016H92.44C92.504 131.864 93.016 130.84 94.072 130.616V130.2C92.376 130.232 89.016 130.232 87.512 130.232C82.296 130.232 78.552 129.656 75.896 127.416C77.24 124.6 77.752 121.464 78.072 118.264C78.712 118.168 79 118.072 79.224 117.752L76.536 115.48ZM109.564 104.024C110.3 104.824 111.132 106.136 111.292 107.32C113.916 109.272 116.764 104.44 109.852 103.832L109.564 104.024ZM101.724 108.76H124.796C125.244 108.76 125.564 108.6 125.66 108.248C124.476 107.096 122.46 105.496 122.46 105.496L120.732 107.832H102.204L98.94 106.552V116.44C98.94 122.232 98.716 128.44 95.9 133.368L96.316 133.656C101.404 128.92 101.724 121.88 101.724 116.44V108.76ZM109.596 126.296C105.852 127.736 102.14 129.08 100.572 129.496L102.3 132.728C102.62 132.6 102.876 132.248 102.972 131.832C106.012 129.656 108.252 127.896 109.724 126.68L109.596 126.296ZM102.94 122.04C104.316 122.936 106.204 124.536 107.004 125.848C109.916 127.032 111.132 121.624 103.164 121.752L102.94 122.04ZM114.652 127.224C117.052 128.44 120.508 130.744 122.012 132.504C125.308 133.368 125.596 127.448 114.876 126.872L114.652 127.224ZM118.908 119.992H113.788V116.888H118.908V119.992ZM113.788 112.92H118.908V115.96H113.788V112.92ZM122.428 115.96H121.916V113.208C122.364 113.112 122.716 112.92 122.876 112.728L120.028 110.552L118.652 111.992H113.788V110.36C114.556 110.264 114.876 109.976 114.94 109.528L110.78 109.08V111.992H103.74L103.996 112.92H110.78V115.96H102.172L102.428 116.888H110.78V119.992H103.58L103.868 120.92H110.78V130.072C110.78 130.488 110.652 130.616 110.14 130.616C109.564 130.616 106.812 130.424 106.812 130.424V130.872C108.156 131.096 108.796 131.448 109.212 131.864C109.596 132.28 109.756 132.984 109.82 133.88C113.34 133.56 113.788 132.344 113.788 130.2V120.92H118.908V121.752C117.756 123 116.124 124.632 114.972 125.592L115.228 125.912C117.084 125.336 120.028 124.312 121.468 123.608C122.172 123.8 122.46 123.704 122.652 123.448L120.348 121.624C121.116 121.4 121.884 120.952 121.916 120.728V116.888H125.116C125.532 116.888 125.852 116.728 125.916 116.376C125.084 115.48 123.676 114.232 123.676 114.232L122.428 115.96Z" fill="#573605"/>
<path d="M97.322 91.2536L94.0762 91.271C91.5439 91.2846 89.4551 89.2181 89.4416 86.6857L89.1494 32.2052C89.1359 29.6728 91.2023 27.5841 93.7347 27.5705L96.9805 27.5531C99.5128 27.5395 101.602 29.606 101.615 32.1383L101.907 86.6189C101.921 89.1591 99.8544 91.24 97.322 91.2536Z" fill="#CA9F70" stroke="#543714" stroke-width="4" stroke-miterlimit="10" stroke-linecap="round" stroke-linejoin="round"/>
<path d="M77.8929 32.5791C77.8848 31.0817 79.0936 29.8678 80.5832 29.8598C82.457 29.8498 83.9782 31.3548 83.9883 33.2286C84.0008 35.5649 82.1137 37.4724 79.7773 37.4849C76.853 37.5006 74.4726 35.1456 74.4569 32.2212C74.4373 28.5678 77.385 25.5962 81.0306 25.5766C85.5936 25.5522 89.3139 29.2328 89.3384 33.7957C89.369 39.5033 84.7681 44.1537 79.0606 44.1843C71.9418 44.2225 66.1248 38.4676 66.0866 31.3331C66.0388 22.419 73.2285 15.1517 82.1427 15.1039C91.3234 15.0546 101.565 22.7538 101.615 32.1697" fill="#CA9F70"/>
<path d="M77.8929 32.5791C77.8848 31.0817 79.0936 29.8678 80.5832 29.8598C82.457 29.8498 83.9782 31.3548 83.9883 33.2286C84.0008 35.5649 82.1137 37.4724 79.7773 37.4849C76.853 37.5006 74.4726 35.1456 74.4569 32.2212C74.4373 28.5678 77.385 25.5962 81.0306 25.5766C85.5936 25.5522 89.3139 29.2328 89.3384 33.7957C89.369 39.5033 84.7681 44.1537 79.0606 44.1843C71.9418 44.2225 66.1248 38.4676 66.0866 31.3331C66.0388 22.419 73.2285 15.1517 82.1427 15.1039C91.3234 15.0546 101.565 22.7538 101.615 32.1697" stroke="#543714" stroke-width="4" stroke-miterlimit="10" stroke-linecap="round" stroke-linejoin="round"/>
</svg>
