<svg width="30" height="38" viewBox="0 0 30 38" fill="none" xmlns="http://www.w3.org/2000/svg">
<path d="M9.4583 12.751C8.799 12.1973 8.49471 11.3141 8.28763 10.5026C8.04459 9.57223 7.98148 8.60398 8.10167 7.64991C8.34985 5.76246 9.31547 4.04311 10.798 2.8489C11.504 2.30962 12.3178 1.92859 13.1842 1.7317C14.0505 1.53481 14.949 1.52666 15.8188 1.70781C17.9066 2.13044 19.2589 3.51242 20.1676 5.3931C21.1396 7.40901 21.782 9.99125 20.5437 12.0325C20.0154 12.9074 21.389 13.723 21.913 12.8313C23.2443 10.6167 22.9062 7.88235 21.9764 5.58328C21.0466 3.2842 19.559 1.26406 17.0993 0.41881C16.0306 0.0550257 14.8959 -0.074013 13.7727 0.0404919C12.6496 0.154997 11.5643 0.510352 10.5909 1.08233C9.61231 1.69669 8.76469 2.4983 8.09673 3.44114C7.42876 4.38398 6.95361 5.44947 6.69856 6.57644C6.40061 7.90102 6.40061 9.27525 6.69856 10.5998C6.94791 11.7578 7.41702 13.0849 8.35102 13.8709C9.12865 14.5218 10.2571 13.406 9.47097 12.751H9.4583Z" fill="#573605"/>
<path d="M8.21566 12.9118C7.15487 15.1644 4.70788 16.0942 2.81452 17.4931C1.76182 18.1969 0.905253 19.1567 0.325266 20.2824C-0.0339647 21.0727 -0.291765 22.1208 0.654913 22.6195C1.37337 22.9999 2.45952 22.8731 3.22869 22.7632C5.08824 22.5012 6.69421 21.4446 8.34667 20.6501C9.25954 20.2021 8.45655 18.8328 7.54369 19.2808C6.27581 19.8978 5.07133 20.6923 3.71471 21.0685C3.01783 21.2609 2.2916 21.3239 1.57201 21.2544C1.1198 21.2122 1.74106 21.3221 1.57201 21.4488C1.6185 21.415 1.66498 21.1784 1.69457 21.1065C1.79952 20.8655 1.92687 20.6349 2.07493 20.4176C3.22024 18.6595 5.38408 17.8185 7.01963 16.614C8.10501 15.8758 8.98837 14.8777 9.58919 13.7106C9.68797 13.5271 9.71279 13.3128 9.65857 13.1116C9.60434 12.9105 9.47518 12.7376 9.29758 12.6287C9.11568 12.5236 8.89968 12.4943 8.69638 12.5473C8.49308 12.6003 8.31885 12.7313 8.21143 12.9118H8.21566Z" fill="#573605"/>
<path d="M7.15514 19.9654C7.70033 24.3522 8.05956 28.8109 7.53973 33.2189C7.42562 34.2078 7.06639 35.2728 7.17205 36.2702C7.19786 36.7246 7.39166 37.1531 7.7158 37.4725C8.03993 37.792 8.47125 37.9795 8.92594 37.9987C10.6164 38.0537 12.1759 36.4139 13.1775 35.2348C14.5215 33.6626 15.6414 31.7988 15.8697 29.7111C15.8675 29.5021 15.7835 29.3024 15.6357 29.1547C15.488 29.0069 15.2883 28.923 15.0793 28.9208C14.8707 28.925 14.6717 29.0095 14.5237 29.1567C14.3758 29.3039 14.2902 29.5024 14.2848 29.7111C14.1242 31.1818 13.2705 32.5891 12.3788 33.726C11.9147 34.3189 11.3984 34.8691 10.8362 35.37C10.4136 35.7588 9.68666 36.4223 9.05695 36.4181C8.42724 36.4139 8.81183 35.3446 8.871 35.0065C9.02878 34.0852 9.14711 33.1569 9.226 32.2215C9.38516 30.3126 9.41763 28.3953 9.32321 26.4822C9.23023 24.3015 9.01046 22.1292 8.73998 19.9654C8.73257 19.7574 8.64636 19.56 8.49882 19.4133C8.35128 19.2665 8.15345 19.1814 7.94545 19.175C7.73585 19.175 7.53483 19.2583 7.38662 19.4065C7.23841 19.5547 7.15514 19.7558 7.15514 19.9654Z" fill="#573605"/>
<path d="M20.383 13.1737C21.372 15.2868 23.2991 16.5547 25.0319 18C25.8919 18.6337 26.6415 19.4047 27.2507 20.2822C27.3982 20.5196 27.5295 20.7667 27.6437 21.0218C27.6818 21.1106 27.7071 21.2078 27.7451 21.2923C27.6944 21.1866 27.7959 21.4529 27.8001 21.4529L27.9776 21.212H27.9438C27.9226 21.1739 26.9591 21.2458 26.8365 21.2416C26.5182 21.231 26.2015 21.1929 25.8898 21.1275C24.3472 20.7809 22.9737 19.923 21.5664 19.2341C20.6535 18.7861 19.8505 20.1512 20.7676 20.6034C22.213 21.3134 23.6246 22.1713 25.1925 22.5855C26.3674 22.8983 29.3934 23.4054 29.3849 21.4613C29.2995 20.7503 29.0349 20.0726 28.6158 19.4919C28.2667 18.9406 27.8586 18.429 27.3986 17.9662C26.4737 17.1042 25.5016 16.2943 24.4867 15.5404C23.3429 14.7054 22.4072 13.6178 21.7523 12.3622C21.6442 12.1825 21.4699 12.0523 21.267 11.9994C21.064 11.9464 20.8483 11.9751 20.6662 12.0791C20.4881 12.1887 20.3593 12.3629 20.3065 12.5653C20.2538 12.7677 20.2812 12.9826 20.383 13.1652V13.1737Z" fill="#573605"/>
<path d="M20.3745 19.9271C20.0951 23.8095 20.2823 27.7115 20.9323 31.5493C21.0718 32.4495 21.2282 33.3454 21.4099 34.2372C21.4902 34.6598 21.5832 35.0486 21.6635 35.4543C21.7057 35.6572 21.8241 36.1052 21.6635 36.2996C21.3507 36.6588 20.3322 36.2615 20.0068 36.1052C19.3742 35.7338 18.8224 35.2394 18.3839 34.6513C17.0703 33.2072 16.1913 31.4214 15.8482 29.4995C15.7919 29.2977 15.6581 29.1264 15.4761 29.0227C15.2941 28.919 15.0784 28.8914 14.8761 28.9459C14.6762 29.005 14.5069 29.1393 14.4036 29.3205C14.3004 29.5017 14.2714 29.7158 14.3225 29.9179C14.5972 31.9127 15.6369 33.7723 16.9047 35.3275C17.9867 36.6926 19.3813 37.9943 21.2409 37.9732C21.6681 38.0023 22.0931 37.8909 22.451 37.6559C22.8089 37.4208 23.08 37.0751 23.223 36.6715C23.5104 35.7248 23.1173 34.664 22.9314 33.7131C22.5132 31.6181 22.2099 29.5018 22.0227 27.3737C21.7943 24.8974 21.7788 22.4061 21.9762 19.9271C22.065 18.9128 20.4801 18.917 20.3914 19.9271H20.3745Z" fill="#573605"/>
<path d="M15.2136 18.431C14.9229 17.5285 14.3246 16.7568 13.5231 16.2502C13.2301 16.0464 12.8896 15.9215 12.5343 15.8875C12.179 15.8534 11.8209 15.9114 11.4945 16.0558C11.2495 16.1842 11.0351 16.3639 10.8659 16.5827C10.6967 16.8015 10.5767 17.0543 10.514 17.3237C10.2309 18.4352 10.9367 19.3396 11.7016 20.0327C12.4042 20.6596 13.1593 21.2252 13.9584 21.7232C14.1516 21.8388 14.3721 21.9008 14.5973 21.903C14.8224 21.9051 15.044 21.8473 15.2394 21.7354C15.4348 21.6235 15.5968 21.4616 15.7089 21.2663C15.821 21.0711 15.8791 20.8495 15.8772 20.6244C15.8497 20.1599 15.8497 19.6942 15.8772 19.2297V19.1241C15.8772 18.9761 15.8772 18.9846 15.8772 19.1452C15.884 19.0386 15.9053 18.9333 15.9405 18.8325C15.9628 18.7295 15.991 18.6279 16.0251 18.5282C16.135 18.1943 16.0251 18.4944 16.0251 18.4986C16.0635 18.4085 16.1102 18.3222 16.1645 18.2408L16.2279 18.1351C16.2955 18.0421 16.2913 18.0421 16.2279 18.1351C16.1645 18.2281 16.1603 18.2197 16.2279 18.1351C16.2955 18.0506 16.2998 18.0548 16.3378 18.0126C16.3758 17.9703 16.5111 17.8393 16.5195 17.8435C16.3801 17.9492 16.3505 17.9745 16.4266 17.9196L16.528 17.8562L16.6379 17.797C16.7224 17.7505 16.6801 17.7674 16.5153 17.8393C16.5946 17.8215 16.6723 17.7975 16.7478 17.7674C16.883 17.7421 16.8534 17.7421 16.6506 17.7674C16.7773 17.7674 16.79 17.7674 16.6886 17.7674C16.6136 17.7596 16.5421 17.7319 16.4815 17.6871C16.342 17.5604 16.304 17.5308 16.3758 17.5984C16.4477 17.666 16.4139 17.628 16.2913 17.4843C16.3589 17.6068 16.3463 17.573 16.2617 17.3913C16.342 17.6195 16.2617 17.0955 16.2617 17.3533V17.4547C16.2617 17.2772 16.2617 17.2603 16.2617 17.404C16.0842 17.6787 16.4054 17.18 16.2364 17.4632C16.1857 17.5519 16.1392 17.6407 16.0885 17.7252C16.0377 17.8097 15.9828 17.8942 15.9236 17.9745C15.8645 18.0548 15.6827 18.3084 15.7884 18.1689C15.8941 18.0295 15.6912 18.283 15.6701 18.3126C15.6489 18.3422 15.5179 18.4901 15.4376 18.5747C15.3024 18.7226 15.1629 18.8663 15.015 18.9973C14.7065 19.3058 14.3811 19.5974 14.0599 19.889C13.9404 20.007 13.8455 20.1474 13.7808 20.3023C13.716 20.4572 13.6827 20.6234 13.6827 20.7913C13.6827 20.9592 13.716 21.1254 13.7808 21.2803C13.8455 21.4352 13.9404 21.5757 14.0599 21.6936C14.3022 21.9256 14.6246 22.0551 14.9601 22.0551C15.2955 22.0551 15.618 21.9256 15.8602 21.6936C16.5077 21.1364 17.1072 20.5257 17.6522 19.8679C18.341 18.9973 19.0426 17.9449 18.751 16.7743C18.6732 16.4825 18.5337 16.2108 18.342 15.9775C18.1503 15.7442 17.9108 15.5546 17.6397 15.4217C17.3686 15.2887 17.0721 15.2154 16.7702 15.2067C16.4684 15.198 16.1682 15.2541 15.8898 15.3712C14.9866 15.6933 14.2479 16.3605 13.8359 17.2265C13.3951 18.306 13.2225 19.4763 13.333 20.6371L15.2474 19.5382C14.9967 19.3833 14.7516 19.2227 14.5121 19.0564L14.174 18.8156C14.1317 18.7775 13.9246 18.638 14.1444 18.8156L13.9838 18.6845C13.7556 18.5028 13.5316 18.3084 13.316 18.114C13.2231 18.0252 13.1301 17.9407 13.0456 17.8477C13.0202 17.8266 12.885 17.666 12.9949 17.8013C13.1047 17.9365 12.923 17.704 12.9441 17.6998C12.9653 17.6956 13.016 17.9576 12.9737 17.7505C12.9737 17.8013 12.9737 18.0421 13.0033 17.8689C13.0033 17.9154 12.9441 18.152 13.0033 17.9872C12.9642 18.1022 12.9008 18.2074 12.8174 18.2957L12.8638 18.245C12.8209 18.2963 12.7681 18.3385 12.7086 18.369C12.6491 18.3995 12.584 18.4177 12.5173 18.4225C12.4507 18.4518 12.3787 18.467 12.306 18.467C12.2332 18.467 12.1612 18.4518 12.0947 18.4225C11.9425 18.376 12.12 18.4225 12.1581 18.4563L12.306 18.5451L12.3736 18.5958C12.4539 18.6507 12.4243 18.6254 12.2891 18.5282C12.2891 18.562 12.3863 18.6127 12.4159 18.6423C12.4454 18.6719 12.5638 18.8409 12.6483 18.8959C12.5891 18.8578 12.5173 18.6972 12.6018 18.8451C12.6398 18.9085 12.6779 18.9677 12.7117 19.0311C12.7455 19.0945 12.7624 19.1325 12.792 19.1832C12.8681 19.3269 12.6821 18.8874 12.7709 19.1579C12.8186 19.3183 12.8974 19.4677 13.0029 19.5976C13.1084 19.7275 13.2384 19.8354 13.3856 19.9151C13.5328 19.9947 13.6942 20.0446 13.8606 20.0619C14.0271 20.0792 14.1953 20.0635 14.3557 20.0158C14.5161 19.9681 14.6655 19.8892 14.7954 19.7837C14.9254 19.6783 15.0332 19.5482 15.1129 19.4011C15.1926 19.2539 15.2425 19.0925 15.2597 18.926C15.277 18.7596 15.2614 18.5914 15.2136 18.431Z" fill="#573605"/>
</svg>
