<svg width="31" height="30" viewBox="0 0 31 30" fill="none" xmlns="http://www.w3.org/2000/svg">
<path d="M16.0791 8.06634C16.3953 5.29773 18.4741 2.65366 21.2188 1.94953C24.5047 1.10649 27.4122 3.47274 28.2601 6.53354C29.2181 9.88653 27.8864 13.3976 26.1094 16.2285C24.5027 18.6215 22.586 20.7911 20.4093 22.6806C18.0574 24.8504 15.4708 26.9293 12.5777 28.3471C11.5382 28.8597 12.4483 30.4068 13.483 29.8991C16.4001 28.4621 19.0202 26.3641 21.42 24.199C23.8197 22.0339 26.1429 19.6629 27.8146 16.9086C29.8168 13.6036 31.1341 9.53207 29.903 5.71446C28.7103 2.03575 25.2472 -0.550842 21.305 0.100595C17.473 0.732873 14.7092 4.34931 14.2829 8.06634C14.2995 8.2932 14.4013 8.50539 14.5679 8.66026C14.7345 8.81514 14.9535 8.90122 15.181 8.90122C15.4085 8.90122 15.6275 8.81514 15.7941 8.66026C15.9607 8.50539 16.0626 8.2932 16.0791 8.06634Z" fill="#573605"/>
<path d="M16.079 8.06626C15.9217 6.58257 15.4112 5.15816 14.5904 3.91227C13.7695 2.66638 12.6621 1.63526 11.3609 0.905232C9.91043 0.133075 8.24589 -0.139446 6.62492 0.129851C5.00394 0.399147 3.51693 1.19524 2.39405 2.39492C0.133181 4.78991 -0.403298 8.27701 0.27209 11.4336C0.957058 14.6956 2.83473 17.7229 4.88963 20.3095C6.97188 22.8519 9.59938 24.8933 12.5776 26.2826C13.6122 26.7903 14.5223 25.2431 13.4829 24.7354C11.1558 23.6585 9.04543 22.165 7.25588 20.3286C5.39348 18.3335 3.89113 16.0305 2.81557 13.522C1.71866 10.9307 1.28278 7.86987 2.56649 5.26891C3.83105 2.73022 6.5805 1.17826 9.38264 2.01651C11.9932 2.79727 13.981 5.3695 14.2828 8.06626C14.2912 8.30196 14.3889 8.52565 14.5561 8.69199C14.7233 8.85832 14.9476 8.95484 15.1833 8.96198C15.4205 8.96072 15.6476 8.86595 15.8153 8.69824C15.983 8.53053 16.0778 8.30343 16.079 8.06626Z" fill="#573605"/>
</svg>
