<svg width="30" height="30" viewBox="0 0 30 30" fill="none" xmlns="http://www.w3.org/2000/svg">
<path d="M19.5238 9.39387C18.852 8.33749 17.6541 8.02366 16.4872 7.86454C15.203 7.64203 13.8814 7.81146 12.6948 8.35075C10.4848 9.4425 9.64059 12.2271 11.2848 14.1587C12.1214 15.0523 13.2289 15.6457 14.4363 15.8471C15.5148 16.0726 16.6464 16.0858 17.6939 16.4173C18.5779 16.7002 19.3249 17.3411 19.1127 18.3621C18.9006 19.3832 17.9458 20.0948 16.9513 20.3909C14.8297 21.0318 10.8119 21.2086 9.87927 18.6229C9.52125 17.6284 7.91678 18.0572 8.28364 19.0649C9.19417 21.5667 11.8197 22.4463 14.2816 22.4109C16.6773 22.3755 19.5326 21.8363 20.5448 19.3566C20.7715 18.8433 20.8601 18.2796 20.802 17.7214C20.7439 17.1632 20.5409 16.6299 20.2133 16.1742C19.5177 15.3532 18.5465 14.8141 17.4817 14.6581C16.3104 14.415 15.0861 14.415 13.9457 14.004C12.9998 13.6592 11.9655 12.8636 12.0539 11.7453C12.1468 10.4856 13.3799 9.69886 14.4982 9.49996C15.202 9.39444 15.919 9.4154 16.6154 9.56184C17.1281 9.65908 17.7956 9.76516 18.0961 10.2381C18.6663 11.1221 20.1028 10.3044 19.5282 9.40272L19.5238 9.39387Z" fill="#573605"/>
<path d="M13.8486 4.41234L13.9768 25.7788C13.9768 26.844 15.6432 26.8485 15.6343 25.7788L15.5062 4.41234C15.5062 3.3427 13.8442 3.3427 13.8486 4.41234Z" fill="#573605"/>
<path d="M14.4011 28.1436C13.1041 28.3897 11.7709 28.3733 10.4803 28.0955C9.18968 27.8176 7.96787 27.2839 6.88703 26.5258C4.5358 24.949 2.8414 22.5677 2.12223 19.8295C1.34586 16.7019 1.52445 13.4134 2.63495 10.3883C3.60736 7.59482 5.28698 4.71296 7.91248 3.19246C10.3833 1.76037 13.5613 1.47307 16.3592 1.76037C18.9297 2.00931 21.3794 2.97232 23.4312 4.54058C25.8225 6.45003 27.0645 9.18162 27.6038 12.143C27.8982 13.8687 27.9547 15.6265 27.7717 17.3675C27.6524 18.6626 27.5507 19.9577 26.9894 21.1555C25.0799 25.2352 20.1825 27.1181 16.0321 27.8961C15.5636 27.9845 15.0906 28.0596 14.6177 28.1126C14.4002 28.1204 14.1938 28.2106 14.0403 28.3649C13.8868 28.5192 13.7977 28.7261 13.7911 28.9436C13.7923 29.1625 13.8797 29.372 14.0345 29.5268C14.1893 29.6815 14.3988 29.769 14.6177 29.7702C19.4311 29.2044 24.8545 27.3701 27.7231 23.2285C28.459 22.169 28.9567 20.9627 29.1817 19.6925C29.5297 17.828 29.6469 15.9279 29.5309 14.0348C29.2657 10.6049 28.2623 7.11304 25.8888 4.53616C21.8091 0.133796 14.6972 -1.01541 9.13241 0.876363C5.77318 1.98137 3.4394 4.62898 1.94101 7.76278C0.363757 10.9518 -0.272506 14.524 0.10669 18.0615C0.452059 21.3445 1.96584 24.394 4.37203 26.654C6.6056 28.7485 9.53632 29.9406 12.5977 30C13.3519 29.993 14.1031 29.9056 14.8387 29.7392C15.8818 29.5138 15.4398 27.9137 14.3967 28.1436H14.4011Z" fill="#573605"/>
</svg>
