<svg width="420" height="408" viewBox="0 0 420 408" fill="none" xmlns="http://www.w3.org/2000/svg">
<g filter="url(#filter0_d_517_8914)">
<g filter="url(#filter1_i_517_8914)">
<path d="M410 200C410 147.222 388.929 96.6055 351.421 59.2858C313.914 21.966 263.043 1 210 1C156.957 0.999996 106.086 21.966 68.5787 59.2857C31.0714 96.6055 10 147.222 10 200L410 200Z" fill="#FDBF52"/>
</g>
<path d="M370 201C370 158.565 353.143 117.869 323.137 87.8629C293.131 57.8571 252.435 41 210 41C167.565 41 126.869 57.8571 96.8629 87.8629C66.8571 117.869 50 158.565 50 201" stroke="#FCDBA3" stroke-width="3"/>
<g filter="url(#filter2_i_517_8914)">
<path d="M10 200C10 253.043 31.0714 303.914 68.5786 341.421C106.086 378.929 156.957 400 210 400C263.043 400 313.914 378.929 351.421 341.421C388.929 303.914 410 253.043 410 200L210 200L10 200Z" fill="#FDBF52"/>
<path d="M10 200C10 253.043 31.0714 303.914 68.5786 341.421C106.086 378.929 156.957 400 210 400C263.043 400 313.914 378.929 351.421 341.421C388.929 303.914 410 253.043 410 200L210 200L10 200Z" fill="black" fill-opacity="0.2"/>
</g>
<g filter="url(#filter3_di_517_8914)">
<path d="M10 200C10 237.13 31.0714 272.74 68.5786 298.995C106.086 325.25 156.957 340 210 340C263.043 340 313.914 325.25 351.421 298.995C388.929 272.74 410 237.13 410 200L210 200L10 200Z" fill="#FCDBA3"/>
</g>
<path d="M50 200C50 229.704 66.8571 258.192 96.8629 279.196C126.869 300.2 167.565 312 210 312C252.435 312 293.131 300.2 323.137 279.196C353.143 258.192 370 229.704 370 200" stroke="#FDBF52" stroke-width="3"/>
<path d="M173.468 125.032C170.556 123.272 164.732 120.744 160.54 119.24L159.228 121.48C163.516 123.144 169.244 125.8 172.092 127.656L173.468 125.032ZM173.468 114.6V111.976H160.572V109.704H170.588V107.176H160.572V105H172.124V102.376H165.596C166.364 101.352 167.228 100.072 167.964 98.888L164.796 98.024C164.252 99.304 163.164 101.096 162.3 102.376H154.492L155.548 101.896C155.1 100.776 154.012 99.176 152.924 98.024L150.332 99.048C151.1 100.008 151.964 101.32 152.476 102.376H146.044V105H157.5V107.176H147.836V109.704H157.5V111.976H144.988V114.6H157.148C157.052 115.368 156.924 116.04 156.796 116.712H145.692V119.24H155.9C154.46 122.024 151.42 123.816 144.412 124.776C144.988 125.448 145.692 126.664 145.916 127.464C154.364 126.088 157.756 123.4 159.26 119.24H172.764V116.712H159.932C160.06 116.04 160.188 115.336 160.252 114.6H173.468ZM181.212 127.112C182.556 124.136 184.06 120.36 185.244 117L182.812 115.432C181.532 119.08 179.804 123.112 178.524 125.576L181.212 127.112ZM184.764 109.8C183.676 108.808 181.404 107.624 179.58 106.92L177.916 109.096C179.74 109.896 181.98 111.24 183.036 112.2L184.764 109.8ZM193.276 103.464H199.516V105.768H193.276V103.464ZM203.74 112.744V121.64C202.46 120.232 201.788 117.544 201.66 114.248H198.588V116.136H200.22C200.252 116.488 200.284 116.84 200.316 117.16H199.74C199.58 118.888 198.94 120.776 197.596 121.928V112.744H203.74ZM190.076 114.248V116.136H191.74C191.772 116.488 191.804 116.84 191.836 117.192H191.228C191.036 119.048 190.396 121.064 189.02 122.28V112.744H195.004V121.608C193.852 120.136 193.276 117.448 193.18 114.248H190.076ZM202.428 108.296V103.464H207.228V100.808H202.428V98.12H199.516V100.808H193.276V98.12H190.428V100.808H185.884V101.48C184.764 100.456 182.62 99.208 180.924 98.472L179.26 100.584C180.988 101.48 183.196 102.92 184.188 103.944L185.884 101.704V103.464H190.428V108.296H195.004V110.216H186.492V127.464H189.02V122.44C189.404 122.696 189.916 123.208 190.14 123.592C191.228 122.632 191.932 121.352 192.348 119.944C192.764 121.352 193.308 122.472 194.044 123.272C194.268 122.984 194.652 122.6 195.004 122.312V127.208H197.596V122.216C197.98 122.504 198.396 122.984 198.62 123.304C199.74 122.408 200.444 121.192 200.892 119.816C201.34 121.224 201.948 122.376 202.716 123.208C202.908 122.888 203.356 122.472 203.74 122.184V124.808C203.74 125.128 203.644 125.256 203.26 125.256C202.908 125.256 201.756 125.256 200.572 125.224C200.892 125.832 201.18 126.792 201.308 127.432C203.164 127.432 204.444 127.432 205.308 127.08C206.14 126.664 206.396 126.024 206.396 124.808V110.216H197.596V108.296H202.428ZM219.164 107.496C219.1 110.28 218.78 113.544 217.596 116.808C216.796 116.04 215.996 115.272 215.228 114.6C215.708 112.552 216.188 110.152 216.604 107.656L219.164 107.496ZM221.788 102.664H219.196V104.936L216.988 105.064C217.308 102.792 217.596 100.52 217.788 98.472L215.036 98.312C214.908 100.424 214.62 102.824 214.268 105.192C213.276 105.224 212.348 105.256 211.484 105.288L211.772 107.976L213.884 107.848C213.404 110.696 212.796 113.416 212.284 115.464C213.564 116.68 215.004 118.088 216.348 119.464C215.228 121.608 213.628 123.688 211.388 125.512C211.996 125.928 212.924 126.792 213.372 127.432C215.516 125.608 217.084 123.624 218.3 121.576C219.356 122.696 220.22 123.752 220.86 124.648L222.812 122.408C222.076 121.416 220.956 120.168 219.676 118.824C221.276 114.856 221.692 110.76 221.788 107.336L223.068 107.24V104.712L221.788 104.776V102.664ZM226.332 123.048V120.648C226.908 121.064 227.644 121.768 227.996 122.216C230.108 120.072 231.356 117.576 232.028 115.08C233.372 117.448 234.588 119.912 235.196 121.576L237.212 120.392C236.348 118.216 234.396 114.76 232.668 111.912C232.732 111.528 232.764 111.08 232.796 110.664H236.764V108.232H232.924V107.4V103.208H230.588V107.336V108.232H226.94V110.664H230.46C230.14 113.928 229.212 117.416 226.332 120.392V102.28H237.372V123.048H226.332ZM223.708 99.592V127.592H226.332V125.704H237.372V127.336H240.092V99.592H223.708ZM245.82 110.344C246.268 110.12 246.972 109.928 249.948 109.608C248.956 111.176 248.028 112.36 247.58 112.904C246.652 114.088 245.948 114.888 245.276 115.048C245.5 115.656 245.884 116.776 246.044 117.384V117.608C246.652 117.256 247.676 117.032 254.556 115.912C254.652 116.328 254.716 116.68 254.78 117L256.892 116.136C256.572 114.568 255.676 112.04 254.748 110.12L252.796 110.824C253.212 111.752 253.596 112.808 253.948 113.832L249.116 114.504C251.612 111.528 254.076 107.816 255.996 104.136L253.756 102.728C253.084 104.232 252.252 105.768 251.452 107.208L248.54 107.432C250.204 105.096 251.836 102.088 253.084 99.24L250.652 98.184C249.468 101.608 247.388 105.192 246.716 106.12C246.108 107.048 245.532 107.688 245.02 107.848C245.308 108.456 245.628 109.608 245.82 110.184V110.344ZM246.3 118.728C246.076 121.288 245.66 124.136 244.924 126.024C245.5 126.184 246.556 126.568 247.1 126.856C247.708 124.872 248.252 121.896 248.572 119.144L246.3 118.728ZM249.724 119.048C250.076 121.192 250.396 123.976 250.46 125.8L252.636 125.256C252.508 123.432 252.156 120.712 251.772 118.568L249.724 119.048ZM261.884 104.328C262.076 103.656 262.268 102.92 262.492 102.184H268.732C268.604 102.824 268.444 103.592 268.316 104.328H261.884ZM272.284 111.656C270.78 112.776 268.476 114.152 266.46 115.176C265.852 114.184 265.02 113.192 264.06 112.328C264.828 111.72 265.532 111.112 266.172 110.44H274.62V108.072H270.204C270.748 105.544 271.324 102.664 271.708 100.264L269.756 99.944L269.276 100.072H263.004C263.164 99.464 263.292 98.92 263.388 98.376L260.668 98.056C260.156 100.744 259.324 104.232 258.652 106.44H267.9L267.58 108.072H256.796V110.44H262.908C261.084 111.848 258.748 113.032 256.54 113.864C257.02 114.344 257.788 115.368 258.108 115.88C259.452 115.272 260.86 114.504 262.172 113.64C262.588 114.024 262.972 114.44 263.292 114.824C261.628 116.264 258.908 117.736 256.828 118.408C257.34 118.92 258.012 119.816 258.364 120.424C260.284 119.528 262.684 118.024 264.444 116.584C264.732 117.128 264.924 117.672 265.084 118.152C263.196 120.264 259.804 122.408 256.86 123.56C256.508 121.928 255.74 119.56 255.068 117.736L253.148 118.344C253.852 120.296 254.588 122.824 254.876 124.52L256.284 124.008C256.86 124.52 257.404 125.288 257.724 125.832C260.348 124.712 263.388 122.76 265.628 120.744C265.788 122.504 265.404 123.944 264.86 124.488C264.444 125.032 263.932 125.128 263.292 125.128C262.684 125.128 262.044 125.064 261.212 124.968C261.692 125.736 261.852 126.792 261.852 127.464C262.556 127.496 263.26 127.528 263.836 127.528C265.052 127.496 265.82 127.304 266.62 126.536C268.284 125.192 268.988 121.096 267.484 117.192C267.964 116.968 268.476 116.712 269.02 116.424C269.692 120.296 270.876 123.752 272.988 125.672C273.404 124.968 274.204 123.976 274.844 123.496C272.86 121.928 271.708 118.76 271.1 115.368C272.22 114.728 273.276 114.12 274.204 113.48L272.284 111.656ZM157.884 156.424C157.564 154.76 156.668 152.04 155.772 149.96L153.34 150.568C153.66 151.432 154.012 152.392 154.3 153.352L149.564 153.992C152.252 151.272 154.908 147.912 157.116 144.52L154.46 142.856C153.66 144.296 152.764 145.672 151.836 146.984L148.636 147.24C150.524 144.936 152.476 142.088 154.012 139.304L151.164 138.088C149.66 141.448 147.228 144.936 146.428 145.864C145.66 146.792 145.052 147.4 144.412 147.56C144.764 148.328 145.244 149.704 145.404 150.312C145.852 150.088 146.62 149.896 149.948 149.512C148.764 151.016 147.74 152.136 147.228 152.648C146.108 153.8 145.34 154.536 144.54 154.696C144.892 155.496 145.372 156.968 145.532 157.544C146.236 157.16 147.388 156.936 155.004 155.656C155.132 156.232 155.228 156.776 155.292 157.192L157.884 156.424ZM146.46 158.728C146.012 161.256 145.308 164.104 144.412 165.992C145.148 166.216 146.396 166.632 147.036 166.92C147.804 165 148.668 161.992 149.116 159.272L146.46 158.728ZM150.268 159.112C150.684 161.192 151.1 163.944 151.164 165.768L153.724 165.096C153.564 163.304 153.116 160.584 152.668 158.504L150.268 159.112ZM153.852 158.28C154.46 159.752 155.164 161.704 155.42 162.952L157.82 162.056C157.5 160.808 156.828 158.92 156.156 157.448L153.852 158.28ZM167.036 162.952V143.432H173.276V140.52H157.884V143.432H163.964V162.952H156.668V165.864H173.82V162.952H167.036ZM206.908 147.656C206.62 146.664 205.756 145.192 205.02 144.104L203.42 144.648C203.612 145 203.868 145.416 204.092 145.832L200.892 146.12C202.588 144.808 204.348 143.176 206.012 141.416L204.092 140.552C203.644 141.096 203.196 141.608 202.684 142.12L200.028 142.312C200.988 141.416 202.012 140.264 202.844 139.048L200.892 138.344C199.996 139.88 198.492 141.416 198.044 141.768C197.628 142.184 197.212 142.376 196.796 142.472C197.052 142.984 197.34 143.912 197.468 144.328C197.82 144.168 198.396 144.072 200.892 143.848C200.028 144.616 199.26 145.224 198.908 145.48C198.172 145.992 197.532 146.344 196.956 146.44C197.212 146.952 197.5 147.88 197.596 148.328C198.044 148.072 198.972 147.912 204.86 147.24C205.02 147.624 205.18 147.976 205.244 148.296L206.908 147.656ZM206.78 151.464C206.588 150.632 206.044 149.256 205.5 148.232L203.932 148.68C204.412 149.704 204.956 151.08 205.148 152.008L206.78 151.464ZM203.26 152.072C203.196 151.144 202.908 149.768 202.492 148.744L200.764 149C201.116 150.056 201.404 151.496 201.436 152.392L203.26 152.072ZM197.916 148.68C197.788 149.768 197.532 150.952 197.052 151.912C197.5 152.104 198.332 152.52 198.716 152.776C199.196 151.848 199.58 150.376 199.804 149.096L197.916 148.68ZM197.084 140.488H193.724C193.436 139.784 192.956 138.92 192.54 138.248L190.652 138.824C190.972 139.336 191.292 139.912 191.484 140.488H187.74V142.152H197.084V140.488ZM196.156 143.048H188.732V144.456H196.156V143.048ZM188.732 146.792H196.156V145.384H188.732V146.792ZM188.252 147.464C187.932 146.568 187.196 145.16 186.492 144.136L184.924 144.616C185.148 144.968 185.372 145.352 185.564 145.768L182.46 146.056C184.092 144.808 185.788 143.24 187.324 141.544L185.34 140.776C184.988 141.224 184.572 141.64 184.188 142.056L181.724 142.216C182.684 141.32 183.708 140.136 184.572 138.92L182.524 138.248C181.66 139.784 180.156 141.288 179.708 141.64C179.26 141.992 178.908 142.216 178.492 142.28C178.716 142.824 179.004 143.752 179.132 144.232C179.452 144.072 180.06 143.944 182.46 143.72C181.596 144.52 180.828 145.128 180.476 145.384C179.772 145.928 179.164 146.248 178.652 146.312C178.876 146.824 179.132 147.784 179.26 148.232C179.772 147.976 180.604 147.816 186.268 147.176C186.396 147.528 186.524 147.816 186.62 148.072L188.252 147.464ZM187.996 151.016C187.772 150.248 187.26 149.032 186.78 148.104L185.212 148.552C185.692 149.48 186.172 150.728 186.332 151.56L187.996 151.016ZM184.7 152.008C184.604 151.112 184.252 149.672 183.868 148.584L182.14 148.936C182.492 150.056 182.812 151.496 182.844 152.424L184.7 152.008ZM179.42 148.616C179.196 149.896 178.876 151.272 178.3 152.36C178.78 152.584 179.58 153.032 179.932 153.288C180.476 152.168 180.988 150.504 181.276 149.032L179.42 148.616ZM181.308 167.56C182.364 166.632 183.356 165.32 184.028 164.168L181.884 163.112C181.276 164.2 180.188 165.544 179.068 166.312L181.308 167.56ZM185.916 164.232C186.46 165.256 186.972 166.6 187.068 167.496L189.468 166.728C189.308 165.896 188.732 164.552 188.188 163.592L185.916 164.232ZM190.972 164.296C191.612 165.16 192.316 166.376 192.572 167.176L194.652 166.216C194.396 165.48 193.66 164.328 192.988 163.496L190.972 164.296ZM199.996 154.312V155.24H185.66V154.312H199.996ZM185.66 157.448V156.52H199.996V157.448H185.66ZM199.708 165.256C199.356 164.712 198.684 163.976 198.012 163.368H202.14C201.884 164.744 201.596 165.448 201.244 165.736C201.02 165.928 200.796 165.96 200.348 165.96C200.028 165.96 199.356 165.96 198.588 165.928L199.708 165.256ZM190.492 149.128H194.236V150.312H190.492V149.128ZM185.66 158.792H202.812V152.968H193.148C193.372 152.68 193.596 152.36 193.788 152.04L191.932 151.688H196.188V147.72H188.604V151.688H190.652C190.492 152.072 190.3 152.52 190.108 152.968H182.876V163.368H197.148L195.868 164.04C196.54 164.648 197.244 165.448 197.692 166.088C197.884 166.568 198.044 167.08 198.076 167.464C199.548 167.56 200.924 167.592 201.66 167.56C202.364 167.528 203.068 167.4 203.612 166.984C204.252 166.44 204.7 165.32 205.116 162.888C205.18 162.568 205.18 161.992 205.18 161.992H185.66V161.128H206.876V159.688H185.66V158.792ZM218.556 146.184H233.916V148.552H218.556V146.184ZM218.556 141.704H233.916V143.976H218.556V141.704ZM227.9 164.136V161.192H236.828V158.856H227.9V156.328H238.204V153.832H227.9V151.528H224.828V153.832H219.228C219.644 153.096 220.092 152.36 220.444 151.624L217.948 150.888H236.988V139.368H215.644V150.888H217.468C216.252 153.544 214.14 156.136 211.868 157.832C212.604 158.216 213.82 159.144 214.396 159.656C215.42 158.76 216.476 157.608 217.5 156.328H224.828V158.856H216.252V161.192H224.828V164.136H212.444V166.696H240.22V164.136H227.9ZM254.652 160.904H260.668V158.728H254.652V157.096H260.604V147.464H254.652V145.8H260.988V148.2H264.38C264.124 154.024 263.324 158.856 260.7 162.472C258.684 162.696 256.636 162.888 254.652 163.08V160.904ZM248.636 155.144V153.192H251.932V155.144H248.636ZM258.076 153.192V155.144H254.652V153.192H258.076ZM254.652 151.368V149.416H258.076V151.368H254.652ZM248.636 149.416H251.932V151.368H248.636V149.416ZM267.292 145.448C267.324 143.272 267.356 140.968 267.356 138.6H264.508C264.508 141 264.508 143.272 264.476 145.448H261.116V143.592H254.652V141.544C256.86 141.32 258.972 141 260.668 140.648L259.26 138.408C255.932 139.144 250.268 139.72 245.532 139.976C245.82 140.552 246.14 141.512 246.236 142.12C248.028 142.056 249.98 141.96 251.932 141.8V143.592H245.34V145.8H251.932V147.464H246.204V157.096H251.932V158.728H246.108V160.904H251.932V163.336C249.404 163.56 247.1 163.752 245.244 163.88L245.628 166.408C249.052 166.088 253.66 165.608 258.268 165.064C258.076 165.224 257.884 165.384 257.692 165.512C258.396 165.992 259.388 167.048 259.836 167.72C265.34 163.496 266.78 156.712 267.196 148.2H270.972C270.716 159.208 270.396 163.272 269.692 164.168C269.372 164.584 269.084 164.68 268.54 164.68C267.964 164.68 266.652 164.68 265.18 164.552C265.628 165.352 265.948 166.568 266.012 167.368C267.516 167.464 268.988 167.464 269.948 167.336C270.94 167.176 271.612 166.92 272.22 165.96C273.244 164.584 273.532 160.04 273.884 146.824C273.884 146.472 273.916 145.448 273.916 145.448H267.292Z" fill="white"/>
<rect x="164" y="33" width="95" height="26" fill="#FDBF52"/>
<path d="M182.268 37.078C180.522 37.636 177.588 38.032 175.122 38.212C175.23 38.554 175.374 39.058 175.41 39.436C177.93 39.292 180.936 38.914 182.934 38.302L182.268 37.078ZM181.854 41.722C182.25 41.11 182.7 40.21 183.132 39.328L181.98 38.878C181.728 39.634 181.242 40.66 180.846 41.326L181.854 41.722ZM177.3 41.398C177.174 40.858 176.868 40.084 176.526 39.508L175.41 39.958C175.716 40.552 176.04 41.38 176.13 41.938L177.3 41.398ZM178.452 47.014C178.434 47.464 178.398 47.896 178.344 48.274H175.068V49.534H178.056C177.642 50.83 176.742 51.676 174.78 52.234C175.086 52.504 175.482 53.062 175.626 53.422C177.372 52.882 178.398 52.09 179.01 51.01C180.162 51.73 181.404 52.648 182.034 53.296L183.006 52.27C182.25 51.532 180.738 50.56 179.514 49.84L179.568 49.534H183.06V48.274H179.802C179.856 47.878 179.892 47.446 179.91 47.014H178.452ZM180.558 44.602C180.774 44.89 180.972 45.214 181.17 45.556L178.038 45.808C179.352 44.962 180.684 43.936 181.944 42.73L180.9 41.938C180.414 42.442 179.874 42.946 179.352 43.396L177.462 43.432C178.074 42.946 178.704 42.334 179.262 41.722L178.92 41.488L180.036 41.002C179.928 40.48 179.622 39.706 179.334 39.13L178.2 39.562C178.47 40.156 178.758 40.912 178.848 41.434L178.2 40.984C177.534 41.938 176.544 42.784 176.238 43.018C175.95 43.234 175.698 43.396 175.446 43.45C175.572 43.81 175.752 44.512 175.806 44.8C176.04 44.71 176.364 44.638 177.912 44.566C177.372 44.944 176.94 45.25 176.688 45.394C176.112 45.772 175.68 46.006 175.284 46.078C175.392 46.438 175.572 47.158 175.626 47.428C176.04 47.212 176.652 47.158 181.746 46.636C181.908 46.96 182.034 47.266 182.124 47.518L183.348 46.996C183.06 46.186 182.394 44.998 181.71 44.116L180.558 44.602ZM185.508 48.958H187.416V51.082H185.508V48.958ZM187.416 43.99H185.508V41.974H187.416V43.99ZM187.416 47.536H185.508V45.412H187.416V47.536ZM191.376 51.082H188.91V48.958H190.908V47.536H188.91V45.412H190.908V43.99H188.91V41.974H191.16V40.462H188.91L189.756 40.156C189.486 39.418 188.946 38.266 188.46 37.402L187.056 37.834C187.506 38.626 187.974 39.724 188.244 40.462H185.58C185.994 39.436 186.318 38.356 186.606 37.276L185.04 36.898C184.428 39.418 183.402 41.92 182.07 43.504C182.412 43.81 182.988 44.494 183.222 44.818C183.492 44.476 183.744 44.116 183.996 43.702V53.404H185.508V52.594H191.376V51.082ZM207.216 39.85H201.726V38.698H207.216V39.85ZM207.216 42.154H201.726V40.984H207.216V42.154ZM208.872 37.474H200.142V43.378H208.872V37.474ZM198.684 38.842C198.036 38.212 196.668 37.456 195.606 37.006L194.67 38.248C195.732 38.752 197.082 39.598 197.694 40.21L198.684 38.842ZM197.766 43.504C197.1 42.928 195.732 42.208 194.67 41.794L193.734 43.054C194.832 43.522 196.164 44.314 196.794 44.908L197.766 43.504ZM196.974 46.456C196.092 48.508 194.904 50.812 194.076 52.198L195.57 53.188C196.47 51.496 197.496 49.354 198.27 47.464L196.974 46.456ZM210.312 45.682V44.314H198.522V45.682H200.826C200.052 46.96 198.918 48.148 197.73 48.94C198.072 49.192 198.648 49.678 198.9 49.948C199.566 49.444 200.25 48.796 200.862 48.076H202.302C201.402 49.606 200.052 50.992 198.63 51.91C198.954 52.162 199.53 52.684 199.782 52.954C201.366 51.784 202.932 50.02 203.976 48.076H205.416C204.732 49.876 203.616 51.46 202.248 52.504C202.59 52.702 203.202 53.17 203.454 53.422C204.912 52.162 206.19 50.254 206.982 48.076H208.134C207.954 50.524 207.738 51.496 207.468 51.784C207.324 51.964 207.18 52 206.946 51.982C206.712 51.982 206.172 51.982 205.578 51.928C205.812 52.306 205.956 52.936 205.992 53.368C206.694 53.404 207.378 53.404 207.756 53.35C208.188 53.296 208.512 53.17 208.8 52.828C209.286 52.288 209.538 50.884 209.772 47.41C209.79 47.194 209.808 46.762 209.808 46.762H201.87C202.104 46.402 202.32 46.042 202.518 45.682H210.312ZM220.104 37.15V51.208C220.104 51.568 219.978 51.676 219.6 51.694C219.222 51.712 217.908 51.712 216.684 51.658C216.954 52.144 217.242 52.936 217.35 53.404C219.06 53.422 220.212 53.368 220.932 53.098C221.634 52.81 221.922 52.324 221.922 51.208V37.15H220.104ZM224.406 41.74C225.864 44.332 227.286 47.68 227.664 49.804L229.482 49.084C229.032 46.906 227.556 43.63 226.026 41.128L224.406 41.74ZM215.442 41.272C215.028 43.648 214.074 46.744 212.562 48.616C213.012 48.778 213.75 49.192 214.164 49.498C215.73 47.5 216.738 44.242 217.332 41.614L215.442 41.272ZM247.14 49.156C245.754 48.49 243.036 47.392 241.218 46.708L240.354 48.004C242.226 48.778 244.908 49.948 246.204 50.668L247.14 49.156ZM247.896 44.998V43.342H240.3V40.858H246.15V39.256H240.3V36.916H238.536V43.342H231.858V44.998H238.59V53.404H240.354V44.998H247.896Z" fill="#573605"/>
<path d="M192.236 300.06C192.827 299.081 193.29 297.514 193.576 296.31L192.512 295.874C192.229 297.042 191.738 298.516 191.191 299.408L192.236 300.06ZM195.531 299.571C195.047 299.529 194.981 299.451 195.016 299.056L195.294 295.882L193.949 295.765L193.671 298.938C193.561 300.194 193.869 300.6 195.232 300.719L197.079 300.881C198.208 300.98 198.614 300.473 198.923 298.386C198.572 298.265 198.053 298.003 197.785 297.763C197.597 299.499 197.486 299.742 197.037 299.703L195.531 299.571ZM198.586 296.658C199.054 297.928 199.558 299.598 199.796 300.595L201.043 300.18C200.802 299.219 200.24 297.58 199.77 296.346L198.586 296.658ZM197.896 294.014L194.74 293.738L194.891 292.016L198.047 292.293L197.896 294.014ZM204.055 289.295C203.592 290.248 203.026 291.138 202.377 291.949C202.336 290.771 202.338 289.506 202.378 288.227L206.108 288.553L206.228 287.172L204.812 287.048L205.638 286.488C205.24 286.074 204.467 285.41 203.895 284.926L202.848 285.539C203.333 285.979 203.951 286.557 204.363 287.009L202.427 286.84C202.462 286.228 202.514 285.637 202.567 285.027L201.007 284.89C200.973 285.484 200.919 286.111 200.903 286.706L191.435 285.878L191.121 289.464C190.872 292.315 190.371 296.59 188.67 299.513C188.997 299.704 189.655 300.231 189.918 300.525C191.723 297.449 192.396 292.647 192.663 289.599L192.856 287.393L200.854 288.093C200.801 289.932 200.819 291.794 200.906 293.482C200.359 293.958 199.76 294.394 199.15 294.756L199.456 291.259L193.647 290.751L193.295 294.768L196.2 295.022L195.342 295.326C195.806 296.216 196.371 297.404 196.616 298.112L197.759 297.652C197.491 296.996 196.938 295.882 196.487 295.047L198.782 295.248C199.098 295.565 199.49 296.033 199.649 296.281C200.127 295.98 200.588 295.677 201.054 295.302C201.407 298.911 202.193 301.491 203.538 301.609C204.793 301.718 205.349 300.936 205.862 297.963C205.448 297.746 204.961 297.324 204.65 296.954C204.426 299.102 204.159 300.091 203.89 300.067C203.317 299.999 202.737 297.545 202.469 293.998C203.638 292.818 204.667 291.39 205.491 289.818L204.055 289.295ZM199.972 289.082L193.517 288.517L193.415 289.683L199.87 290.248L199.972 289.082Z" fill="#927858"/>
<path d="M213.514 293.782C213.81 292.419 213.951 290.311 213.93 288.831L212.607 288.784C212.607 290.23 212.455 292.212 212.131 293.469L213.514 293.782ZM218.277 289.987C218.002 289.324 217.398 288.202 216.875 287.381L215.928 287.915L215.671 284.975L214.128 285.11L215.569 301.571L217.111 301.436L215.956 288.238C216.426 289.064 216.91 290.052 217.165 290.698L218.277 289.987ZM220.769 297.195C220.772 296.815 220.755 296.419 220.743 296.077L226.374 295.584L226.471 296.696L220.769 297.195ZM226.164 293.181L226.266 294.347L220.635 294.84L220.533 293.674L226.164 293.181ZM227.619 291.843L218.85 292.611L219.134 295.856C219.255 297.237 219.321 299.02 218.428 300.381C218.787 300.566 219.486 301.12 219.73 301.423C220.321 300.541 220.606 299.468 220.713 298.41L226.576 297.897L226.664 298.902C226.683 299.117 226.6 299.196 226.35 299.236C226.135 299.255 225.258 299.35 224.43 299.386C224.678 299.744 224.93 300.354 225.038 300.76C226.293 300.65 227.116 300.56 227.65 300.261C228.189 300.015 228.295 299.572 228.226 298.783L227.619 291.843ZM223.793 290.046L223.702 289.006L227.325 288.689L227.223 287.524L223.6 287.84L223.519 286.908L227.643 286.547L227.535 285.31L223.411 285.671L223.295 284.344L221.645 284.488L221.761 285.815L217.655 286.174L217.763 287.412L221.869 287.052L221.951 287.985L218.382 288.297L218.484 289.462L222.053 289.15L222.144 290.19L217.607 290.587L217.715 291.825L228.6 290.872L228.491 289.635L223.793 290.046Z" fill="#927858"/>
</g>
<defs>
<filter id="filter0_d_517_8914" x="6" y="1" width="408" height="407" filterUnits="userSpaceOnUse" color-interpolation-filters="sRGB">
<feFlood flood-opacity="0" result="BackgroundImageFix"/>
<feColorMatrix in="SourceAlpha" type="matrix" values="0 0 0 0 0 0 0 0 0 0 0 0 0 0 0 0 0 0 127 0" result="hardAlpha"/>
<feOffset dy="4"/>
<feGaussianBlur stdDeviation="2"/>
<feComposite in2="hardAlpha" operator="out"/>
<feColorMatrix type="matrix" values="0 0 0 0 0 0 0 0 0 0 0 0 0 0 0 0 0 0 0.25 0"/>
<feBlend mode="normal" in2="BackgroundImageFix" result="effect1_dropShadow_517_8914"/>
<feBlend mode="normal" in="SourceGraphic" in2="effect1_dropShadow_517_8914" result="shape"/>
</filter>
<filter id="filter1_i_517_8914" x="10" y="1" width="400" height="203" filterUnits="userSpaceOnUse" color-interpolation-filters="sRGB">
<feFlood flood-opacity="0" result="BackgroundImageFix"/>
<feBlend mode="normal" in="SourceGraphic" in2="BackgroundImageFix" result="shape"/>
<feColorMatrix in="SourceAlpha" type="matrix" values="0 0 0 0 0 0 0 0 0 0 0 0 0 0 0 0 0 0 127 0" result="hardAlpha"/>
<feOffset dy="4"/>
<feGaussianBlur stdDeviation="2"/>
<feComposite in2="hardAlpha" operator="arithmetic" k2="-1" k3="1"/>
<feColorMatrix type="matrix" values="0 0 0 0 0 0 0 0 0 0 0 0 0 0 0 0 0 0 0.35 0"/>
<feBlend mode="normal" in2="shape" result="effect1_innerShadow_517_8914"/>
</filter>
<filter id="filter2_i_517_8914" x="10" y="198" width="400" height="202" filterUnits="userSpaceOnUse" color-interpolation-filters="sRGB">
<feFlood flood-opacity="0" result="BackgroundImageFix"/>
<feBlend mode="normal" in="SourceGraphic" in2="BackgroundImageFix" result="shape"/>
<feColorMatrix in="SourceAlpha" type="matrix" values="0 0 0 0 0 0 0 0 0 0 0 0 0 0 0 0 0 0 127 0" result="hardAlpha"/>
<feOffset dy="-2"/>
<feGaussianBlur stdDeviation="2"/>
<feComposite in2="hardAlpha" operator="arithmetic" k2="-1" k3="1"/>
<feColorMatrix type="matrix" values="0 0 0 0 0 0 0 0 0 0 0 0 0 0 0 0 0 0 0.25 0"/>
<feBlend mode="normal" in2="shape" result="effect1_innerShadow_517_8914"/>
</filter>
<filter id="filter3_di_517_8914" x="0" y="200" width="420" height="160" filterUnits="userSpaceOnUse" color-interpolation-filters="sRGB">
<feFlood flood-opacity="0" result="BackgroundImageFix"/>
<feColorMatrix in="SourceAlpha" type="matrix" values="0 0 0 0 0 0 0 0 0 0 0 0 0 0 0 0 0 0 127 0" result="hardAlpha"/>
<feOffset dy="10"/>
<feGaussianBlur stdDeviation="5"/>
<feComposite in2="hardAlpha" operator="out"/>
<feColorMatrix type="matrix" values="0 0 0 0 0 0 0 0 0 0 0 0 0 0 0 0 0 0 0.25 0"/>
<feBlend mode="normal" in2="BackgroundImageFix" result="effect1_dropShadow_517_8914"/>
<feBlend mode="normal" in="SourceGraphic" in2="effect1_dropShadow_517_8914" result="shape"/>
<feColorMatrix in="SourceAlpha" type="matrix" values="0 0 0 0 0 0 0 0 0 0 0 0 0 0 0 0 0 0 127 0" result="hardAlpha"/>
<feOffset dy="2"/>
<feGaussianBlur stdDeviation="4"/>
<feComposite in2="hardAlpha" operator="arithmetic" k2="-1" k3="1"/>
<feColorMatrix type="matrix" values="0 0 0 0 0 0 0 0 0 0 0 0 0 0 0 0 0 0 0.25 0"/>
<feBlend mode="normal" in2="shape" result="effect2_innerShadow_517_8914"/>
</filter>
</defs>
</svg>
