<svg width="23" height="30" viewBox="0 0 23 30" fill="none" xmlns="http://www.w3.org/2000/svg">
<path d="M10.5569 0.356972C8.40699 3.88412 4.70368 6.36634 0.752149 7.4393C-0.176681 7.69152 0.219673 9.14082 1.15251 8.88859C5.48037 7.71154 9.49996 4.96909 11.8541 1.11365C12.3585 0.288911 11.0534 -0.467765 10.5569 0.356972Z" fill="white"/>
<path d="M0.231498 8.16807C-0.801424 14.79 1.6928 21.4319 6.30492 26.2042C7.66424 27.6017 9.1826 28.8352 10.829 29.8795C11.6297 30.3999 12.3984 29.0988 11.5856 28.5823C6.40501 25.2713 2.46549 19.8225 1.63275 13.645C1.40513 11.9594 1.41996 10.2498 1.67679 8.56843C1.72334 8.37649 1.69503 8.17402 1.5976 8.00221C1.50017 7.83041 1.34094 7.70218 1.15232 7.6436C0.960692 7.59196 0.756423 7.6181 0.583969 7.71632C0.411515 7.81455 0.284835 7.97691 0.231498 8.16807Z" fill="white"/>
<path d="M10.5565 1.11369C12.9671 4.9443 16.737 7.72168 21.11 8.88864C21.2986 8.93102 21.4963 8.89921 21.662 8.79981C21.8278 8.7004 21.949 8.54102 22.0005 8.35469C22.052 8.16837 22.0298 7.96938 21.9385 7.79897C21.8473 7.62855 21.6939 7.49979 21.5103 7.43934C17.5123 6.38324 14.0623 3.85293 11.8537 0.357019C11.3533 -0.467718 10.0521 0.284954 10.5565 1.11369Z" fill="white"/>
<path d="M20.5857 8.36419C21.5345 14.4536 19.2164 20.7152 15.0127 25.1352C13.7627 26.4492 12.3578 27.6067 10.8289 28.5823C10.0282 29.0987 10.7689 30.3999 11.5856 29.8794C17.2907 26.2402 21.3223 20.2228 22.1511 13.4648C22.3608 11.6338 22.3163 9.78262 22.0189 7.96384C21.9647 7.77237 21.8373 7.60997 21.6642 7.51181C21.4911 7.41364 21.2863 7.38762 21.0941 7.43937C20.9055 7.49794 20.7463 7.62617 20.6488 7.79798C20.5514 7.96978 20.5231 8.17225 20.5696 8.36419H20.5857Z" fill="white"/>
<path d="M6.52504 15.8749L7.606 17.5004C7.93325 18.0586 8.29843 18.5936 8.69898 19.1018C9.6198 20.1147 10.997 18.6774 11.6336 18.0008C12.4183 17.1174 13.1483 16.1868 13.8196 15.2143L16.2217 11.9874C16.2714 11.9025 16.304 11.8087 16.3174 11.7112C16.3309 11.6137 16.3249 11.5146 16.3 11.4194C16.2751 11.3242 16.2317 11.2348 16.1722 11.1565C16.1128 11.0781 16.0384 11.0122 15.9535 10.9625C15.781 10.8662 15.5781 10.8404 15.387 10.8904C15.196 10.9404 15.0317 11.0624 14.9285 11.2308L12.0099 15.1423C11.6096 15.6627 11.2413 16.1832 10.8089 16.6676C10.5943 16.9128 10.3672 17.1467 10.1283 17.3682C10.0001 17.4884 9.57176 17.9488 9.3876 17.9328L9.78795 18.0368C9.85201 18.1169 9.85601 18.1169 9.78795 18.0368L9.65183 17.8327L9.37559 17.4323L8.87113 16.6876L7.8222 15.1302C7.28171 14.3295 5.98055 15.0822 6.52504 15.8869V15.8749Z" fill="white"/>
</svg>
