<svg width="45" height="30" viewBox="0 0 45 30" fill="none" xmlns="http://www.w3.org/2000/svg">
<path d="M21.3801 0.109614C14.8673 3.05475 8.61053 6.52533 1.73118 8.58295C0.715616 8.88762 1.14834 10.486 2.17273 10.1814C9.18896 8.07959 15.5738 4.54277 22.2147 1.54024C22.4045 1.43031 22.5431 1.24971 22.6002 1.0379C22.6573 0.826098 22.6282 0.600306 22.5193 0.409868C22.4062 0.221051 22.2237 0.0839527 22.0109 0.0278519C21.798 -0.0282489 21.5717 0.00109394 21.3801 0.109614Z" fill="#573605"/>
<path d="M0.579003 9.83262C7.86899 12.0139 15.1104 14.5572 21.9809 17.8379C22.9391 18.2795 23.778 16.8665 22.8199 16.4073C15.7739 13.1276 8.48593 10.3952 1.02055 8.23421C0.000572583 7.92954 -0.440977 9.52795 0.579003 9.83262Z" fill="#573605"/>
<path d="M8.29736 12.3492C8.47398 15.6785 8.70359 18.9371 8.24879 22.2531C8.1978 22.4648 8.22979 22.688 8.33817 22.8769C8.44656 23.0657 8.62313 23.2059 8.83164 23.2687C9.04298 23.3257 9.26827 23.2968 9.45847 23.1885C9.64866 23.0802 9.78838 22.9011 9.8472 22.6903C10.1016 20.9713 10.2241 19.2353 10.2137 17.4976C10.1916 15.78 10.0503 14.0668 9.95759 12.3492C9.9046 11.2895 8.24438 11.285 8.30178 12.3492H8.29736Z" fill="#573605"/>
<path d="M8.2487 22.6905C8.56661 23.7899 9.93542 24.205 10.8538 24.6819C12.0078 25.2706 13.1631 25.8593 14.32 26.4481C16.6396 27.6255 18.9695 28.7765 21.3097 29.901C22.2635 30.3425 23.1024 28.934 22.1443 28.4704C19.9983 27.4548 17.8627 26.4054 15.7374 25.3221C14.7042 24.8011 13.6739 24.2771 12.6465 23.7502L11.0393 22.9024C10.8097 22.7832 9.931 22.4609 9.86477 22.2534C9.56893 21.229 7.97052 21.6661 8.27078 22.6949L8.2487 22.6905Z" fill="#573605"/>
<path d="M21.3804 1.54026C28.0125 4.53103 34.7211 7.34517 41.5063 9.9827C41.614 10.0261 41.7296 10.0463 41.8457 10.042C41.9618 10.0377 42.0756 10.009 42.1798 9.95765C42.284 9.90634 42.3762 9.83363 42.4504 9.74427C42.5245 9.6549 42.579 9.55089 42.6103 9.43904C42.6415 9.32718 42.6488 9.20999 42.6317 9.09512C42.6146 8.98025 42.5734 8.87029 42.5109 8.77241C42.4484 8.67453 42.3659 8.59095 42.2689 8.52711C42.1718 8.46328 42.0624 8.42063 41.9478 8.40195C35.304 5.80564 28.7263 3.04153 22.215 0.109644C22.0231 0.00580324 21.7989 -0.020948 21.5881 0.0348463C21.3772 0.0906406 21.1955 0.224777 21.0802 0.409898C20.9721 0.600069 20.943 0.825072 20.9992 1.03648C21.0553 1.24788 21.1922 1.42879 21.3804 1.54026Z" fill="#573605"/>
<path d="M41.6698 8.58291C34.915 10.6796 28.3325 13.2955 21.9811 16.4072C21.0229 16.8487 21.8619 18.2926 22.82 17.8378C29.0418 14.7846 35.4917 12.2203 42.1113 10.1681C43.1269 9.8634 42.6942 8.26499 41.6698 8.56966V8.58291Z" fill="#573605"/>
<path d="M33.6378 12.3492C33.5494 14.0624 33.4656 15.78 33.5097 17.4976C33.578 19.2362 33.7416 20.9697 33.9998 22.6903C34.0586 22.9021 34.199 23.0819 34.3902 23.1904C34.5814 23.2988 34.8079 23.327 35.0198 23.2687C35.2281 23.206 35.4043 23.0656 35.512 22.8765C35.6197 22.6875 35.6505 22.4643 35.5982 22.2531C35.3586 20.6291 35.2112 18.9927 35.1567 17.3519C35.1214 15.6829 35.2053 14.0138 35.2892 12.3492C35.3466 11.285 33.6907 11.2895 33.6333 12.3492H33.6378Z" fill="#573605"/>
<path d="M33.7525 22.2536C33.6907 22.4567 32.8694 22.7437 32.6751 22.8541L31.0414 23.6975C29.9817 24.245 28.922 24.7837 27.8578 25.3224C25.7296 26.4057 23.5939 27.458 21.451 28.4795C20.4928 28.921 21.3317 30.3737 22.2855 29.9101C24.6404 28.7797 26.9689 27.6288 29.2708 26.4572C30.4012 25.8876 31.5227 25.3136 32.6442 24.7307C33.5803 24.2494 35.0198 23.8167 35.3465 22.6908C35.6424 21.6664 34.0484 21.2292 33.7525 22.2492V22.2536Z" fill="#573605"/>
<path d="M41.4179 9.18337C41.3531 11.082 41.3354 12.9807 41.3649 14.8794C41.3649 15.0257 41.423 15.1661 41.5265 15.2696C41.63 15.3731 41.7704 15.4313 41.9168 15.4313C42.0632 15.4313 42.2036 15.3731 42.3071 15.2696C42.4106 15.1661 42.4687 15.0257 42.4687 14.8794C42.4364 12.9807 42.454 11.082 42.5217 9.18337C42.5482 8.47248 41.4444 8.47689 41.4179 9.18337Z" fill="#573605"/>
<path d="M41.3252 14.7781C41.0689 15.2369 40.7842 15.6793 40.473 16.1028L40.3626 16.2485C40.3141 16.3147 40.42 16.1822 40.3626 16.2485L40.292 16.3368C40.2125 16.4383 40.133 16.5355 40.0491 16.6326C39.8769 16.8357 39.7003 17.03 39.5193 17.2199C39.4156 17.3235 39.3574 17.4641 39.3574 17.6107C39.3574 17.7572 39.4156 17.8978 39.5193 18.0014C39.6229 18.1051 39.7635 18.1633 39.9101 18.1633C40.0566 18.1633 40.1972 18.1051 40.3008 18.0014C41.0633 17.2013 41.726 16.3117 42.2746 15.3521C42.3489 15.2257 42.37 15.0748 42.3331 14.9328C42.2963 14.7908 42.2045 14.6692 42.0781 14.5949C41.9516 14.5205 41.8008 14.4994 41.6587 14.5363C41.5167 14.5731 41.3952 14.6649 41.3208 14.7914L41.3252 14.7781Z" fill="#573605"/>
<path d="M41.4534 15.4095L43.4845 17.8778C43.5886 17.9805 43.729 18.0381 43.8753 18.0381C44.0215 18.0381 44.1619 17.9805 44.266 17.8778C44.3647 17.7716 44.4196 17.632 44.4196 17.487C44.4196 17.342 44.3647 17.2024 44.266 17.0962L42.2349 14.628C42.1836 14.5766 42.1227 14.5358 42.0557 14.508C41.9886 14.4801 41.9167 14.4658 41.8441 14.4658C41.7715 14.4658 41.6996 14.4801 41.6326 14.508C41.5655 14.5358 41.5046 14.5766 41.4534 14.628C41.3547 14.7342 41.2998 14.8738 41.2998 15.0187C41.2998 15.1637 41.3547 15.3033 41.4534 15.4095Z" fill="#573605"/>
<path d="M39.9035 18.1781L43.851 18.2532C43.9973 18.2532 44.1377 18.195 44.2412 18.0915C44.3447 17.988 44.4029 17.8476 44.4029 17.7012C44.4029 17.5548 44.3447 17.4144 44.2412 17.3109C44.1377 17.2074 43.9973 17.1493 43.851 17.1493L39.9035 17.0742C39.7571 17.0742 39.6167 17.1324 39.5132 17.2359C39.4097 17.3394 39.3516 17.4798 39.3516 17.6262C39.3516 17.7725 39.4097 17.9129 39.5132 18.0164C39.6167 18.1199 39.7571 18.1781 39.9035 18.1781Z" fill="#573605"/>
</svg>
