<svg width="33" height="30" viewBox="0 0 33 30" fill="none" xmlns="http://www.w3.org/2000/svg">
<path d="M16.4723 29.9662C20.2058 30.1303 23.9225 29.6673 27.6224 29.2169C29.1629 29.0275 31.0402 29.0991 31.9999 27.6553C32.8207 26.4263 32.7323 24.73 32.7912 23.3157C32.9511 19.6032 32.9806 15.8893 32.8796 12.1741C32.8375 10.6546 32.707 9.09716 31.4064 8.09959C30.3288 7.25776 28.9019 7.11465 27.5845 7.08518C24.516 7.02205 21.4349 7.08518 18.3664 7.11465C14.8939 7.11465 11.4171 7.11465 7.94453 7.08939C5.32223 7.08939 1.36983 6.66848 0.334376 9.82114C0.133033 10.5886 0.0423216 11.3809 0.0649894 12.1741C0.0397345 13.1127 0.00606119 14.0471 0.00606119 14.9858C-0.0107754 16.8603 0.00746424 18.7417 0.0607803 20.6303C0.0467875 22.3765 0.135332 24.1221 0.325957 25.858C0.527997 27.2639 1.23934 28.514 2.70834 28.8676C3.57245 29.0326 4.44511 29.1492 5.32223 29.2169C6.24824 29.3306 7.17847 29.4442 8.10448 29.5495C9.95651 29.7599 11.817 29.9325 13.6816 29.9704C14.6118 29.9956 15.5421 29.9704 16.4723 29.9704C17.4825 29.9283 17.4909 28.3456 16.4723 28.3919C13.0166 28.5435 9.57348 28.1604 6.14722 27.7437L3.8827 27.4659C3.25132 27.3944 2.5989 27.3312 2.23271 26.7504C1.97301 26.2772 1.82879 25.7493 1.81179 25.2098C1.74023 24.368 1.71919 23.5262 1.68972 22.6843C1.55503 19.2833 1.53118 15.8809 1.61817 12.4771C1.64763 11.2901 1.55082 9.84218 2.7336 9.17293C3.77747 8.57944 5.10756 8.64678 6.26508 8.65099C12.4385 8.68186 18.6119 8.68186 24.7854 8.65099C26.0776 8.58706 27.3727 8.60956 28.662 8.71834C29.7269 8.85724 30.7918 9.2529 31.1033 10.402C31.2477 11.0937 31.3071 11.8005 31.2801 12.5066C31.2801 13.4116 31.318 14.3123 31.3264 15.2173C31.3264 16.8785 31.3138 18.5439 31.2885 20.2135C31.2633 21.1859 31.2338 22.1582 31.1917 23.1305C31.1846 23.9575 31.1354 24.7835 31.0444 25.6055C30.9644 26.1653 30.8087 26.8388 30.3036 27.1671C29.689 27.588 28.7041 27.5207 28.0012 27.588C24.1666 28.0552 20.3153 28.5561 16.4428 28.3877C15.4579 28.3414 15.4579 29.9199 16.4723 29.9662Z" fill="#573605"/>
<path d="M11.3117 7.48085C11.1307 6.45802 10.9497 5.43099 10.7772 4.40816C10.6972 3.92832 10.613 3.44847 10.5288 2.97284C10.4952 2.76659 10.4573 2.55192 10.4278 2.35409C10.3983 2.15626 10.3226 2.05524 10.4489 1.93317C10.6509 1.73113 11.3328 1.68062 11.598 1.65116C12.0175 1.60954 12.4392 1.59267 12.8607 1.60065H18.8335C19.2755 1.60065 19.7258 1.60065 20.1678 1.60065C20.4161 1.60065 20.6813 1.6217 20.7823 1.87846C20.8489 2.21048 20.8374 2.55343 20.7487 2.88024L20.534 4.29451L20.071 7.32932C20.0236 7.53162 20.0552 7.74437 20.1592 7.92424C20.2632 8.10411 20.4318 8.23756 20.6308 8.29742C20.8328 8.3507 21.0476 8.32284 21.2293 8.21979C21.411 8.11675 21.5452 7.94671 21.6031 7.74602L22.024 4.91326C22.2019 4.03921 22.3256 3.15501 22.3944 2.2657C22.4268 1.8828 22.3536 1.49836 22.183 1.15407C22.0123 0.809782 21.7506 0.51879 21.4263 0.312648C20.7445 -0.066176 19.8942 0.0053797 19.145 0.0053797H13.3658C12.0189 0.0053797 9.26608 -0.14615 8.84517 1.56698C8.77982 2.03957 8.80987 2.52047 8.93356 2.98126L9.21136 4.62283C9.39657 5.71721 9.58598 6.80738 9.7796 7.90176C9.95638 8.89933 11.4633 8.47842 11.3033 7.48085H11.3117Z" fill="#573605"/>
<path d="M0.797541 17.5407C8.8202 17.9617 16.8555 17.768 24.8823 17.6207C27.1721 17.5786 29.4633 17.5435 31.7559 17.5155C32.7703 17.5155 32.7703 15.9286 31.7559 15.937C23.7248 16.017 15.6938 16.3075 7.66268 16.1812C5.36448 16.1475 3.0761 16.0745 0.797541 15.9623C-0.221075 15.9118 -0.216866 17.4902 0.797541 17.5407Z" fill="#573605"/>
<path d="M11.7411 17.4018C11.4675 18.5846 11.3412 20.0957 12.5409 20.8407C13.113 21.1285 13.756 21.2454 14.3929 21.1774C15.0874 21.1774 15.7777 21.1774 16.4722 21.1522C17.1667 21.1269 17.857 21.1185 18.5473 21.0933C19.1619 21.0722 19.97 21.1732 20.5256 20.8828C21.1612 20.5545 21.1781 19.8389 21.1612 19.1991C21.1435 18.4971 21.0316 17.8006 20.8287 17.1282C20.5341 16.1601 19.0103 16.5726 19.305 17.5491C19.4454 17.9906 19.5343 18.4468 19.5702 18.9087C19.5828 19.1274 19.5828 19.3466 19.5702 19.5653C19.5702 20.1125 19.768 19.397 19.8101 19.4601C19.7317 19.4519 19.6527 19.4519 19.5744 19.4601C18.5347 19.5064 17.4992 19.5401 16.4596 19.5611C15.9545 19.5611 15.4452 19.5611 14.9401 19.5611C14.4946 19.5969 14.047 19.5969 13.6016 19.5611C12.8229 19.4306 13.1344 18.2984 13.2522 17.7975C13.4837 16.8083 11.96 16.3874 11.7285 17.3766L11.7411 17.4018Z" fill="#573605"/>
</svg>
