<svg width="120" height="120" viewBox="0 0 120 120" fill="none" xmlns="http://www.w3.org/2000/svg">
<path d="M102.425 101.221L60.7088 59.7078L102.425 18.1949C112.986 28.8811 119.5 43.5372 119.5 59.7078C119.5 75.8784 112.986 90.5345 102.425 101.221ZM101.716 17.4895L60 59.0024L18.2839 17.4895C29.0222 6.9818 43.7498 0.5 60 0.5C76.2503 0.5 90.9778 6.9818 101.716 17.4895ZM60 60.4132L101.716 101.926C90.9778 112.434 76.2503 118.916 60 118.916C43.7498 118.916 29.0222 112.434 18.2839 101.926L60 60.4132ZM59.2912 59.7078L17.5751 101.221C7.01399 90.5345 0.5 75.8784 0.5 59.7078C0.5 43.5372 7.01399 28.8811 17.5751 18.1949L59.2912 59.7078Z" fill="#FDBF52" stroke="#FDBF52"/>
<path d="M49.506 46.382H47.472L46.122 45.878C46.212 45.518 46.266 45.158 46.302 44.816H49.47V45.32H49.884C50.082 45.32 50.298 45.302 50.532 45.248L49.506 46.382ZM47.22 49.748V46.886H49.686V49.748H47.22ZM49.47 40.964V42.404H46.41V40.964H49.47ZM49.47 44.312H46.356C46.392 43.808 46.41 43.34 46.41 42.908H49.47V44.312ZM47.67 38.714H46.068C47.058 37.76 47.886 36.734 48.48 35.744C49.56 36.662 50.226 37.886 50.46 38.876C49.758 38.246 48.678 37.436 48.678 37.436L47.67 38.714ZM51.864 41.36C52.224 41.27 52.476 41.108 52.584 40.964L50.334 39.308L49.29 40.46H46.77L44.826 39.794C45.132 39.56 45.438 39.308 45.708 39.056L45.762 39.218H50.028C50.244 39.218 50.406 39.146 50.478 39.002L50.514 39.182C52.386 40.694 55.158 36.464 48.57 35.582C49.128 35.528 49.308 35.402 49.38 35.15L45.924 34.52C45.402 36.464 43.998 39.362 42.234 41.198L42.36 41.324C42.972 41.036 43.548 40.694 44.106 40.316V42.746C44.106 45.266 43.98 48.506 42.45 51.062L42.594 51.206C43.638 50.54 44.394 49.73 44.952 48.866V51.638H45.366C46.536 51.638 47.22 51.152 47.22 51.008V50.252H49.686V51.386H50.1C50.856 51.386 52.08 50.99 52.098 50.882V47.282C52.476 47.21 52.71 47.03 52.818 46.886L50.604 45.23C51.234 45.122 51.846 44.888 51.864 44.816V41.36ZM55.392 36.77C55.824 36.698 55.95 36.536 55.986 36.302L53.196 36.05V47.678H53.61C54.438 47.678 55.392 47.246 55.392 47.048V36.77ZM56.49 34.88V48.794C56.49 49.01 56.4 49.1 56.13 49.1C55.734 49.1 53.916 48.992 53.916 48.992V49.226C54.834 49.388 55.194 49.658 55.482 50.018C55.77 50.396 55.86 50.954 55.914 51.728C58.524 51.494 58.884 50.594 58.884 48.974V35.672C59.316 35.618 59.496 35.438 59.532 35.168L56.49 34.88ZM66.696 34.7C67.362 35.618 68.028 36.896 68.208 38.156C70.656 39.938 72.924 35.24 66.822 34.61L66.696 34.7ZM76.524 39.254C76.794 39.254 76.992 39.164 77.046 38.966C76.074 38.138 74.436 36.914 74.436 36.914L72.996 38.75H61.098L61.242 39.254H76.524ZM63.456 40.37C64.356 42.908 65.238 45.842 65.328 48.506C68.118 51.17 70.116 44.942 63.672 40.298L63.456 40.37ZM73.482 49.946H70.08C71.898 47.228 73.626 43.7 74.58 41.432C75.048 41.432 75.246 41.234 75.318 41L71.628 40.082C71.196 42.854 70.332 46.976 69.504 49.946H60.396L60.54 50.45H77.118C77.388 50.45 77.604 50.36 77.658 50.162C76.65 49.316 74.958 48.056 74.958 48.056L73.482 49.946ZM51.396 69.448V66.28H52.53V69.448H51.396ZM46.716 67.252V63.004H48.894V67.414C48.318 66.73 47.508 65.92 47.508 65.92L46.716 67.252ZM52.53 62.608V65.776H51.396V62.608H52.53ZM56.256 62.608V65.776H55.068V62.608H56.256ZM55.068 69.448V66.28H56.256V69.448H55.068ZM56.364 76.558H55.068V73.318H58.686C58.956 73.318 59.154 73.228 59.19 73.03C58.434 72.256 57.084 71.104 57.084 71.104L55.896 72.814H55.068V69.952H56.256V70.744H56.688C57.588 70.744 58.794 70.186 58.812 70.006V63.022C59.172 62.932 59.406 62.77 59.514 62.626L57.228 60.844L56.076 62.104H51.522L48.894 61.078V62.104C48.174 61.456 47.4 60.808 47.4 60.808L46.194 62.5H42.36L42.504 63.004H44.196V67.522H42.396L42.54 68.026H44.196V72.994C43.332 73.192 42.612 73.354 42.18 73.444L43.314 76.288C43.53 76.216 43.728 76 43.8 75.766C46.356 74.11 48.084 72.778 49.128 71.878L49.074 71.716C48.282 71.932 47.49 72.148 46.716 72.346V68.026H48.696C48.768 68.026 48.84 68.026 48.894 68.008V71.158H49.272C50.334 71.158 51.396 70.582 51.396 70.33V69.952H52.53V72.814H48.786L48.93 73.318H52.53V76.558H47.238L47.382 77.062H59.406C59.658 77.062 59.874 76.972 59.91 76.774C59.1 75.946 57.642 74.686 57.642 74.686L56.364 76.558ZM63.096 71.5C63.186 72.544 62.52 73.48 61.89 73.822C61.26 74.128 60.828 74.686 61.044 75.424C61.314 76.198 62.214 76.432 62.898 76.036C63.852 75.478 64.428 73.804 63.312 71.482L63.096 71.5ZM63.69 68.044H71.628C71.448 69.034 71.052 70.24 70.656 71.05L70.8 71.248C72.312 70.528 73.734 69.376 74.454 68.206C74.832 68.17 74.976 68.116 75.066 67.936L72.816 66.424L71.538 67.54H63.528L63.69 68.044ZM69.396 65.488H65.742L65.886 65.992H71.718C71.97 65.992 72.15 65.902 72.204 65.704C71.538 65.038 70.404 64.066 70.404 64.066L69.396 65.488ZM67.848 70.528C68.46 71.32 69.018 72.508 69.108 73.588C71.16 75.172 73.23 71.176 67.992 70.438L67.848 70.528ZM73.14 72.778H72.978C72.51 73.858 72.186 74.542 71.934 74.848C71.772 75.046 71.646 75.1 71.358 75.118C71.052 75.136 70.458 75.136 69.9 75.136H67.902C67.344 75.136 67.254 75.064 67.254 74.812V71.878C67.632 71.806 67.794 71.662 67.83 71.41L64.644 71.176V75.262C64.644 76.882 65.202 77.26 67.434 77.26H69.576C73.104 77.26 74.112 76.972 74.112 75.91C74.112 75.46 73.932 75.19 73.212 74.92L73.14 72.778ZM73.068 71.338C73.968 72.292 74.724 73.786 74.85 75.154C77.172 76.936 79.26 72.202 73.212 71.23L73.068 71.338ZM67.056 60.43C66.12 62.806 63.582 65.65 60.504 67.234L60.558 67.396C64.644 66.496 68.028 64.084 69.486 62.176C70.89 64.534 73.122 66.208 76.11 67.036C76.254 66.028 76.65 64.804 77.712 64.372V64.084C74.58 63.994 71.502 63.238 69.72 61.978C70.404 61.906 70.602 61.762 70.674 61.51L67.056 60.43Z" fill="#573605"/>
<path d="M49.506 46.382H47.472L46.122 45.878C46.212 45.518 46.266 45.158 46.302 44.816H49.47V45.32H49.884C50.082 45.32 50.298 45.302 50.532 45.248L49.506 46.382ZM47.22 49.748V46.886H49.686V49.748H47.22ZM49.47 40.964V42.404H46.41V40.964H49.47ZM49.47 44.312H46.356C46.392 43.808 46.41 43.34 46.41 42.908H49.47V44.312ZM47.67 38.714H46.068C47.058 37.76 47.886 36.734 48.48 35.744C49.56 36.662 50.226 37.886 50.46 38.876C49.758 38.246 48.678 37.436 48.678 37.436L47.67 38.714ZM51.864 41.36C52.224 41.27 52.476 41.108 52.584 40.964L50.334 39.308L49.29 40.46H46.77L44.826 39.794C45.132 39.56 45.438 39.308 45.708 39.056L45.762 39.218H50.028C50.244 39.218 50.406 39.146 50.478 39.002L50.514 39.182C52.386 40.694 55.158 36.464 48.57 35.582C49.128 35.528 49.308 35.402 49.38 35.15L45.924 34.52C45.402 36.464 43.998 39.362 42.234 41.198L42.36 41.324C42.972 41.036 43.548 40.694 44.106 40.316V42.746C44.106 45.266 43.98 48.506 42.45 51.062L42.594 51.206C43.638 50.54 44.394 49.73 44.952 48.866V51.638H45.366C46.536 51.638 47.22 51.152 47.22 51.008V50.252H49.686V51.386H50.1C50.856 51.386 52.08 50.99 52.098 50.882V47.282C52.476 47.21 52.71 47.03 52.818 46.886L50.604 45.23C51.234 45.122 51.846 44.888 51.864 44.816V41.36ZM55.392 36.77C55.824 36.698 55.95 36.536 55.986 36.302L53.196 36.05V47.678H53.61C54.438 47.678 55.392 47.246 55.392 47.048V36.77ZM56.49 34.88V48.794C56.49 49.01 56.4 49.1 56.13 49.1C55.734 49.1 53.916 48.992 53.916 48.992V49.226C54.834 49.388 55.194 49.658 55.482 50.018C55.77 50.396 55.86 50.954 55.914 51.728C58.524 51.494 58.884 50.594 58.884 48.974V35.672C59.316 35.618 59.496 35.438 59.532 35.168L56.49 34.88ZM66.696 34.7C67.362 35.618 68.028 36.896 68.208 38.156C70.656 39.938 72.924 35.24 66.822 34.61L66.696 34.7ZM76.524 39.254C76.794 39.254 76.992 39.164 77.046 38.966C76.074 38.138 74.436 36.914 74.436 36.914L72.996 38.75H61.098L61.242 39.254H76.524ZM63.456 40.37C64.356 42.908 65.238 45.842 65.328 48.506C68.118 51.17 70.116 44.942 63.672 40.298L63.456 40.37ZM73.482 49.946H70.08C71.898 47.228 73.626 43.7 74.58 41.432C75.048 41.432 75.246 41.234 75.318 41L71.628 40.082C71.196 42.854 70.332 46.976 69.504 49.946H60.396L60.54 50.45H77.118C77.388 50.45 77.604 50.36 77.658 50.162C76.65 49.316 74.958 48.056 74.958 48.056L73.482 49.946ZM51.396 69.448V66.28H52.53V69.448H51.396ZM46.716 67.252V63.004H48.894V67.414C48.318 66.73 47.508 65.92 47.508 65.92L46.716 67.252ZM52.53 62.608V65.776H51.396V62.608H52.53ZM56.256 62.608V65.776H55.068V62.608H56.256ZM55.068 69.448V66.28H56.256V69.448H55.068ZM56.364 76.558H55.068V73.318H58.686C58.956 73.318 59.154 73.228 59.19 73.03C58.434 72.256 57.084 71.104 57.084 71.104L55.896 72.814H55.068V69.952H56.256V70.744H56.688C57.588 70.744 58.794 70.186 58.812 70.006V63.022C59.172 62.932 59.406 62.77 59.514 62.626L57.228 60.844L56.076 62.104H51.522L48.894 61.078V62.104C48.174 61.456 47.4 60.808 47.4 60.808L46.194 62.5H42.36L42.504 63.004H44.196V67.522H42.396L42.54 68.026H44.196V72.994C43.332 73.192 42.612 73.354 42.18 73.444L43.314 76.288C43.53 76.216 43.728 76 43.8 75.766C46.356 74.11 48.084 72.778 49.128 71.878L49.074 71.716C48.282 71.932 47.49 72.148 46.716 72.346V68.026H48.696C48.768 68.026 48.84 68.026 48.894 68.008V71.158H49.272C50.334 71.158 51.396 70.582 51.396 70.33V69.952H52.53V72.814H48.786L48.93 73.318H52.53V76.558H47.238L47.382 77.062H59.406C59.658 77.062 59.874 76.972 59.91 76.774C59.1 75.946 57.642 74.686 57.642 74.686L56.364 76.558ZM63.096 71.5C63.186 72.544 62.52 73.48 61.89 73.822C61.26 74.128 60.828 74.686 61.044 75.424C61.314 76.198 62.214 76.432 62.898 76.036C63.852 75.478 64.428 73.804 63.312 71.482L63.096 71.5ZM63.69 68.044H71.628C71.448 69.034 71.052 70.24 70.656 71.05L70.8 71.248C72.312 70.528 73.734 69.376 74.454 68.206C74.832 68.17 74.976 68.116 75.066 67.936L72.816 66.424L71.538 67.54H63.528L63.69 68.044ZM69.396 65.488H65.742L65.886 65.992H71.718C71.97 65.992 72.15 65.902 72.204 65.704C71.538 65.038 70.404 64.066 70.404 64.066L69.396 65.488ZM67.848 70.528C68.46 71.32 69.018 72.508 69.108 73.588C71.16 75.172 73.23 71.176 67.992 70.438L67.848 70.528ZM73.14 72.778H72.978C72.51 73.858 72.186 74.542 71.934 74.848C71.772 75.046 71.646 75.1 71.358 75.118C71.052 75.136 70.458 75.136 69.9 75.136H67.902C67.344 75.136 67.254 75.064 67.254 74.812V71.878C67.632 71.806 67.794 71.662 67.83 71.41L64.644 71.176V75.262C64.644 76.882 65.202 77.26 67.434 77.26H69.576C73.104 77.26 74.112 76.972 74.112 75.91C74.112 75.46 73.932 75.19 73.212 74.92L73.14 72.778ZM73.068 71.338C73.968 72.292 74.724 73.786 74.85 75.154C77.172 76.936 79.26 72.202 73.212 71.23L73.068 71.338ZM67.056 60.43C66.12 62.806 63.582 65.65 60.504 67.234L60.558 67.396C64.644 66.496 68.028 64.084 69.486 62.176C70.89 64.534 73.122 66.208 76.11 67.036C76.254 66.028 76.65 64.804 77.712 64.372V64.084C74.58 63.994 71.502 63.238 69.72 61.978C70.404 61.906 70.602 61.762 70.674 61.51L67.056 60.43Z" fill="#573605"/>
</svg>
