<svg width="70" height="70" viewBox="0 0 70 70" fill="none" xmlns="http://www.w3.org/2000/svg">
<path d="M70 34.8296C70 44.4475 66.0825 53.1549 59.7487 59.4578C53.415 65.7607 44.665 69.6591 35 69.6591C25.335 69.6591 16.585 65.7607 10.2513 59.4578C3.91751 53.1549 0 44.4475 0 34.8296C0 25.2116 3.91751 16.5043 10.2513 10.2013C16.585 3.89843 25.335 0 35 0C44.665 0 53.415 3.89843 59.7487 10.2013C66.0825 16.5043 70 25.2116 70 34.8296Z" fill="#573605"/>
<path d="M31.234 54.0955H28.616V52.8075H31.234V54.0955ZM28.616 51.0995H31.234V52.4015H28.616V51.0995ZM24.724 49.0275V47.6135H27.272V49.0275H24.724ZM31.234 47.6135V49.0275H28.616V47.6135H31.234ZM32.704 52.4015H32.522V51.3095C32.788 51.2535 32.984 51.1415 33.082 51.0295L31.738 50.0215L31.094 50.7075H28.616V49.4195H31.234V49.9095H31.472C31.906 49.9095 32.564 49.6295 32.578 49.5315V47.8235C32.844 47.7675 33.04 47.6555 33.138 47.5575L31.752 46.5355L31.094 47.2075H28.616V46.1015H34.02C34.23 46.1015 34.384 46.0315 34.412 45.8775C33.838 45.3735 32.872 44.6875 32.872 44.6875L32.032 45.7095H28.616V44.7575C28.966 44.7155 29.106 44.5755 29.134 44.3655L27.272 44.1835V45.7095H21.546L21.672 46.1015H27.272V47.2075H24.822L23.394 46.6475V50.2035H23.59C24.108 50.2035 24.724 49.9235 24.724 49.8115V49.4195H27.272V50.7075H23.1L23.226 51.0995H27.272V52.4015H21.518L21.644 52.8075H27.272V54.0955H23.002L23.128 54.5015H27.272V55.4955C27.272 55.7195 27.188 55.8035 26.922 55.8035C26.572 55.8035 24.836 55.6775 24.836 55.6775V55.8875C25.62 55.9855 25.998 56.1395 26.25 56.3355C26.488 56.5315 26.586 56.8255 26.642 57.2035C28.392 57.0495 28.616 56.5035 28.616 55.5515V54.5015H31.234V55.2995H31.444C31.878 55.2995 32.508 55.0055 32.522 54.9215V52.8075H34.286C34.482 52.8075 34.636 52.7375 34.664 52.5835C34.202 52.1075 33.404 51.4355 33.404 51.4355L32.704 52.4015ZM37.226 44.6315C37.716 45.1355 38.234 45.9755 38.304 46.6755C39.41 47.5575 40.488 45.2755 37.352 44.5335L37.226 44.6315ZM35.56 56.7695C37.086 56.4615 39.046 55.7055 40.39 54.5435C40.698 54.6135 40.852 54.5715 40.964 54.4315L39.466 53.3955C38.36 54.7675 36.792 55.9295 35.476 56.5735L35.56 56.7695ZM43.12 54.0255C44.856 54.8095 46.088 55.7895 46.746 56.5175C47.922 57.5815 50.204 55.0475 43.218 53.8295L43.12 54.0255ZM46.284 46.8995H44.632C45.332 46.3955 46.06 45.7795 46.536 45.2615C46.844 45.3035 47.012 45.2055 47.082 45.0375L45.416 44.4635C45.122 45.2055 44.674 46.1995 44.24 46.8995H43.792V44.6875C44.114 44.6315 44.212 44.5055 44.24 44.3375L42.602 44.1835V46.8995H41.426V44.6875C41.734 44.6315 41.846 44.5055 41.86 44.3375L40.25 44.1835V46.8995H35.658L35.77 47.3055H43.778C43.596 47.8935 43.274 48.6355 42.98 49.2235H40.446C41.09 48.9855 41.216 47.7675 39.088 47.3335L38.948 47.4315C39.298 47.8235 39.676 48.4815 39.704 49.0555C39.802 49.1395 39.9 49.1955 39.998 49.2235H36.47L36.596 49.6295H41.3V50.9035H37.17L37.282 51.3095H41.3V52.6675H35.798L35.924 53.0735H41.3V57.1895H41.538C42.21 57.1895 42.616 56.9375 42.63 56.8535V53.0735H47.894C48.09 53.0735 48.23 53.0035 48.272 52.8495C47.712 52.3595 46.858 51.7295 46.858 51.7295L46.074 52.6675H42.63V51.3095H46.424C46.62 51.3095 46.76 51.2395 46.802 51.0855C46.284 50.6235 45.486 50.0495 45.486 50.0495L44.772 50.9035H42.63V49.6295H47.334C47.53 49.6295 47.656 49.5595 47.698 49.4055C47.166 48.9435 46.326 48.3275 46.326 48.3275L45.57 49.2235H43.554C44.086 48.8315 44.618 48.3695 44.954 48.0055C45.262 48.0335 45.444 47.9215 45.5 47.7535L43.932 47.3055H48.034C48.244 47.3055 48.384 47.2355 48.426 47.0815C47.88 46.6195 47.04 46.0175 47.04 46.0175L46.284 46.8995Z" fill="#FFFAE7" fill-opacity="0.85"/>
<path d="M40.3342 39.8698C39.3965 39.8698 38.6065 39.4685 38.1064 38.742L25.9669 21.1038C25.4952 20.4193 25.4185 19.635 25.7453 18.8902C26.0323 18.2345 26.6091 17.6391 27.4133 17.167C28.155 16.7316 28.9279 16.5008 29.6468 16.5008C30.5903 16.5008 31.3859 16.9021 31.886 17.6339L44.0255 35.2721C44.9292 36.5835 44.3438 38.1624 42.5735 39.201C41.8261 39.6364 41.0532 39.8698 40.3342 39.8698Z" fill="#CA9F70"/>
<path d="M29.6469 17.004C30.3602 17.004 30.9995 17.2794 31.4286 17.9037L43.5653 35.5419C44.3666 36.7064 43.6562 37.9706 42.2808 38.7758C41.6358 39.1534 40.9566 39.3659 40.3315 39.3659C39.6239 39.3659 38.9902 39.0905 38.564 38.4715L26.4245 20.8333C25.6231 19.6688 26.3279 18.3967 27.7004 17.5915C28.3454 17.2139 29.0246 17.004 29.6469 17.004ZM29.6469 15.9995C28.8228 15.9995 27.9504 16.2566 27.1207 16.7444C26.2199 17.2716 25.572 17.9482 25.2395 18.701C24.8445 19.6006 24.9411 20.55 25.5066 21.3736L37.6461 39.0118C38.2485 39.8878 39.2033 40.373 40.3343 40.373C41.1555 40.373 42.0336 40.1134 42.8662 39.6255C44.9122 38.4269 45.5629 36.57 44.4859 35.0042L32.3465 17.366C31.7412 16.4821 30.7807 15.9995 29.6469 15.9995Z" fill="#543714"/>
<path d="M29.7565 20.5593C30.8614 19.9116 31.3538 18.8007 30.8565 18.078C30.3592 17.3554 29.0604 17.2948 27.9555 17.9425C26.8507 18.5903 26.3582 19.7012 26.8556 20.4238C27.3529 21.1464 28.6517 21.2071 29.7565 20.5593Z" fill="white"/>
<path d="M31.0708 23.9565C31.5397 23.7047 31.9716 23.3899 32.3438 23.0254C32.4603 22.9126 32.2756 22.7421 32.1591 22.8549C31.7982 23.2037 31.389 23.5053 30.9372 23.7466C30.7923 23.8253 30.923 24.0351 31.0708 23.9565Z" fill="#543714"/>
<path d="M31.8067 24.1662C31.9517 24.0666 32.0966 23.9669 32.2415 23.8672C32.2699 23.8489 32.2927 23.8279 32.3012 23.7964C32.3097 23.7676 32.3069 23.7282 32.287 23.7046C32.2699 23.6784 32.2415 23.6574 32.2103 23.6495C32.179 23.6417 32.1364 23.6417 32.1108 23.6627C31.9659 23.7623 31.8209 23.862 31.676 23.9617C31.6476 23.98 31.6249 24.001 31.6163 24.0325C31.6078 24.0613 31.6107 24.1007 31.6306 24.1243C31.6476 24.1505 31.676 24.1715 31.7073 24.1793C31.7385 24.1846 31.7783 24.1846 31.8067 24.1662Z" fill="#543714"/>
<path d="M31.4062 25.2336C32.1962 24.8009 32.9379 24.2999 33.6255 23.7386C33.7506 23.6364 33.5659 23.4659 33.4408 23.5682C32.7702 24.1163 32.0456 24.6042 31.2755 25.0264C31.1306 25.1051 31.2613 25.3123 31.4062 25.2336Z" fill="#543714"/>
<path d="M31.1276 22.9048C31.8408 23.8097 32.304 25.0502 31.5908 26.0757C31.4998 26.2069 31.7243 26.3275 31.8153 26.1964C32.5768 25.1001 32.1222 23.7546 31.3521 22.7815C31.2526 22.6582 31.0281 22.7789 31.1276 22.9048Z" fill="#543714"/>
<path d="M32.9093 24.3634C33.1367 24.3949 33.364 24.3949 33.5942 24.3949C33.8272 24.3949 34.063 24.3975 34.296 24.3975C34.4637 24.3975 34.4637 24.1562 34.296 24.1562C34.0716 24.1562 33.8471 24.1536 33.6197 24.1536C33.4066 24.1536 33.1906 24.1589 32.9775 24.13C32.9065 24.1195 32.8383 24.1457 32.8155 24.2139C32.8013 24.2716 32.8411 24.353 32.9093 24.3634Z" fill="#543714"/>
<path d="M32.364 25.373C32.6198 25.7848 32.9039 26.1782 33.2194 26.5559C33.262 26.6083 33.333 26.6345 33.3984 26.5978C33.4524 26.569 33.4893 26.485 33.4439 26.4326C33.1313 26.0575 32.8443 25.6615 32.5885 25.2497C32.5061 25.116 32.2788 25.2366 32.364 25.373Z" fill="#543714"/>
<path d="M32.773 25.3464C32.773 25.2625 32.8582 25.1995 32.9179 25.1444C32.9946 25.0763 33.077 25.0081 33.1594 24.9477C33.1964 24.9189 33.2333 24.8927 33.2731 24.8664C33.2845 24.8586 33.3299 24.8218 33.3441 24.8218C33.3413 24.8218 33.3186 24.814 33.3413 24.8271C33.3782 24.8481 33.4066 24.8953 33.4322 24.9267C33.4635 24.9635 33.4947 25.0002 33.5232 25.0369C33.7675 25.3412 33.9721 25.6742 34.1313 26.0257C34.1597 26.086 34.2165 26.128 34.2932 26.1096C34.3558 26.0939 34.4126 26.0231 34.3842 25.9601C34.1824 25.5143 33.9181 25.0999 33.5914 24.7248C33.5175 24.6409 33.4209 24.5569 33.293 24.5832C33.1708 24.6068 33.0543 24.7169 32.9605 24.7851C32.7758 24.9215 32.5058 25.1051 32.5087 25.3464C32.5115 25.5011 32.773 25.5011 32.773 25.3464Z" fill="#543714"/>
<path d="M33.1483 25.9894C33.3415 25.8504 33.5319 25.7087 33.7166 25.5619C33.7678 25.5199 33.7649 25.4333 33.7166 25.3914C33.6626 25.3442 33.5887 25.3468 33.5319 25.3914C33.3472 25.5382 33.1568 25.6825 32.9636 25.8189C32.938 25.8372 32.9266 25.8766 32.9266 25.9028C32.9266 25.9317 32.9408 25.9684 32.9636 25.9894C32.9892 26.0103 33.0204 26.0261 33.0545 26.0234C33.0943 26.0234 33.1199 26.0103 33.1483 25.9894Z" fill="#543714"/>
<path d="M33.2531 26.8052C33.5685 26.5849 33.8868 26.3645 34.2022 26.1442C34.2591 26.1049 34.2875 26.0393 34.2477 25.979C34.2164 25.9291 34.1255 25.8951 34.0687 25.937C33.7532 26.1573 33.435 26.3776 33.1196 26.598C33.0627 26.6373 33.0343 26.7029 33.0741 26.7632C33.1053 26.813 33.1963 26.8445 33.2531 26.8052Z" fill="#543714"/>
<path d="M33.8045 27.6942C33.7704 27.8305 33.7249 27.9459 33.6624 28.0587C33.5942 28.182 33.5146 28.2869 33.4265 28.3813C33.3811 28.4285 33.3725 28.5046 33.4265 28.5518C33.4748 28.5938 33.5629 28.6016 33.6112 28.5518C33.8272 28.3236 33.9835 28.0509 34.0574 27.7571C34.0716 27.6968 34.0375 27.6233 33.9664 27.6076C33.8982 27.5971 33.8215 27.6286 33.8045 27.6942Z" fill="#543714"/>
<path d="M33.7447 29.4172C34.1653 29.1208 34.5716 28.8087 34.9638 28.4783C35.0888 28.3734 34.9041 28.2029 34.7791 28.3078C34.4068 28.6251 34.0175 28.9241 33.614 29.2074C33.5572 29.2467 33.5287 29.3123 33.5685 29.3726C33.5969 29.4251 33.6879 29.4566 33.7447 29.4172Z" fill="#543714"/>
<path d="M33.8384 28.1583C33.9578 28.4888 34.2107 28.7773 34.4153 29.0658C34.6398 29.3806 34.8643 29.6979 35.0888 30.0127C35.1797 30.1412 35.407 30.0205 35.3133 29.892C35.0973 29.5878 34.8785 29.2809 34.6625 28.9767C34.5545 28.8272 34.4494 28.675 34.3414 28.5255C34.2448 28.3892 34.1453 28.2528 34.0885 28.0954C34.0374 27.9459 33.7845 28.0088 33.8384 28.1583Z" fill="#543714"/>
<path d="M34.3018 28.8637C34.37 29.3148 34.1682 29.7607 33.992 30.1699C33.9665 30.2302 34.0204 30.301 34.083 30.3194C34.1568 30.3377 34.2165 30.2958 34.2449 30.2354C34.4467 29.7764 34.6342 29.3044 34.5547 28.8008C34.5462 28.7352 34.4552 28.7011 34.3927 28.7168C34.316 28.7352 34.2904 28.7982 34.3018 28.8637Z" fill="#543714"/>
<path d="M34.4666 29.108C34.7479 29.1368 35.0264 29.1631 35.3077 29.1919C35.3759 29.1998 35.4413 29.1316 35.4385 29.0713C35.4356 29.0005 35.3816 28.9585 35.3077 28.9506C35.0264 28.9244 34.7479 28.8955 34.4666 28.8667C34.3984 28.8588 34.3331 28.927 34.3359 28.9873C34.3416 29.0608 34.3956 29.1027 34.4666 29.108Z" fill="#543714"/>
<path d="M35.0293 27.9671C35.1458 28.0825 35.3106 28.1664 35.4839 28.1874C35.5209 28.1927 35.5521 28.1927 35.5834 28.1743C35.6118 28.1586 35.6374 28.1297 35.6431 28.1035C35.6516 28.072 35.6487 28.0379 35.6289 28.0117C35.6118 27.9881 35.5834 27.9593 35.5521 27.9566C35.4953 27.9488 35.4385 27.9356 35.3845 27.9147C35.3958 27.9199 35.4044 27.9225 35.4157 27.9278C35.3617 27.9068 35.3134 27.8806 35.2651 27.8465C35.2737 27.8517 35.2822 27.8596 35.2907 27.8648C35.2623 27.8439 35.2339 27.8229 35.2111 27.7966C35.1657 27.7494 35.0719 27.7494 35.0264 27.7966C34.981 27.8465 34.981 27.9173 35.0293 27.9671Z" fill="#543714"/>
<path d="M35.9329 27.1357C35.9499 27.1724 35.9613 27.2118 35.9727 27.2511C35.9784 27.2668 35.9812 27.2852 35.984 27.3009C35.984 27.3062 35.9869 27.3114 35.9869 27.3167C35.9897 27.3298 35.9897 27.3271 35.9869 27.3088C35.9897 27.3167 35.9897 27.3271 35.9897 27.335C35.9926 27.3717 35.9954 27.4085 35.9926 27.4452C35.9926 27.4662 35.9897 27.4845 35.9869 27.5055C35.984 27.5343 35.9926 27.4793 35.9869 27.5081C35.984 27.5186 35.984 27.5317 35.9812 27.5422C35.9698 27.6052 36.0011 27.676 36.0721 27.6917C36.1375 27.7048 36.2199 27.6734 36.2341 27.6078C36.2711 27.4294 36.2597 27.2432 36.1886 27.0727C36.1773 27.0413 36.1602 27.0177 36.129 27.0019C36.1006 26.9862 36.0608 26.9809 36.0295 26.9888C35.9642 27.0072 35.9073 27.0727 35.9329 27.1357Z" fill="#543714"/>
<path d="M35.1543 27.0806C35.6714 27.7075 35.8988 28.4969 35.7879 29.2785C35.7652 29.4306 36.0266 29.4306 36.0494 29.2785C36.163 28.4628 35.9187 27.6157 35.3787 26.96C35.2793 26.8367 35.0548 26.9573 35.1543 27.0806Z" fill="#543714"/>
<path d="M35.9583 28.41C36.4045 28.5254 36.8677 28.5804 37.328 28.5699C37.4957 28.5673 37.4957 28.326 37.328 28.3286C36.8876 28.3365 36.4528 28.2867 36.0265 28.1765C35.8646 28.1372 35.7964 28.368 35.9583 28.41Z" fill="#543714"/>
<path d="M70 34.8296C70 44.4475 66.0825 53.1549 59.7487 59.4578C53.415 65.7607 44.665 69.6591 35 69.6591C25.335 69.6591 16.585 65.7607 10.2513 59.4578C3.91751 53.1549 0 44.4475 0 34.8296C0 25.2116 3.91751 16.5043 10.2513 10.2013C16.585 3.89843 25.335 0 35 0C44.665 0 53.415 3.89843 59.7487 10.2013C66.0825 16.5043 70 25.2116 70 34.8296Z" fill="#573605"/>
<path d="M31.234 54.0955H28.616V52.8075H31.234V54.0955ZM28.616 51.0995H31.234V52.4015H28.616V51.0995ZM24.724 49.0275V47.6135H27.272V49.0275H24.724ZM31.234 47.6135V49.0275H28.616V47.6135H31.234ZM32.704 52.4015H32.522V51.3095C32.788 51.2535 32.984 51.1415 33.082 51.0295L31.738 50.0215L31.094 50.7075H28.616V49.4195H31.234V49.9095H31.472C31.906 49.9095 32.564 49.6295 32.578 49.5315V47.8235C32.844 47.7675 33.04 47.6555 33.138 47.5575L31.752 46.5355L31.094 47.2075H28.616V46.1015H34.02C34.23 46.1015 34.384 46.0315 34.412 45.8775C33.838 45.3735 32.872 44.6875 32.872 44.6875L32.032 45.7095H28.616V44.7575C28.966 44.7155 29.106 44.5755 29.134 44.3655L27.272 44.1835V45.7095H21.546L21.672 46.1015H27.272V47.2075H24.822L23.394 46.6475V50.2035H23.59C24.108 50.2035 24.724 49.9235 24.724 49.8115V49.4195H27.272V50.7075H23.1L23.226 51.0995H27.272V52.4015H21.518L21.644 52.8075H27.272V54.0955H23.002L23.128 54.5015H27.272V55.4955C27.272 55.7195 27.188 55.8035 26.922 55.8035C26.572 55.8035 24.836 55.6775 24.836 55.6775V55.8875C25.62 55.9855 25.998 56.1395 26.25 56.3355C26.488 56.5315 26.586 56.8255 26.642 57.2035C28.392 57.0495 28.616 56.5035 28.616 55.5515V54.5015H31.234V55.2995H31.444C31.878 55.2995 32.508 55.0055 32.522 54.9215V52.8075H34.286C34.482 52.8075 34.636 52.7375 34.664 52.5835C34.202 52.1075 33.404 51.4355 33.404 51.4355L32.704 52.4015ZM37.226 44.6315C37.716 45.1355 38.234 45.9755 38.304 46.6755C39.41 47.5575 40.488 45.2755 37.352 44.5335L37.226 44.6315ZM35.56 56.7695C37.086 56.4615 39.046 55.7055 40.39 54.5435C40.698 54.6135 40.852 54.5715 40.964 54.4315L39.466 53.3955C38.36 54.7675 36.792 55.9295 35.476 56.5735L35.56 56.7695ZM43.12 54.0255C44.856 54.8095 46.088 55.7895 46.746 56.5175C47.922 57.5815 50.204 55.0475 43.218 53.8295L43.12 54.0255ZM46.284 46.8995H44.632C45.332 46.3955 46.06 45.7795 46.536 45.2615C46.844 45.3035 47.012 45.2055 47.082 45.0375L45.416 44.4635C45.122 45.2055 44.674 46.1995 44.24 46.8995H43.792V44.6875C44.114 44.6315 44.212 44.5055 44.24 44.3375L42.602 44.1835V46.8995H41.426V44.6875C41.734 44.6315 41.846 44.5055 41.86 44.3375L40.25 44.1835V46.8995H35.658L35.77 47.3055H43.778C43.596 47.8935 43.274 48.6355 42.98 49.2235H40.446C41.09 48.9855 41.216 47.7675 39.088 47.3335L38.948 47.4315C39.298 47.8235 39.676 48.4815 39.704 49.0555C39.802 49.1395 39.9 49.1955 39.998 49.2235H36.47L36.596 49.6295H41.3V50.9035H37.17L37.282 51.3095H41.3V52.6675H35.798L35.924 53.0735H41.3V57.1895H41.538C42.21 57.1895 42.616 56.9375 42.63 56.8535V53.0735H47.894C48.09 53.0735 48.23 53.0035 48.272 52.8495C47.712 52.3595 46.858 51.7295 46.858 51.7295L46.074 52.6675H42.63V51.3095H46.424C46.62 51.3095 46.76 51.2395 46.802 51.0855C46.284 50.6235 45.486 50.0495 45.486 50.0495L44.772 50.9035H42.63V49.6295H47.334C47.53 49.6295 47.656 49.5595 47.698 49.4055C47.166 48.9435 46.326 48.3275 46.326 48.3275L45.57 49.2235H43.554C44.086 48.8315 44.618 48.3695 44.954 48.0055C45.262 48.0335 45.444 47.9215 45.5 47.7535L43.932 47.3055H48.034C48.244 47.3055 48.384 47.2355 48.426 47.0815C47.88 46.6195 47.04 46.0175 47.04 46.0175L46.284 46.8995Z" fill="#FFFAE7" fill-opacity="0.85"/>
<path d="M40.3342 39.8698C39.3965 39.8698 38.6065 39.4685 38.1064 38.742L25.9669 21.1038C25.4952 20.4193 25.4185 19.635 25.7453 18.8902C26.0323 18.2345 26.6091 17.6391 27.4133 17.167C28.155 16.7316 28.9279 16.5008 29.6468 16.5008C30.5903 16.5008 31.3859 16.9021 31.886 17.6339L44.0255 35.2721C44.9292 36.5835 44.3438 38.1624 42.5735 39.201C41.8261 39.6364 41.0532 39.8698 40.3342 39.8698Z" fill="#CA9F70"/>
<path d="M29.6469 17.004C30.3602 17.004 30.9995 17.2794 31.4286 17.9037L43.5653 35.5419C44.3666 36.7064 43.6562 37.9706 42.2808 38.7758C41.6358 39.1534 40.9566 39.3659 40.3315 39.3659C39.6239 39.3659 38.9902 39.0905 38.564 38.4715L26.4245 20.8333C25.6231 19.6688 26.3279 18.3967 27.7004 17.5915C28.3454 17.2139 29.0246 17.004 29.6469 17.004ZM29.6469 15.9995C28.8228 15.9995 27.9504 16.2566 27.1207 16.7444C26.2199 17.2716 25.572 17.9482 25.2395 18.701C24.8445 19.6006 24.9411 20.55 25.5066 21.3736L37.6461 39.0118C38.2485 39.8878 39.2033 40.373 40.3343 40.373C41.1555 40.373 42.0336 40.1134 42.8662 39.6255C44.9122 38.4269 45.5629 36.57 44.4859 35.0042L32.3465 17.366C31.7412 16.4821 30.7807 15.9995 29.6469 15.9995Z" fill="#543714"/>
<path d="M29.7565 20.5593C30.8614 19.9116 31.3538 18.8007 30.8565 18.078C30.3592 17.3554 29.0604 17.2948 27.9555 17.9425C26.8507 18.5903 26.3582 19.7012 26.8556 20.4238C27.3529 21.1464 28.6517 21.2071 29.7565 20.5593Z" fill="white"/>
<path d="M31.0708 23.9565C31.5397 23.7047 31.9716 23.3899 32.3438 23.0254C32.4603 22.9126 32.2756 22.7421 32.1591 22.8549C31.7982 23.2037 31.389 23.5053 30.9372 23.7466C30.7923 23.8253 30.923 24.0351 31.0708 23.9565Z" fill="#543714"/>
<path d="M31.8067 24.1662C31.9517 24.0666 32.0966 23.9669 32.2415 23.8672C32.2699 23.8489 32.2927 23.8279 32.3012 23.7964C32.3097 23.7676 32.3069 23.7282 32.287 23.7046C32.2699 23.6784 32.2415 23.6574 32.2103 23.6495C32.179 23.6417 32.1364 23.6417 32.1108 23.6627C31.9659 23.7623 31.8209 23.862 31.676 23.9617C31.6476 23.98 31.6249 24.001 31.6163 24.0325C31.6078 24.0613 31.6107 24.1007 31.6306 24.1243C31.6476 24.1505 31.676 24.1715 31.7073 24.1793C31.7385 24.1846 31.7783 24.1846 31.8067 24.1662Z" fill="#543714"/>
<path d="M31.4062 25.2336C32.1962 24.8009 32.9379 24.2999 33.6255 23.7386C33.7506 23.6364 33.5659 23.4659 33.4408 23.5682C32.7702 24.1163 32.0456 24.6042 31.2755 25.0264C31.1306 25.1051 31.2613 25.3123 31.4062 25.2336Z" fill="#543714"/>
<path d="M31.1276 22.9048C31.8408 23.8097 32.304 25.0502 31.5908 26.0757C31.4998 26.2069 31.7243 26.3275 31.8153 26.1964C32.5768 25.1001 32.1222 23.7546 31.3521 22.7815C31.2526 22.6582 31.0281 22.7789 31.1276 22.9048Z" fill="#543714"/>
<path d="M32.9093 24.3634C33.1367 24.3949 33.364 24.3949 33.5942 24.3949C33.8272 24.3949 34.063 24.3975 34.296 24.3975C34.4637 24.3975 34.4637 24.1562 34.296 24.1562C34.0716 24.1562 33.8471 24.1536 33.6197 24.1536C33.4066 24.1536 33.1906 24.1589 32.9775 24.13C32.9065 24.1195 32.8383 24.1457 32.8155 24.2139C32.8013 24.2716 32.8411 24.353 32.9093 24.3634Z" fill="#543714"/>
<path d="M32.364 25.373C32.6198 25.7848 32.9039 26.1782 33.2194 26.5559C33.262 26.6083 33.333 26.6345 33.3984 26.5978C33.4524 26.569 33.4893 26.485 33.4439 26.4326C33.1313 26.0575 32.8443 25.6615 32.5885 25.2497C32.5061 25.116 32.2788 25.2366 32.364 25.373Z" fill="#543714"/>
<path d="M32.773 25.3464C32.773 25.2625 32.8582 25.1995 32.9179 25.1444C32.9946 25.0763 33.077 25.0081 33.1594 24.9477C33.1964 24.9189 33.2333 24.8927 33.2731 24.8664C33.2845 24.8586 33.3299 24.8218 33.3441 24.8218C33.3413 24.8218 33.3186 24.814 33.3413 24.8271C33.3782 24.8481 33.4066 24.8953 33.4322 24.9267C33.4635 24.9635 33.4947 25.0002 33.5232 25.0369C33.7675 25.3412 33.9721 25.6742 34.1313 26.0257C34.1597 26.086 34.2165 26.128 34.2932 26.1096C34.3558 26.0939 34.4126 26.0231 34.3842 25.9601C34.1824 25.5143 33.9181 25.0999 33.5914 24.7248C33.5175 24.6409 33.4209 24.5569 33.293 24.5832C33.1708 24.6068 33.0543 24.7169 32.9605 24.7851C32.7758 24.9215 32.5058 25.1051 32.5087 25.3464C32.5115 25.5011 32.773 25.5011 32.773 25.3464Z" fill="#543714"/>
<path d="M33.1483 25.9894C33.3415 25.8504 33.5319 25.7087 33.7166 25.5619C33.7678 25.5199 33.7649 25.4333 33.7166 25.3914C33.6626 25.3442 33.5887 25.3468 33.5319 25.3914C33.3472 25.5382 33.1568 25.6825 32.9636 25.8189C32.938 25.8372 32.9266 25.8766 32.9266 25.9028C32.9266 25.9317 32.9408 25.9684 32.9636 25.9894C32.9892 26.0103 33.0204 26.0261 33.0545 26.0234C33.0943 26.0234 33.1199 26.0103 33.1483 25.9894Z" fill="#543714"/>
<path d="M33.2531 26.8052C33.5685 26.5849 33.8868 26.3645 34.2022 26.1442C34.2591 26.1049 34.2875 26.0393 34.2477 25.979C34.2164 25.9291 34.1255 25.8951 34.0687 25.937C33.7532 26.1573 33.435 26.3776 33.1196 26.598C33.0627 26.6373 33.0343 26.7029 33.0741 26.7632C33.1053 26.813 33.1963 26.8445 33.2531 26.8052Z" fill="#543714"/>
<path d="M33.8045 27.6942C33.7704 27.8305 33.7249 27.9459 33.6624 28.0587C33.5942 28.182 33.5146 28.2869 33.4265 28.3813C33.3811 28.4285 33.3725 28.5046 33.4265 28.5518C33.4748 28.5938 33.5629 28.6016 33.6112 28.5518C33.8272 28.3236 33.9835 28.0509 34.0574 27.7571C34.0716 27.6968 34.0375 27.6233 33.9664 27.6076C33.8982 27.5971 33.8215 27.6286 33.8045 27.6942Z" fill="#543714"/>
<path d="M33.7447 29.4172C34.1653 29.1208 34.5716 28.8087 34.9638 28.4783C35.0888 28.3734 34.9041 28.2029 34.7791 28.3078C34.4068 28.6251 34.0175 28.9241 33.614 29.2074C33.5572 29.2467 33.5287 29.3123 33.5685 29.3726C33.5969 29.4251 33.6879 29.4566 33.7447 29.4172Z" fill="#543714"/>
<path d="M33.8384 28.1583C33.9578 28.4888 34.2107 28.7773 34.4153 29.0658C34.6398 29.3806 34.8643 29.6979 35.0888 30.0127C35.1797 30.1412 35.407 30.0205 35.3133 29.892C35.0973 29.5878 34.8785 29.2809 34.6625 28.9767C34.5545 28.8272 34.4494 28.675 34.3414 28.5255C34.2448 28.3892 34.1453 28.2528 34.0885 28.0954C34.0374 27.9459 33.7845 28.0088 33.8384 28.1583Z" fill="#543714"/>
<path d="M34.3018 28.8637C34.37 29.3148 34.1682 29.7607 33.992 30.1699C33.9665 30.2302 34.0204 30.301 34.083 30.3194C34.1568 30.3377 34.2165 30.2958 34.2449 30.2354C34.4467 29.7764 34.6342 29.3044 34.5547 28.8008C34.5462 28.7352 34.4552 28.7011 34.3927 28.7168C34.316 28.7352 34.2904 28.7982 34.3018 28.8637Z" fill="#543714"/>
<path d="M34.4666 29.108C34.7479 29.1368 35.0264 29.1631 35.3077 29.1919C35.3759 29.1998 35.4413 29.1316 35.4385 29.0713C35.4356 29.0005 35.3816 28.9585 35.3077 28.9506C35.0264 28.9244 34.7479 28.8955 34.4666 28.8667C34.3984 28.8588 34.3331 28.927 34.3359 28.9873C34.3416 29.0608 34.3956 29.1027 34.4666 29.108Z" fill="#543714"/>
<path d="M35.0293 27.9671C35.1458 28.0825 35.3106 28.1664 35.4839 28.1874C35.5209 28.1927 35.5521 28.1927 35.5834 28.1743C35.6118 28.1586 35.6374 28.1297 35.6431 28.1035C35.6516 28.072 35.6487 28.0379 35.6289 28.0117C35.6118 27.9881 35.5834 27.9593 35.5521 27.9566C35.4953 27.9488 35.4385 27.9356 35.3845 27.9147C35.3958 27.9199 35.4044 27.9225 35.4157 27.9278C35.3617 27.9068 35.3134 27.8806 35.2651 27.8465C35.2737 27.8517 35.2822 27.8596 35.2907 27.8648C35.2623 27.8439 35.2339 27.8229 35.2111 27.7966C35.1657 27.7494 35.0719 27.7494 35.0264 27.7966C34.981 27.8465 34.981 27.9173 35.0293 27.9671Z" fill="#543714"/>
<path d="M35.9329 27.1357C35.9499 27.1724 35.9613 27.2118 35.9727 27.2511C35.9784 27.2668 35.9812 27.2852 35.984 27.3009C35.984 27.3062 35.9869 27.3114 35.9869 27.3167C35.9897 27.3298 35.9897 27.3271 35.9869 27.3088C35.9897 27.3167 35.9897 27.3271 35.9897 27.335C35.9926 27.3717 35.9954 27.4085 35.9926 27.4452C35.9926 27.4662 35.9897 27.4845 35.9869 27.5055C35.984 27.5343 35.9926 27.4793 35.9869 27.5081C35.984 27.5186 35.984 27.5317 35.9812 27.5422C35.9698 27.6052 36.0011 27.676 36.0721 27.6917C36.1375 27.7048 36.2199 27.6734 36.2341 27.6078C36.2711 27.4294 36.2597 27.2432 36.1886 27.0727C36.1773 27.0413 36.1602 27.0177 36.129 27.0019C36.1006 26.9862 36.0608 26.9809 36.0295 26.9888C35.9642 27.0072 35.9073 27.0727 35.9329 27.1357Z" fill="#543714"/>
<path d="M35.1543 27.0806C35.6714 27.7075 35.8988 28.4969 35.7879 29.2785C35.7652 29.4306 36.0266 29.4306 36.0494 29.2785C36.163 28.4628 35.9187 27.6157 35.3787 26.96C35.2793 26.8367 35.0548 26.9573 35.1543 27.0806Z" fill="#543714"/>
<path d="M35.9583 28.41C36.4045 28.5254 36.8677 28.5804 37.328 28.5699C37.4957 28.5673 37.4957 28.326 37.328 28.3286C36.8876 28.3365 36.4528 28.2867 36.0265 28.1765C35.8646 28.1372 35.7964 28.368 35.9583 28.41Z" fill="#543714"/>
</svg>
