<svg width="120" height="120" viewBox="0 0 120 120" fill="none" xmlns="http://www.w3.org/2000/svg">
<path d="M120 59.7078C120 76.1957 113.284 91.1226 102.426 101.928C91.5685 112.733 76.5685 119.416 60 119.416C43.4315 119.416 28.4315 112.733 17.5736 101.928C6.71573 91.1226 0 76.1957 0 59.7078C0 43.22 6.71573 28.293 17.5736 17.488C28.4315 6.68303 43.4315 0 60 0C76.5685 0 91.5685 6.68303 102.426 17.488C113.284 28.293 120 43.22 120 59.7078Z" fill="#FDBF52"/>
<path d="M50.82 54.8783C50.928 54.8783 51.018 54.8603 51.108 54.8243C50.82 55.4183 50.514 55.9223 50.208 56.3363L50.388 56.4983C51.378 56.1563 52.386 55.6343 53.25 54.8783H58.704C58.956 54.8783 59.136 54.7883 59.19 54.5903C58.452 53.9243 57.21 52.9703 57.21 52.9703L56.112 54.3743H53.754C53.898 54.2303 54.006 54.0863 54.132 53.9423C54.546 53.9783 54.78 53.8523 54.87 53.6363L51.936 52.4303C51.756 53.1683 51.522 53.8703 51.234 54.5183C50.568 53.8883 49.506 53.0063 49.506 53.0063L48.516 54.3743H46.698C46.842 54.1943 46.968 53.9963 47.094 53.7983C47.508 53.7983 47.742 53.6363 47.814 53.4203L44.826 52.5023C44.358 54.4103 43.458 56.2103 42.54 57.3443L42.72 57.5063C43.998 56.9483 45.258 56.1023 46.302 54.8783H50.82ZM53.538 55.2743C53.862 55.6163 54.15 56.2463 54.15 56.8403C55.842 58.0823 57.768 54.9863 53.682 55.1843L53.538 55.2743ZM43.818 60.3863C44.79 60.0623 45.69 59.5403 46.41 58.7483C46.572 59.0723 46.68 59.4323 46.698 59.7743C47.958 60.7283 49.308 58.6403 46.986 58.0283C47.076 57.8843 47.148 57.7403 47.238 57.5963C47.634 57.6323 47.85 57.4703 47.94 57.2543L45.438 56.3903C45.168 57.9743 44.484 59.3243 43.62 60.2063L43.818 60.3863ZM46.86 55.2203C47.13 55.5443 47.4 56.1743 47.4 56.7323C48.966 57.9203 50.856 55.0943 47.004 55.1303L46.86 55.2203ZM49.578 56.3903C49.308 57.9383 48.678 59.3063 47.886 60.1883L48.084 60.3683C48.984 60.0263 49.83 59.5223 50.532 58.7483C50.892 59.1623 51.198 59.6843 51.288 60.1703C52.728 61.0343 53.826 58.4783 50.946 58.2443C51.09 58.0283 51.234 57.8123 51.36 57.5783C51.756 57.5963 51.99 57.4523 52.062 57.2363L49.578 56.3903ZM50.91 62.2763H50.676V60.9443H53.07C53.124 61.4663 53.178 61.9883 53.268 62.4923C52.692 61.9703 51.738 61.2503 51.738 61.2503L50.91 62.2763ZM47.904 66.9563V60.9443H48.606V66.9203L47.904 66.9563ZM56.184 60.4403H55.212C55.158 59.5583 55.14 58.6583 55.14 57.7223C55.374 57.6863 55.536 57.5963 55.626 57.5063C55.878 58.0103 56.04 58.7303 55.95 59.3603C56.202 59.6123 56.472 59.7203 56.724 59.7563L56.184 60.4403ZM59.244 64.8863L59.064 64.8503C58.794 65.5163 58.398 66.3443 58.164 66.7583C58.02 67.0103 57.894 67.0103 57.66 66.8303C57.282 66.5243 56.958 66.1643 56.67 65.7683C57.39 64.8683 58.002 63.7883 58.524 62.4923C58.938 62.5283 59.172 62.3843 59.262 62.1683L56.49 61.1423C56.292 62.0063 56.022 62.8163 55.698 63.5723C55.482 62.7623 55.338 61.8803 55.248 60.9443H58.758C59.028 60.9443 59.208 60.8543 59.262 60.6563C58.776 60.2063 58.056 59.6303 57.642 59.3063C58.002 58.7303 57.714 57.7403 55.752 57.2543V57.2183L52.89 56.9663C52.908 58.1723 52.944 59.3243 53.016 60.4403H43.188L43.332 60.9443H45.852V62.2583H43.8L43.962 62.7623H45.852V63.8783H43.926L44.088 64.3823H45.852V65.6063H43.764L43.926 66.1103H45.852V67.0463C44.772 67.1003 43.89 67.1183 43.278 67.1363L44.484 69.7463C44.7 69.7103 44.898 69.5663 45.024 69.3323C49.056 68.3063 51.63 67.5503 53.376 66.9023L53.358 66.6683C52.44 66.7223 51.54 66.7763 50.676 66.8123V66.1463H53.142C53.394 66.1463 53.556 66.0563 53.61 65.8583C53.016 65.3363 52.08 64.6163 52.08 64.6163L51.252 65.6423H50.676V64.4003H52.98C53.214 64.4003 53.394 64.3103 53.448 64.1123C52.854 63.5903 51.918 62.8703 51.918 62.8703L51.09 63.8963H50.676V62.7803H52.8C53.052 62.7803 53.232 62.6903 53.268 62.5103C53.484 63.7883 53.808 64.9763 54.312 66.0383C53.268 67.4963 51.972 68.6303 50.568 69.4583L50.712 69.6563C52.368 69.1343 53.844 68.4323 55.104 67.3883C55.5 67.9463 55.986 68.4503 56.544 68.9183C57.282 69.4763 58.632 70.0703 59.352 69.2063C59.622 68.8463 59.532 68.3603 58.956 67.4423L59.244 64.8863ZM61.89 53.0423C62.412 53.6183 62.952 54.5903 63.078 55.5083C65.346 56.9843 67.38 52.7723 61.998 52.9523L61.89 53.0423ZM70.62 56.4083V59.1623H68.082L68.226 59.6663H76.47C76.722 59.6663 76.92 59.5763 76.974 59.3783C76.182 58.6583 74.85 57.6323 74.85 57.6323L73.68 59.1623H73.194V56.4083H76.938C77.19 56.4083 77.388 56.3183 77.442 56.1203C76.614 55.3823 75.246 54.3023 75.246 54.3023L74.022 55.9043H73.194V53.3123C73.626 53.2403 73.752 53.0783 73.77 52.8443L70.62 52.5923V55.9043H67.668L67.758 56.1923C67.092 55.5983 66.21 54.8963 66.21 54.8963L65.238 56.1923H60.486L60.63 56.6963H67.506C67.758 56.6963 67.956 56.6063 67.992 56.4083H70.62ZM61.224 58.4963L61.368 59.0003H66.822C67.074 59.0003 67.254 58.9103 67.308 58.7123C66.66 58.1003 65.58 57.2543 65.58 57.2543L64.626 58.4963H61.224ZM66.822 61.3583C67.074 61.3583 67.254 61.2683 67.308 61.0703C66.66 60.4583 65.58 59.6123 65.58 59.6123L64.626 60.8543H61.224L61.368 61.3583H66.822ZM63.564 67.2263V63.7343H64.77V67.2263H63.564ZM64.608 63.2303H63.636L61.35 62.3303V69.5123H61.674C62.61 69.5123 63.564 69.0263 63.564 68.8103V67.7303H64.77V68.7563H65.166C65.922 68.7563 67.002 68.2883 67.02 68.1443V64.0403C67.344 63.9683 67.56 63.8423 67.65 63.7163L65.598 62.1683L64.608 63.2303ZM74.616 61.6463V60.5483C75.03 60.4943 75.192 60.3323 75.228 60.0803L72.114 59.8103V62.0963H67.416L67.56 62.6003H72.114V66.9023C72.114 67.1363 72.024 67.2263 71.736 67.2263C71.286 67.2263 68.802 67.0823 68.802 67.0823V67.2983C69.954 67.4963 70.386 67.7483 70.764 68.0903C71.142 68.4503 71.25 68.9723 71.322 69.7103C74.202 69.4763 74.616 68.6123 74.616 66.9923V62.6003H76.938C77.19 62.6003 77.37 62.5103 77.424 62.3123C76.668 61.6103 75.408 60.5843 75.408 60.5843L74.616 61.6463ZM67.974 62.9063C68.568 63.8243 69.252 65.1023 69.468 66.2903C71.592 67.8383 73.554 63.7883 68.118 62.8163L67.974 62.9063Z" fill="#573605"/>
</svg>
