<svg width="70" height="70" viewBox="0 0 70 70" fill="none" xmlns="http://www.w3.org/2000/svg">
<path d="M70 34.8296C70 44.4475 66.0825 53.1549 59.7487 59.4578C53.415 65.7607 44.665 69.6591 35 69.6591C25.335 69.6591 16.585 65.7607 10.2513 59.4578C3.91751 53.1549 0 44.4475 0 34.8296C0 25.2116 3.91751 16.5042 10.2513 10.2013C16.585 3.89843 25.335 0 35 0C44.665 0 53.415 3.89843 59.7487 10.2013C66.0825 16.5042 70 25.2116 70 34.8296Z" fill="#FCDBA3"/>
<path d="M22.078 38.0033C22.218 37.9613 22.344 37.8493 22.456 37.6953C23.478 37.3453 24.416 36.9673 25.102 36.6873C25.13 36.9393 25.13 37.1913 25.116 37.4153C25.914 38.3393 27.104 36.5333 24.878 34.8813L24.696 34.9373C24.836 35.3153 24.976 35.8053 25.06 36.2953C24.164 36.3793 23.324 36.4633 22.666 36.5053C23.996 35.4973 25.466 33.9853 26.222 32.9213C26.488 32.9773 26.684 32.8933 26.768 32.7813L25.27 31.7733C25.088 32.1793 24.822 32.6833 24.486 33.2293C23.786 33.2433 23.086 33.2433 22.54 33.2433C23.478 32.4033 24.528 31.1293 25.116 30.2193C25.396 30.2473 25.55 30.1493 25.62 30.0233L23.982 29.1973C23.674 30.2613 22.736 32.2633 21.994 33.0333C21.882 33.1173 21.602 33.1733 21.602 33.1733L22.218 34.6573C22.33 34.6153 22.442 34.5173 22.54 34.3773C23.1 34.1953 23.632 34.0273 24.094 33.8593C23.436 34.8393 22.638 35.8333 21.98 36.3653C21.868 36.4493 21.56 36.5193 21.56 36.5193L22.078 38.0033ZM22.568 38.2973C22.652 39.0673 22.274 39.9913 21.91 40.3693C21.588 40.6073 21.434 40.9853 21.602 41.3213C21.84 41.6993 22.47 41.6293 22.736 41.2933C23.114 40.7753 23.268 39.7113 22.806 38.2973H22.568ZM23.492 38.0873C23.66 38.8153 23.744 39.8513 23.604 40.7053C24.346 41.6713 25.606 39.8653 23.688 38.0453L23.492 38.0873ZM24.738 37.8633C25.046 38.4793 25.298 39.3893 25.228 40.1313C26.012 40.9993 27.132 39.1933 24.934 37.8073L24.738 37.8633ZM28.378 32.2213C28.518 31.8573 28.672 31.4233 28.826 30.9893H31.416L31.052 32.2213H28.378ZM34.244 34.2093C34.426 34.2093 34.566 34.1393 34.608 33.9853C34.146 33.5093 33.348 32.8513 33.348 32.8513L32.648 33.8033H31.892L32.634 31.1433C32.9 31.1293 33.026 31.0873 33.138 30.9753L31.962 29.9953L31.388 30.5833H28.966C29.064 30.2893 29.148 30.0093 29.218 29.7853C29.596 29.7853 29.736 29.6173 29.778 29.4353L28.14 29.1553C27.972 29.8273 27.524 31.2273 27.202 32.0533C27.062 32.1233 26.922 32.2213 26.824 32.3053L27.916 33.0193L28.308 32.6273H30.94L30.618 33.8033H26.096L26.208 34.2093H28.966C28.336 35.0913 27.398 35.9313 26.32 36.5053L26.432 36.7153C27.44 36.3933 28.392 35.9873 29.19 35.4833L29.218 35.5253C28.532 36.7013 27.286 38.0313 26.152 38.7733L26.25 38.9693C27.496 38.4233 28.868 37.5973 29.778 36.7993C29.82 36.9393 29.862 37.0933 29.89 37.2333C28.896 38.7033 27.272 40.2573 25.634 41.2093L25.746 41.4053C27.37 40.8033 28.994 39.7673 30.128 38.7733C30.184 39.6973 30.086 40.4813 29.918 40.8173C29.848 40.9433 29.736 40.9433 29.554 40.9433C29.26 40.9433 28.378 40.9013 27.86 40.8733V41.0693C28.35 41.1673 28.784 41.3073 28.952 41.4473C29.12 41.6013 29.218 41.8253 29.232 42.2033C30.086 42.2033 30.646 42.0353 30.898 41.6433C31.444 40.8453 31.514 38.7733 30.66 36.9533C30.898 36.8693 31.164 36.7853 31.416 36.6873C31.682 39.0253 32.214 40.5653 33.558 41.5733C33.698 40.9013 34.034 40.4813 34.51 40.3413L34.524 40.1873C33.068 39.6553 32.102 38.2973 31.668 36.5893C32.438 36.2533 33.166 35.8893 33.572 35.6373C33.81 35.7213 33.964 35.7073 34.048 35.5953L32.69 34.4753C32.284 34.9933 31.318 36.0153 30.534 36.7013C30.254 36.1973 29.904 35.7073 29.47 35.3013C29.932 34.9653 30.338 34.6153 30.674 34.2093H34.244ZM46.2 31.0593V34.1253H43.848V31.0593H46.2ZM45.57 39.3193C47.768 39.3193 48.356 39.0953 48.356 38.5493C48.356 38.3253 48.258 38.1853 47.866 38.0313L47.824 35.7773H47.656C47.432 36.7433 47.222 37.6673 47.096 37.9333C47.012 38.0873 46.942 38.1293 46.788 38.1433C46.606 38.1573 46.186 38.1713 45.668 38.1713H44.422C43.932 38.1713 43.848 38.0733 43.848 37.8073V34.5313H46.2V35.2453H46.41C46.816 35.2453 47.446 35.0213 47.46 34.9233V31.2973C47.754 31.2413 47.964 31.1153 48.062 31.0033L46.69 29.9393L46.046 30.6533H44.016L42.602 30.0793V38.0873C42.602 39.0393 42.924 39.3193 44.17 39.3193H45.57ZM35.546 34.1813L35.658 34.5873H41.972C42.168 34.5873 42.308 34.5173 42.35 34.3633C41.86 33.8873 41.034 33.2293 41.034 33.2293L40.32 34.1813H39.55V31.9833H41.51C41.706 31.9833 41.846 31.9133 41.874 31.7593C41.384 31.3113 40.586 30.6813 40.586 30.6813L39.9 31.5773H39.55V29.7293C39.886 29.6873 39.998 29.5473 40.026 29.3653L38.276 29.1973V31.5773H36.036L36.148 31.9833H38.276V34.1813H35.546ZM39.83 37.4713H41.944C42.14 37.4713 42.266 37.4013 42.308 37.2473C41.86 36.7713 41.104 36.1133 41.104 36.1133L40.432 37.0653H39.83V35.3993C40.138 35.3573 40.236 35.2313 40.264 35.0493L38.612 34.8673V39.8233C38.15 39.5153 37.758 39.0953 37.422 38.5493C37.59 37.8213 37.702 37.0933 37.772 36.4073C38.094 36.3933 38.248 36.2673 38.29 36.0573L36.624 35.7493C36.624 37.8773 36.288 40.5933 35.322 42.3293L35.49 42.4693C36.4 41.5453 36.96 40.2993 37.296 38.9973C38.374 41.3073 40.068 41.8393 43.162 41.8393H47.796C47.824 41.3353 48.076 40.9013 48.58 40.7893V40.6073C47.306 40.6493 44.408 40.6493 43.204 40.6493C41.818 40.6493 40.726 40.5933 39.83 40.3553V37.4713Z" fill="#573605"/>
</svg>
