<svg width="70" height="70" viewBox="0 0 70 70" fill="none" xmlns="http://www.w3.org/2000/svg">
<path d="M70 34.8296C70 44.4475 66.0825 53.1549 59.7487 59.4578C53.415 65.7607 44.665 69.6591 35 69.6591C25.335 69.6591 16.585 65.7607 10.2513 59.4578C3.91751 53.1549 0 44.4475 0 34.8296C0 25.2116 3.91751 16.5043 10.2513 10.2013C16.585 3.89843 25.335 0 35 0C44.665 0 53.415 3.89843 59.7487 10.2013C66.0825 16.5043 70 25.2116 70 34.8296Z" fill="#573605"/>
<path d="M26.068 37.2905L25.438 37.9205H23.772C23.87 37.4585 23.968 36.8985 24.038 36.4365H25.452V36.8985H25.69C26.138 36.8985 26.642 36.6885 26.67 36.6465V34.4765C26.894 34.4485 27.076 34.3365 27.174 34.2385L26.152 33.2445L25.634 33.8465H24.5C25.816 32.9785 26.81 31.9145 27.468 30.7105C27.804 30.6825 27.944 30.6405 28.042 30.5145L26.754 29.3945L25.984 30.1225H22.218L22.344 30.5285H25.97C25.662 31.1865 25.242 31.8305 24.738 32.4325C24.864 31.9005 24.402 31.1445 22.61 31.1305L22.498 31.2285C22.988 31.5645 23.52 32.2085 23.632 32.7685C23.898 32.9365 24.136 32.9505 24.332 32.8805C23.506 33.7485 22.484 34.5045 21.35 35.0645L21.462 35.2465C22.33 34.9945 23.114 34.6585 23.842 34.2525H25.452V36.0305H24.388L23.03 35.4565C22.988 36.0445 22.834 37.0945 22.708 37.7805C22.484 37.8645 22.288 37.9625 22.134 38.0745L23.296 38.9285L23.814 38.3265H25.55C25.424 39.7405 25.228 40.6085 24.99 40.8045C24.878 40.8885 24.766 40.9165 24.556 40.9165C24.29 40.9165 23.408 40.8605 22.876 40.8185V41.0285C23.38 41.1125 23.842 41.2525 24.052 41.4485C24.262 41.6025 24.304 41.9105 24.304 42.2465C24.92 42.2465 25.41 42.1205 25.76 41.8685C26.32 41.4625 26.628 40.3845 26.754 38.4945C27.034 38.4665 27.202 38.3965 27.3 38.2845L26.068 37.2905ZM32.844 30.6685C32.592 31.1025 32.06 31.8165 31.57 32.3625C31.08 32.0685 30.604 31.7325 30.184 31.3685C30.898 31.0605 31.626 30.6685 32.102 30.3465C32.424 30.4305 32.55 30.3745 32.634 30.2345L31.248 29.3385C30.982 29.8145 30.422 30.5425 29.89 31.1025C29.288 30.5425 28.812 29.8705 28.49 29.1285L28.294 29.2405C28.826 30.9905 29.764 32.3485 30.982 33.3705L30.52 33.8465H29.414L27.986 33.2865V34.7005C27.986 35.5545 27.888 36.5345 26.838 37.3465L26.95 37.5145C28.966 36.8005 29.204 35.5405 29.204 34.7005V34.2525H30.646V36.0025C30.646 36.6605 30.744 36.9405 31.612 36.9405H31.962L31.206 37.6405H27.37L27.496 38.0465H31.164C30.94 38.4665 30.66 38.8585 30.338 39.2505C29.666 38.9985 28.84 38.7605 27.874 38.5785L27.762 38.7465C28.364 39.0405 29.036 39.4605 29.708 39.8945C28.798 40.7485 27.664 41.4765 26.39 41.9805L26.502 42.1765C28.056 41.7985 29.4 41.2245 30.492 40.4545C31.206 41.0005 31.836 41.5465 32.242 42.0085C33.334 42.3585 33.684 40.9445 31.416 39.7125C31.92 39.2645 32.354 38.7605 32.69 38.2145C32.998 38.1865 33.138 38.1585 33.25 38.0185L32.018 36.9405H32.186C33.348 36.9405 33.768 36.8005 33.768 36.3385C33.768 36.1285 33.656 36.0305 33.348 35.9045L33.278 35.8905H33.152C33.082 35.9185 32.956 35.9325 32.886 35.9465H32.676C32.592 35.9605 32.48 35.9465 32.368 35.9465H32.032C31.878 35.9465 31.85 35.9045 31.85 35.7785V34.3785C32.004 34.3645 32.13 34.3225 32.242 34.2665C32.648 34.5045 33.068 34.7285 33.516 34.9245C33.698 34.2945 34.104 33.8745 34.664 33.7765L34.692 33.6225C33.754 33.3705 32.83 33.0205 31.962 32.5725C32.606 32.3065 33.264 31.9565 33.712 31.6765C34.02 31.7465 34.146 31.6905 34.23 31.5645L32.844 30.6685ZM41.72 35.0085H43.834V36.8985H41.72V35.0085ZM46.102 30.4585V32.3065H38.486V30.4585H46.102ZM46.214 37.4165C45.822 37.8785 45.08 38.6485 44.45 39.2645C43.778 38.7465 43.232 38.1025 42.854 37.3045H48.146C48.342 37.3045 48.468 37.2345 48.51 37.0805C47.992 36.5765 47.11 35.8765 47.11 35.8765L46.34 36.8985H45.094V35.0085H47.334C47.53 35.0085 47.67 34.9385 47.712 34.7845C47.222 34.3085 46.424 33.6645 46.424 33.6645L45.71 34.6025H45.094V33.4965C45.388 33.4405 45.486 33.3285 45.514 33.1605L43.834 32.9925V34.6025H41.72V33.4545C42.014 33.4125 42.112 33.2865 42.14 33.1185L40.446 32.9645V34.6025H38.472L38.584 35.0085H40.446V36.8985H38.262C38.458 35.7225 38.486 34.5605 38.486 33.5385V32.7125H46.102V33.2445H46.312C46.732 33.2445 47.39 33.0205 47.404 32.9365V30.6965C47.684 30.6265 47.894 30.5145 47.992 30.4025L46.606 29.3525L45.962 30.0525H38.71L37.142 29.4645V33.5385C37.142 36.3805 36.974 39.5165 35.392 42.0505L35.574 42.1625C37.128 40.7905 37.842 39.0405 38.192 37.3045H39.774V40.1745C39.774 40.4125 39.69 40.5245 39.228 40.8185L40.096 42.2605C40.194 42.2045 40.306 42.1065 40.39 41.9665C41.622 41.2105 42.7 40.4405 43.274 40.0345L43.218 39.8665C42.448 40.1045 41.692 40.3285 41.034 40.5105V37.3045H42.56C43.358 40.0345 44.968 41.3785 47.53 42.2045C47.698 41.5605 48.076 41.1265 48.608 41.0005L48.636 40.8465C47.166 40.6085 45.85 40.1885 44.8 39.5165C45.64 39.1945 46.536 38.8305 47.124 38.5365C47.418 38.6205 47.558 38.5645 47.656 38.4385L46.214 37.4165Z" fill="#FCDBA3"/>
<path d="M70 34.8296C70 44.4475 66.0825 53.1549 59.7487 59.4578C53.415 65.7607 44.665 69.6591 35 69.6591C25.335 69.6591 16.585 65.7607 10.2513 59.4578C3.91751 53.1549 0 44.4475 0 34.8296C0 25.2116 3.91751 16.5043 10.2513 10.2013C16.585 3.89843 25.335 0 35 0C44.665 0 53.415 3.89843 59.7487 10.2013C66.0825 16.5043 70 25.2116 70 34.8296Z" fill="#573605"/>
<path d="M26.068 37.2905L25.438 37.9205H23.772C23.87 37.4585 23.968 36.8985 24.038 36.4365H25.452V36.8985H25.69C26.138 36.8985 26.642 36.6885 26.67 36.6465V34.4765C26.894 34.4485 27.076 34.3365 27.174 34.2385L26.152 33.2445L25.634 33.8465H24.5C25.816 32.9785 26.81 31.9145 27.468 30.7105C27.804 30.6825 27.944 30.6405 28.042 30.5145L26.754 29.3945L25.984 30.1225H22.218L22.344 30.5285H25.97C25.662 31.1865 25.242 31.8305 24.738 32.4325C24.864 31.9005 24.402 31.1445 22.61 31.1305L22.498 31.2285C22.988 31.5645 23.52 32.2085 23.632 32.7685C23.898 32.9365 24.136 32.9505 24.332 32.8805C23.506 33.7485 22.484 34.5045 21.35 35.0645L21.462 35.2465C22.33 34.9945 23.114 34.6585 23.842 34.2525H25.452V36.0305H24.388L23.03 35.4565C22.988 36.0445 22.834 37.0945 22.708 37.7805C22.484 37.8645 22.288 37.9625 22.134 38.0745L23.296 38.9285L23.814 38.3265H25.55C25.424 39.7405 25.228 40.6085 24.99 40.8045C24.878 40.8885 24.766 40.9165 24.556 40.9165C24.29 40.9165 23.408 40.8605 22.876 40.8185V41.0285C23.38 41.1125 23.842 41.2525 24.052 41.4485C24.262 41.6025 24.304 41.9105 24.304 42.2465C24.92 42.2465 25.41 42.1205 25.76 41.8685C26.32 41.4625 26.628 40.3845 26.754 38.4945C27.034 38.4665 27.202 38.3965 27.3 38.2845L26.068 37.2905ZM32.844 30.6685C32.592 31.1025 32.06 31.8165 31.57 32.3625C31.08 32.0685 30.604 31.7325 30.184 31.3685C30.898 31.0605 31.626 30.6685 32.102 30.3465C32.424 30.4305 32.55 30.3745 32.634 30.2345L31.248 29.3385C30.982 29.8145 30.422 30.5425 29.89 31.1025C29.288 30.5425 28.812 29.8705 28.49 29.1285L28.294 29.2405C28.826 30.9905 29.764 32.3485 30.982 33.3705L30.52 33.8465H29.414L27.986 33.2865V34.7005C27.986 35.5545 27.888 36.5345 26.838 37.3465L26.95 37.5145C28.966 36.8005 29.204 35.5405 29.204 34.7005V34.2525H30.646V36.0025C30.646 36.6605 30.744 36.9405 31.612 36.9405H31.962L31.206 37.6405H27.37L27.496 38.0465H31.164C30.94 38.4665 30.66 38.8585 30.338 39.2505C29.666 38.9985 28.84 38.7605 27.874 38.5785L27.762 38.7465C28.364 39.0405 29.036 39.4605 29.708 39.8945C28.798 40.7485 27.664 41.4765 26.39 41.9805L26.502 42.1765C28.056 41.7985 29.4 41.2245 30.492 40.4545C31.206 41.0005 31.836 41.5465 32.242 42.0085C33.334 42.3585 33.684 40.9445 31.416 39.7125C31.92 39.2645 32.354 38.7605 32.69 38.2145C32.998 38.1865 33.138 38.1585 33.25 38.0185L32.018 36.9405H32.186C33.348 36.9405 33.768 36.8005 33.768 36.3385C33.768 36.1285 33.656 36.0305 33.348 35.9045L33.278 35.8905H33.152C33.082 35.9185 32.956 35.9325 32.886 35.9465H32.676C32.592 35.9605 32.48 35.9465 32.368 35.9465H32.032C31.878 35.9465 31.85 35.9045 31.85 35.7785V34.3785C32.004 34.3645 32.13 34.3225 32.242 34.2665C32.648 34.5045 33.068 34.7285 33.516 34.9245C33.698 34.2945 34.104 33.8745 34.664 33.7765L34.692 33.6225C33.754 33.3705 32.83 33.0205 31.962 32.5725C32.606 32.3065 33.264 31.9565 33.712 31.6765C34.02 31.7465 34.146 31.6905 34.23 31.5645L32.844 30.6685ZM41.72 35.0085H43.834V36.8985H41.72V35.0085ZM46.102 30.4585V32.3065H38.486V30.4585H46.102ZM46.214 37.4165C45.822 37.8785 45.08 38.6485 44.45 39.2645C43.778 38.7465 43.232 38.1025 42.854 37.3045H48.146C48.342 37.3045 48.468 37.2345 48.51 37.0805C47.992 36.5765 47.11 35.8765 47.11 35.8765L46.34 36.8985H45.094V35.0085H47.334C47.53 35.0085 47.67 34.9385 47.712 34.7845C47.222 34.3085 46.424 33.6645 46.424 33.6645L45.71 34.6025H45.094V33.4965C45.388 33.4405 45.486 33.3285 45.514 33.1605L43.834 32.9925V34.6025H41.72V33.4545C42.014 33.4125 42.112 33.2865 42.14 33.1185L40.446 32.9645V34.6025H38.472L38.584 35.0085H40.446V36.8985H38.262C38.458 35.7225 38.486 34.5605 38.486 33.5385V32.7125H46.102V33.2445H46.312C46.732 33.2445 47.39 33.0205 47.404 32.9365V30.6965C47.684 30.6265 47.894 30.5145 47.992 30.4025L46.606 29.3525L45.962 30.0525H38.71L37.142 29.4645V33.5385C37.142 36.3805 36.974 39.5165 35.392 42.0505L35.574 42.1625C37.128 40.7905 37.842 39.0405 38.192 37.3045H39.774V40.1745C39.774 40.4125 39.69 40.5245 39.228 40.8185L40.096 42.2605C40.194 42.2045 40.306 42.1065 40.39 41.9665C41.622 41.2105 42.7 40.4405 43.274 40.0345L43.218 39.8665C42.448 40.1045 41.692 40.3285 41.034 40.5105V37.3045H42.56C43.358 40.0345 44.968 41.3785 47.53 42.2045C47.698 41.5605 48.076 41.1265 48.608 41.0005L48.636 40.8465C47.166 40.6085 45.85 40.1885 44.8 39.5165C45.64 39.1945 46.536 38.8305 47.124 38.5365C47.418 38.6205 47.558 38.5645 47.656 38.4385L46.214 37.4165Z" fill="#FCDBA3"/>
</svg>
