<svg width="120" height="120" viewBox="0 0 120 120" fill="none" xmlns="http://www.w3.org/2000/svg">
<path d="M102.425 101.221L60.7088 59.7078L102.425 18.1949C112.986 28.8811 119.5 43.5372 119.5 59.7078C119.5 75.8784 112.986 90.5345 102.425 101.221ZM101.716 17.4895L60 59.0024L18.2839 17.4895C29.0222 6.9818 43.7498 0.5 60 0.5C76.2503 0.5 90.9778 6.9818 101.716 17.4895ZM60 60.4132L101.716 101.926C90.9778 112.434 76.2503 118.916 60 118.916C43.7498 118.916 29.0222 112.434 18.2839 101.926L60 60.4132ZM59.2912 59.7078L17.5751 101.221C7.01399 90.5345 0.5 75.8784 0.5 59.7078C0.5 43.5372 7.01399 28.8811 17.5751 18.1949L59.2912 59.7078Z" fill="#FDBF52" stroke="#FDBF52"/>
<path d="M44.25 38.682C44.7 39.42 45.186 40.482 45.294 41.526C47.472 43.2 49.848 39.132 44.376 38.592L44.25 38.682ZM48.138 41.256L46.788 42.534H42.63L42.792 43.038H46.878C46.122 45.486 44.358 48.438 42.198 50.472L42.342 50.616C43.242 50.166 44.088 49.608 44.898 48.996V55.62H45.366C46.608 55.62 47.4 55.026 47.4 54.882V47.232C47.688 47.79 47.94 48.456 48.012 49.086C49.902 50.526 51.99 47.088 47.418 46.602C48.264 45.63 48.984 44.622 49.488 43.632C49.938 43.596 50.136 43.524 50.298 43.362L48.138 41.256ZM56.292 45.378H52.854V41.652C54.708 41.526 56.616 41.274 57.894 41.004C58.524 41.238 58.974 41.202 59.226 41.004L56.562 38.592C55.788 39.222 54.474 40.05 53.142 40.752L50.37 39.888V45.756C50.37 49.122 50.154 52.704 47.958 55.53L48.138 55.728C52.53 53.244 52.854 49.176 52.854 45.882H54.798V55.728H55.266C56.562 55.728 57.318 55.278 57.318 55.152V45.882H59.262C59.532 45.882 59.73 45.792 59.784 45.594C58.956 44.82 57.552 43.65 57.552 43.65L56.292 45.378ZM74.454 43.092V45.288H72.132V43.092H74.454ZM72.132 50.832V48.582H74.454V50.832H72.132ZM72.132 45.792H74.454V48.078H72.132V45.792ZM67.128 43.488V45.522H65.616V43.488H67.128ZM67.128 47.988H65.616V46.026H67.128V47.988ZM77.262 40.914C77.514 40.914 77.712 40.824 77.766 40.626C76.956 39.888 75.588 38.79 75.588 38.79L74.364 40.41H69.63C68.82 39.726 67.722 38.844 67.722 38.844L66.552 40.374H63.42L61.098 39.546V46.242C61.098 49.356 61.188 52.776 60.27 55.44L60.486 55.566C63.096 52.956 63.096 49.248 63.096 46.242V40.878H65.274C65.31 41.472 65.31 42.21 65.292 42.822L63.744 42.192V49.194H64.014C64.518 49.194 65.022 49.032 65.328 48.87V50.148L63.51 49.644C63.312 51.174 62.916 52.812 62.466 53.892L62.718 54.036C63.726 53.262 64.626 52.074 65.292 50.724H65.328V53.046C65.328 53.226 65.274 53.334 65.04 53.334C64.788 53.334 63.762 53.262 63.762 53.262V53.514C64.41 53.622 64.644 53.856 64.806 54.162C64.986 54.468 65.022 54.99 65.04 55.638C67.11 55.458 67.398 54.504 67.398 53.082V48.888H67.47C68.136 48.888 69.144 48.51 69.162 48.384V43.74C69.468 43.686 69.666 43.56 69.756 43.434L67.884 42.012L66.966 42.984H65.886C66.39 42.534 66.894 42.012 67.254 41.616C67.65 41.616 67.848 41.436 67.902 41.22L66.246 40.878H68.982L69 40.914H72.258C72.258 41.472 72.258 42.102 72.24 42.588H72.204L69.936 41.67V51.372C69.72 50.742 69.036 50.058 67.578 49.572L67.398 49.644C67.722 50.418 68.046 51.516 68.028 52.488C68.784 53.226 69.684 52.902 69.936 52.2V52.362H70.278C70.494 52.362 70.728 52.326 70.944 52.29C70.332 53.424 69.288 54.702 68.226 55.494L68.352 55.71C70.224 55.242 72.294 54.126 73.248 53.028C73.554 53.082 73.734 53.046 73.824 52.902L71.88 51.912C72.042 51.804 72.132 51.696 72.132 51.624V51.336H74.454V51.966C74.148 51.894 73.806 51.822 73.428 51.768L73.284 51.876C74.058 52.794 74.994 54.18 75.336 55.404C77.316 56.646 78.81 53.28 74.76 52.056H74.832C75.606 52.056 76.704 51.606 76.722 51.462V43.362C77.01 43.29 77.208 43.164 77.298 43.056L75.3 41.526L74.292 42.588H72.942C73.518 42.12 74.148 41.508 74.688 40.914H77.262ZM49.29 64.574C48.678 67.49 45.6 71.576 42.288 73.7L42.396 73.898C44.088 73.304 45.726 72.422 47.184 71.378V73.466C47.184 76.22 46.788 79.46 42.63 81.602L42.72 81.746C48.858 80.234 49.722 76.544 49.794 73.484V72.026C50.226 71.972 50.352 71.774 50.388 71.54L47.328 71.27C49.29 69.812 50.91 68.012 51.882 66.176C52.494 68.444 53.61 70.118 55.14 71.414L52.134 71.162V81.71H52.602C53.628 81.71 54.798 81.224 54.798 81.026V71.972C55.158 71.9 55.32 71.792 55.41 71.648C56.112 72.224 56.904 72.71 57.768 73.142C57.948 72.134 58.632 70.964 59.802 70.604L59.82 70.334C57.048 69.686 53.754 68.534 52.17 65.96C52.782 65.888 53.034 65.78 53.106 65.51L49.29 64.574ZM62.106 76.454C62.232 77.246 61.656 78.218 61.26 78.614C60.666 79.01 60.36 79.64 60.666 80.306C61.026 81.062 62.142 81.134 62.574 80.594C63.15 79.838 63.168 78.38 62.34 76.454H62.106ZM63.51 76.292C63.69 77.264 63.762 78.542 63.528 79.676C64.914 81.458 67.326 78.524 63.726 76.238L63.51 76.292ZM65.634 75.662C66.012 76.472 66.264 77.642 66.138 78.668C67.632 80.27 69.828 77.192 65.832 75.572L65.634 75.662ZM70.692 79.658V74.834H73.986V79.658H70.692ZM75.57 64.808L74.382 65.924H67.416L67.578 66.428H69.954C69.9 68.408 69.684 70.676 67.506 72.8C67.11 72.35 66.462 71.936 65.472 71.594L65.292 71.684C65.544 72.206 65.778 72.854 65.94 73.52C64.698 73.61 63.51 73.682 62.556 73.736C64.446 72.512 66.606 70.64 67.686 69.29C68.046 69.38 68.28 69.272 68.388 69.128L65.868 67.364C65.616 68.03 65.148 68.876 64.59 69.74C63.69 69.758 62.826 69.758 62.124 69.758C63.384 68.84 64.806 67.4 65.634 66.32C65.958 66.338 66.174 66.23 66.246 66.068L63.42 64.646C63.132 66.05 62.016 68.66 61.188 69.452C61.008 69.578 60.594 69.686 60.594 69.686L61.638 72.134C61.818 72.062 61.98 71.918 62.106 71.702C62.682 71.45 63.24 71.216 63.744 70.982C62.916 72.08 62.016 73.07 61.296 73.556C61.08 73.7 60.558 73.808 60.558 73.808L61.818 76.418C62.052 76.292 62.25 76.058 62.394 75.698C63.852 75.104 65.13 74.492 66.03 74.024C66.084 74.276 66.102 74.51 66.102 74.744C67.272 75.842 68.676 74.456 67.722 73.07C71.43 71.324 72.366 68.786 72.618 66.428H74.562C74.454 69.2 74.256 70.622 73.896 70.928C73.77 71.036 73.626 71.072 73.374 71.072C73.032 71.072 72.078 71.036 71.484 70.982L71.466 71.198C72.15 71.36 72.636 71.612 72.906 71.936C73.176 72.242 73.23 72.782 73.23 73.448C73.95 73.448 74.508 73.358 74.958 73.16L73.914 74.33H70.872L68.28 73.358V81.674H68.712C69.954 81.674 70.692 81.278 70.692 81.116V80.162H73.986V81.458H74.454C75.75 81.458 76.524 81.026 76.524 80.936V75.014C76.938 74.942 77.118 74.816 77.226 74.654L75.156 73.07C75.282 72.998 75.408 72.926 75.516 72.836C76.416 72.17 76.722 70.622 76.866 66.806C77.244 66.752 77.46 66.644 77.586 66.482L75.57 64.808Z" fill="#573605"/>
<path d="M102.425 101.221L60.7088 59.7078L102.425 18.1949C112.986 28.8811 119.5 43.5372 119.5 59.7078C119.5 75.8784 112.986 90.5345 102.425 101.221ZM101.716 17.4895L60 59.0024L18.2839 17.4895C29.0222 6.9818 43.7498 0.5 60 0.5C76.2503 0.5 90.9778 6.9818 101.716 17.4895ZM60 60.4132L101.716 101.926C90.9778 112.434 76.2503 118.916 60 118.916C43.7498 118.916 29.0222 112.434 18.2839 101.926L60 60.4132ZM59.2912 59.7078L17.5751 101.221C7.01399 90.5345 0.5 75.8784 0.5 59.7078C0.5 43.5372 7.01399 28.8811 17.5751 18.1949L59.2912 59.7078Z" fill="#FDBF52" stroke="#FDBF52"/>
<path d="M44.25 38.682C44.7 39.42 45.186 40.482 45.294 41.526C47.472 43.2 49.848 39.132 44.376 38.592L44.25 38.682ZM48.138 41.256L46.788 42.534H42.63L42.792 43.038H46.878C46.122 45.486 44.358 48.438 42.198 50.472L42.342 50.616C43.242 50.166 44.088 49.608 44.898 48.996V55.62H45.366C46.608 55.62 47.4 55.026 47.4 54.882V47.232C47.688 47.79 47.94 48.456 48.012 49.086C49.902 50.526 51.99 47.088 47.418 46.602C48.264 45.63 48.984 44.622 49.488 43.632C49.938 43.596 50.136 43.524 50.298 43.362L48.138 41.256ZM56.292 45.378H52.854V41.652C54.708 41.526 56.616 41.274 57.894 41.004C58.524 41.238 58.974 41.202 59.226 41.004L56.562 38.592C55.788 39.222 54.474 40.05 53.142 40.752L50.37 39.888V45.756C50.37 49.122 50.154 52.704 47.958 55.53L48.138 55.728C52.53 53.244 52.854 49.176 52.854 45.882H54.798V55.728H55.266C56.562 55.728 57.318 55.278 57.318 55.152V45.882H59.262C59.532 45.882 59.73 45.792 59.784 45.594C58.956 44.82 57.552 43.65 57.552 43.65L56.292 45.378ZM74.454 43.092V45.288H72.132V43.092H74.454ZM72.132 50.832V48.582H74.454V50.832H72.132ZM72.132 45.792H74.454V48.078H72.132V45.792ZM67.128 43.488V45.522H65.616V43.488H67.128ZM67.128 47.988H65.616V46.026H67.128V47.988ZM77.262 40.914C77.514 40.914 77.712 40.824 77.766 40.626C76.956 39.888 75.588 38.79 75.588 38.79L74.364 40.41H69.63C68.82 39.726 67.722 38.844 67.722 38.844L66.552 40.374H63.42L61.098 39.546V46.242C61.098 49.356 61.188 52.776 60.27 55.44L60.486 55.566C63.096 52.956 63.096 49.248 63.096 46.242V40.878H65.274C65.31 41.472 65.31 42.21 65.292 42.822L63.744 42.192V49.194H64.014C64.518 49.194 65.022 49.032 65.328 48.87V50.148L63.51 49.644C63.312 51.174 62.916 52.812 62.466 53.892L62.718 54.036C63.726 53.262 64.626 52.074 65.292 50.724H65.328V53.046C65.328 53.226 65.274 53.334 65.04 53.334C64.788 53.334 63.762 53.262 63.762 53.262V53.514C64.41 53.622 64.644 53.856 64.806 54.162C64.986 54.468 65.022 54.99 65.04 55.638C67.11 55.458 67.398 54.504 67.398 53.082V48.888H67.47C68.136 48.888 69.144 48.51 69.162 48.384V43.74C69.468 43.686 69.666 43.56 69.756 43.434L67.884 42.012L66.966 42.984H65.886C66.39 42.534 66.894 42.012 67.254 41.616C67.65 41.616 67.848 41.436 67.902 41.22L66.246 40.878H68.982L69 40.914H72.258C72.258 41.472 72.258 42.102 72.24 42.588H72.204L69.936 41.67V51.372C69.72 50.742 69.036 50.058 67.578 49.572L67.398 49.644C67.722 50.418 68.046 51.516 68.028 52.488C68.784 53.226 69.684 52.902 69.936 52.2V52.362H70.278C70.494 52.362 70.728 52.326 70.944 52.29C70.332 53.424 69.288 54.702 68.226 55.494L68.352 55.71C70.224 55.242 72.294 54.126 73.248 53.028C73.554 53.082 73.734 53.046 73.824 52.902L71.88 51.912C72.042 51.804 72.132 51.696 72.132 51.624V51.336H74.454V51.966C74.148 51.894 73.806 51.822 73.428 51.768L73.284 51.876C74.058 52.794 74.994 54.18 75.336 55.404C77.316 56.646 78.81 53.28 74.76 52.056H74.832C75.606 52.056 76.704 51.606 76.722 51.462V43.362C77.01 43.29 77.208 43.164 77.298 43.056L75.3 41.526L74.292 42.588H72.942C73.518 42.12 74.148 41.508 74.688 40.914H77.262ZM49.29 64.574C48.678 67.49 45.6 71.576 42.288 73.7L42.396 73.898C44.088 73.304 45.726 72.422 47.184 71.378V73.466C47.184 76.22 46.788 79.46 42.63 81.602L42.72 81.746C48.858 80.234 49.722 76.544 49.794 73.484V72.026C50.226 71.972 50.352 71.774 50.388 71.54L47.328 71.27C49.29 69.812 50.91 68.012 51.882 66.176C52.494 68.444 53.61 70.118 55.14 71.414L52.134 71.162V81.71H52.602C53.628 81.71 54.798 81.224 54.798 81.026V71.972C55.158 71.9 55.32 71.792 55.41 71.648C56.112 72.224 56.904 72.71 57.768 73.142C57.948 72.134 58.632 70.964 59.802 70.604L59.82 70.334C57.048 69.686 53.754 68.534 52.17 65.96C52.782 65.888 53.034 65.78 53.106 65.51L49.29 64.574ZM62.106 76.454C62.232 77.246 61.656 78.218 61.26 78.614C60.666 79.01 60.36 79.64 60.666 80.306C61.026 81.062 62.142 81.134 62.574 80.594C63.15 79.838 63.168 78.38 62.34 76.454H62.106ZM63.51 76.292C63.69 77.264 63.762 78.542 63.528 79.676C64.914 81.458 67.326 78.524 63.726 76.238L63.51 76.292ZM65.634 75.662C66.012 76.472 66.264 77.642 66.138 78.668C67.632 80.27 69.828 77.192 65.832 75.572L65.634 75.662ZM70.692 79.658V74.834H73.986V79.658H70.692ZM75.57 64.808L74.382 65.924H67.416L67.578 66.428H69.954C69.9 68.408 69.684 70.676 67.506 72.8C67.11 72.35 66.462 71.936 65.472 71.594L65.292 71.684C65.544 72.206 65.778 72.854 65.94 73.52C64.698 73.61 63.51 73.682 62.556 73.736C64.446 72.512 66.606 70.64 67.686 69.29C68.046 69.38 68.28 69.272 68.388 69.128L65.868 67.364C65.616 68.03 65.148 68.876 64.59 69.74C63.69 69.758 62.826 69.758 62.124 69.758C63.384 68.84 64.806 67.4 65.634 66.32C65.958 66.338 66.174 66.23 66.246 66.068L63.42 64.646C63.132 66.05 62.016 68.66 61.188 69.452C61.008 69.578 60.594 69.686 60.594 69.686L61.638 72.134C61.818 72.062 61.98 71.918 62.106 71.702C62.682 71.45 63.24 71.216 63.744 70.982C62.916 72.08 62.016 73.07 61.296 73.556C61.08 73.7 60.558 73.808 60.558 73.808L61.818 76.418C62.052 76.292 62.25 76.058 62.394 75.698C63.852 75.104 65.13 74.492 66.03 74.024C66.084 74.276 66.102 74.51 66.102 74.744C67.272 75.842 68.676 74.456 67.722 73.07C71.43 71.324 72.366 68.786 72.618 66.428H74.562C74.454 69.2 74.256 70.622 73.896 70.928C73.77 71.036 73.626 71.072 73.374 71.072C73.032 71.072 72.078 71.036 71.484 70.982L71.466 71.198C72.15 71.36 72.636 71.612 72.906 71.936C73.176 72.242 73.23 72.782 73.23 73.448C73.95 73.448 74.508 73.358 74.958 73.16L73.914 74.33H70.872L68.28 73.358V81.674H68.712C69.954 81.674 70.692 81.278 70.692 81.116V80.162H73.986V81.458H74.454C75.75 81.458 76.524 81.026 76.524 80.936V75.014C76.938 74.942 77.118 74.816 77.226 74.654L75.156 73.07C75.282 72.998 75.408 72.926 75.516 72.836C76.416 72.17 76.722 70.622 76.866 66.806C77.244 66.752 77.46 66.644 77.586 66.482L75.57 64.808Z" fill="#573605"/>
</svg>
