<svg width="70" height="70" viewBox="0 0 70 70" fill="none" xmlns="http://www.w3.org/2000/svg">
<path d="M70 34.8295C70 44.4475 66.0825 53.1548 59.7487 59.4578C53.415 65.7607 44.665 69.6591 35 69.6591C25.335 69.6591 16.585 65.7607 10.2513 59.4578C3.91751 53.1548 0 44.4475 0 34.8295C0 25.2116 3.91751 16.5042 10.2513 10.2013C16.585 3.89843 25.335 0 35 0C44.665 0 53.415 3.89843 59.7487 10.2013C66.0825 16.5042 70 25.2116 70 34.8295Z" fill="white"/>
<path d="M41.4769 32.9549C44.5272 32.0095 45.1224 28.2786 42.8063 24.6218C40.4901 20.9649 36.1398 18.7669 33.0895 19.7124C30.0392 20.6578 29.444 24.3887 31.7601 28.0455C34.0762 31.7023 38.4266 33.9004 41.4769 32.9549Z" stroke="#E30413" stroke-width="6.1282" stroke-miterlimit="10" stroke-linecap="round" stroke-linejoin="round"/>
<path d="M22 24.5792C23.3488 22.547 26.4883 21.848 28.9976 23.2405" stroke="#E30413" stroke-width="6" stroke-miterlimit="10" stroke-linecap="round" stroke-linejoin="round"/>
<path d="M23.814 52.3125C23.912 53.0825 23.604 53.9785 23.268 54.3425C22.974 54.5665 22.82 54.9025 22.988 55.2105C23.198 55.5185 23.73 55.4345 23.982 55.1545C24.332 54.6925 24.5 53.6425 24.066 52.3125H23.814ZM27.566 46.7125H24.08L24.192 47.1185H29.134C29.33 47.1185 29.47 47.0485 29.512 46.8945C29.022 46.4465 28.266 45.8585 28.266 45.8585L27.566 46.7125ZM27.692 48.4625V50.1985H25.606V48.4625H27.692ZM25.606 50.6045H27.692V51.1365H27.902C28.28 51.1365 28.882 50.9125 28.896 50.8145V48.6445C29.134 48.6025 29.344 48.4905 29.414 48.3925L28.154 47.4405L27.566 48.0565H25.662L24.43 47.5525V51.4865H24.598C25.074 51.4865 25.606 51.2205 25.606 51.1225V50.6045ZM26.208 51.4165C26.572 51.9765 26.95 52.8865 26.936 53.6005C27.79 54.4545 28.896 52.6065 26.376 51.3185L26.208 51.4165ZM28.812 53.1525H28.644C28.476 53.8385 28.336 54.4545 28.224 54.6505C28.154 54.7765 28.112 54.8045 27.986 54.8045C27.86 54.8185 27.552 54.8185 27.132 54.8185H26.236C25.886 54.8185 25.844 54.7765 25.844 54.6085V52.3125C26.096 52.2705 26.236 52.1445 26.25 51.9625L24.808 51.8225V54.8745C24.808 55.5745 24.976 55.8125 25.984 55.8125H27.062C28.798 55.8125 29.232 55.5885 29.232 55.1545C29.232 54.9585 29.162 54.8185 28.854 54.7065L28.812 53.1525ZM28.812 52.2285C29.232 52.9285 29.666 53.9925 29.68 54.8605C30.604 55.7285 31.654 53.6985 28.994 52.1445L28.812 52.2285ZM34.412 52.3265L34.244 52.2985C34.034 52.8865 33.74 53.5585 33.558 53.9085C33.432 54.1885 33.348 54.1885 33.152 53.9505C32.298 53.0125 31.738 51.7525 31.374 50.3105C32.228 49.5125 32.942 48.5045 33.516 47.2165C33.824 47.2585 33.992 47.1465 34.062 46.9785L32.368 46.3065C32.074 47.3285 31.64 48.2525 31.122 49.0505C30.926 47.9025 30.828 46.6705 30.8 45.4525H34.146C34.328 45.4525 34.468 45.3825 34.51 45.2285C34.062 44.7805 33.32 44.1505 33.32 44.1505L32.662 45.0465H30.8C30.786 44.5985 30.786 44.1645 30.8 43.7165C31.15 43.6605 31.276 43.5205 31.304 43.3525C31.584 43.6465 31.878 44.1085 31.948 44.5285C32.788 45.2005 33.782 43.6605 31.402 43.1985L31.262 43.2965L31.29 43.3245L29.47 43.1285C29.47 43.7865 29.484 44.4165 29.498 45.0465H23.94L22.54 44.4865V48.0845C22.54 50.5625 22.47 53.4605 21.42 55.7985L21.602 55.9245C23.632 53.6845 23.73 50.3665 23.73 48.0845V45.4525H29.526C29.596 47.1885 29.778 48.8405 30.114 50.3665C29.498 51.0245 28.812 51.5705 28.112 51.9905L28.252 52.1725C28.98 51.9065 29.68 51.5705 30.296 51.1365C30.73 52.7045 31.374 54.0765 32.298 55.1965C32.802 55.8265 33.782 56.4425 34.342 55.9805C34.566 55.8125 34.496 55.4065 34.09 54.6365L34.412 52.3265ZM36.358 45.8585C36.442 46.8245 36.078 47.9305 35.728 48.3785C35.434 48.6585 35.322 49.0225 35.518 49.3165C35.784 49.6665 36.358 49.5545 36.624 49.1485C36.974 48.5885 37.114 47.3845 36.596 45.8725L36.358 45.8585ZM37.254 43.1705V56.1905H37.506C37.982 56.1905 38.528 55.9245 38.528 55.7705V43.7585C38.892 43.7025 39.004 43.5625 39.032 43.3665L37.254 43.1705ZM38.584 45.7465C38.92 46.3345 39.256 47.2445 39.242 47.9585C40.096 48.8125 41.188 46.9785 38.766 45.6765L38.584 45.7465ZM42.14 52.7885C42.154 52.5785 42.154 52.3545 42.154 52.1585V51.5845H45.85V52.7885H42.14ZM45.85 49.9745V51.1785H42.154V49.9745H45.85ZM45.71 49.5685H42.378L40.908 49.0085V52.1725C40.908 53.6285 40.81 55.0285 39.704 56.1065L39.83 56.2605C41.468 55.4765 41.958 54.3285 42.098 53.1945H45.85V54.3705C45.85 54.5525 45.794 54.6365 45.584 54.6365C45.318 54.6365 44.128 54.5525 44.128 54.5525V54.7625C44.702 54.8465 44.982 54.9865 45.164 55.1825C45.332 55.3785 45.402 55.6725 45.444 56.0645C46.928 55.9245 47.11 55.4065 47.11 54.5105V50.2125C47.404 50.1565 47.614 50.0305 47.698 49.9185L46.312 48.8825L45.71 49.5685ZM46.508 48.1685H44.59V46.8665H47.418C47.614 46.8665 47.74 46.7965 47.782 46.6425C47.292 46.1945 46.508 45.6065 46.508 45.6065L45.822 46.4605H44.59V45.2425H47.838C48.02 45.2425 48.16 45.1725 48.188 45.0185C47.698 44.5425 46.844 43.8845 46.844 43.8845L46.102 44.8365H44.59V43.6885C44.926 43.6325 45.024 43.5065 45.052 43.3245L43.316 43.1565V44.8365H40.25L40.348 45.2425H43.316V46.4605H40.768L40.88 46.8665H43.316V48.1685H39.886L39.998 48.5745H48.244C48.454 48.5745 48.594 48.5045 48.622 48.3505C48.104 47.8745 47.264 47.2165 47.264 47.2165L46.508 48.1685Z" fill="#573605"/>
<path d="M41.4769 32.9549C44.5272 32.0095 45.1224 28.2786 42.8063 24.6218C40.4901 20.9649 36.1398 18.7669 33.0895 19.7124C30.0392 20.6578 29.444 24.3887 31.7601 28.0455C34.0762 31.7023 38.4266 33.9004 41.4769 32.9549Z" stroke="#E30413" stroke-width="6.1282" stroke-miterlimit="10" stroke-linecap="round" stroke-linejoin="round"/>
<path d="M22 24.5792C23.3488 22.547 26.4883 21.848 28.9976 23.2405" stroke="#E30413" stroke-width="6" stroke-miterlimit="10" stroke-linecap="round" stroke-linejoin="round"/>
<path d="M23.814 52.3125C23.912 53.0825 23.604 53.9785 23.268 54.3425C22.974 54.5665 22.82 54.9025 22.988 55.2105C23.198 55.5185 23.73 55.4345 23.982 55.1545C24.332 54.6925 24.5 53.6425 24.066 52.3125H23.814ZM27.566 46.7125H24.08L24.192 47.1185H29.134C29.33 47.1185 29.47 47.0485 29.512 46.8945C29.022 46.4465 28.266 45.8585 28.266 45.8585L27.566 46.7125ZM27.692 48.4625V50.1985H25.606V48.4625H27.692ZM25.606 50.6045H27.692V51.1365H27.902C28.28 51.1365 28.882 50.9125 28.896 50.8145V48.6445C29.134 48.6025 29.344 48.4905 29.414 48.3925L28.154 47.4405L27.566 48.0565H25.662L24.43 47.5525V51.4865H24.598C25.074 51.4865 25.606 51.2205 25.606 51.1225V50.6045ZM26.208 51.4165C26.572 51.9765 26.95 52.8865 26.936 53.6005C27.79 54.4545 28.896 52.6065 26.376 51.3185L26.208 51.4165ZM28.812 53.1525H28.644C28.476 53.8385 28.336 54.4545 28.224 54.6505C28.154 54.7765 28.112 54.8045 27.986 54.8045C27.86 54.8185 27.552 54.8185 27.132 54.8185H26.236C25.886 54.8185 25.844 54.7765 25.844 54.6085V52.3125C26.096 52.2705 26.236 52.1445 26.25 51.9625L24.808 51.8225V54.8745C24.808 55.5745 24.976 55.8125 25.984 55.8125H27.062C28.798 55.8125 29.232 55.5885 29.232 55.1545C29.232 54.9585 29.162 54.8185 28.854 54.7065L28.812 53.1525ZM28.812 52.2285C29.232 52.9285 29.666 53.9925 29.68 54.8605C30.604 55.7285 31.654 53.6985 28.994 52.1445L28.812 52.2285ZM34.412 52.3265L34.244 52.2985C34.034 52.8865 33.74 53.5585 33.558 53.9085C33.432 54.1885 33.348 54.1885 33.152 53.9505C32.298 53.0125 31.738 51.7525 31.374 50.3105C32.228 49.5125 32.942 48.5045 33.516 47.2165C33.824 47.2585 33.992 47.1465 34.062 46.9785L32.368 46.3065C32.074 47.3285 31.64 48.2525 31.122 49.0505C30.926 47.9025 30.828 46.6705 30.8 45.4525H34.146C34.328 45.4525 34.468 45.3825 34.51 45.2285C34.062 44.7805 33.32 44.1505 33.32 44.1505L32.662 45.0465H30.8C30.786 44.5985 30.786 44.1645 30.8 43.7165C31.15 43.6605 31.276 43.5205 31.304 43.3525C31.584 43.6465 31.878 44.1085 31.948 44.5285C32.788 45.2005 33.782 43.6605 31.402 43.1985L31.262 43.2965L31.29 43.3245L29.47 43.1285C29.47 43.7865 29.484 44.4165 29.498 45.0465H23.94L22.54 44.4865V48.0845C22.54 50.5625 22.47 53.4605 21.42 55.7985L21.602 55.9245C23.632 53.6845 23.73 50.3665 23.73 48.0845V45.4525H29.526C29.596 47.1885 29.778 48.8405 30.114 50.3665C29.498 51.0245 28.812 51.5705 28.112 51.9905L28.252 52.1725C28.98 51.9065 29.68 51.5705 30.296 51.1365C30.73 52.7045 31.374 54.0765 32.298 55.1965C32.802 55.8265 33.782 56.4425 34.342 55.9805C34.566 55.8125 34.496 55.4065 34.09 54.6365L34.412 52.3265ZM36.358 45.8585C36.442 46.8245 36.078 47.9305 35.728 48.3785C35.434 48.6585 35.322 49.0225 35.518 49.3165C35.784 49.6665 36.358 49.5545 36.624 49.1485C36.974 48.5885 37.114 47.3845 36.596 45.8725L36.358 45.8585ZM37.254 43.1705V56.1905H37.506C37.982 56.1905 38.528 55.9245 38.528 55.7705V43.7585C38.892 43.7025 39.004 43.5625 39.032 43.3665L37.254 43.1705ZM38.584 45.7465C38.92 46.3345 39.256 47.2445 39.242 47.9585C40.096 48.8125 41.188 46.9785 38.766 45.6765L38.584 45.7465ZM42.14 52.7885C42.154 52.5785 42.154 52.3545 42.154 52.1585V51.5845H45.85V52.7885H42.14ZM45.85 49.9745V51.1785H42.154V49.9745H45.85ZM45.71 49.5685H42.378L40.908 49.0085V52.1725C40.908 53.6285 40.81 55.0285 39.704 56.1065L39.83 56.2605C41.468 55.4765 41.958 54.3285 42.098 53.1945H45.85V54.3705C45.85 54.5525 45.794 54.6365 45.584 54.6365C45.318 54.6365 44.128 54.5525 44.128 54.5525V54.7625C44.702 54.8465 44.982 54.9865 45.164 55.1825C45.332 55.3785 45.402 55.6725 45.444 56.0645C46.928 55.9245 47.11 55.4065 47.11 54.5105V50.2125C47.404 50.1565 47.614 50.0305 47.698 49.9185L46.312 48.8825L45.71 49.5685ZM46.508 48.1685H44.59V46.8665H47.418C47.614 46.8665 47.74 46.7965 47.782 46.6425C47.292 46.1945 46.508 45.6065 46.508 45.6065L45.822 46.4605H44.59V45.2425H47.838C48.02 45.2425 48.16 45.1725 48.188 45.0185C47.698 44.5425 46.844 43.8845 46.844 43.8845L46.102 44.8365H44.59V43.6885C44.926 43.6325 45.024 43.5065 45.052 43.3245L43.316 43.1565V44.8365H40.25L40.348 45.2425H43.316V46.4605H40.768L40.88 46.8665H43.316V48.1685H39.886L39.998 48.5745H48.244C48.454 48.5745 48.594 48.5045 48.622 48.3505C48.104 47.8745 47.264 47.2165 47.264 47.2165L46.508 48.1685Z" fill="#573605"/>
</svg>
