<svg width="70" height="70" viewBox="0 0 70 70" fill="none" xmlns="http://www.w3.org/2000/svg">
<path d="M70 34.8295C70 44.4474 66.0825 53.1548 59.7487 59.4577C53.415 65.7606 44.665 69.6591 35 69.6591C25.335 69.6591 16.585 65.7606 10.2513 59.4577C3.91751 53.1548 0 44.4474 0 34.8295C0 25.2116 3.91751 16.5042 10.2513 10.2013C16.585 3.89843 25.335 0 35 0C44.665 0 53.415 3.89843 59.7487 10.2013C66.0825 16.5042 70 25.2116 70 34.8295Z" fill="#573605"/>
<path d="M40.7737 37.9757C37.9652 37.9757 35.6816 35.6922 35.6816 32.8837V18.7767C35.6816 15.9682 37.9652 13.6847 40.7737 13.6847H49.2263C52.0347 13.6847 54.3183 15.9682 54.3183 18.7767V32.8837C54.3183 35.6922 52.0347 37.9757 49.2263 37.9757H40.7737Z" fill="white"/>
<path d="M49.2263 14.3628C51.653 14.3628 53.6367 16.3465 53.6367 18.7732V32.8802C53.6367 35.3069 51.653 37.2906 49.2263 37.2906H40.7737C38.347 37.2906 36.3633 35.3069 36.3633 32.8802V18.7732C36.3633 16.3465 38.347 14.3628 40.7737 14.3628H49.2263V14.3628ZM49.2263 12.9995H40.7737C37.5903 12.9995 35 15.5898 35 18.7732V32.8802C35 36.0636 37.5903 38.6539 40.7737 38.6539H49.2263C52.4097 38.6539 55 36.0636 55 32.8802V18.7732C55 15.5898 52.4097 12.9995 49.2263 12.9995Z" fill="#553711"/>
<path d="M41.6473 20.2511V23.6765" stroke="#E30413" stroke-miterlimit="10" stroke-linecap="round" stroke-linejoin="round"/>
<path d="M44.6056 23.6763C45.2305 23.6763 45.7371 22.9103 45.7371 21.9653C45.7371 21.0204 45.2305 20.2544 44.6056 20.2544C43.9806 20.2544 43.474 21.0204 43.474 21.9653C43.474 22.9103 43.9806 23.6763 44.6056 23.6763Z" stroke="#E30413" stroke-miterlimit="10" stroke-linecap="round" stroke-linejoin="round"/>
<path d="M47.8298 23.6763C48.4547 23.6763 48.9614 22.9103 48.9614 21.9653C48.9614 21.0204 48.4547 20.2544 47.8298 20.2544C47.2049 20.2544 46.6982 21.0204 46.6982 21.9653C46.6982 22.9103 47.2049 23.6763 47.8298 23.6763Z" stroke="#E30413" stroke-miterlimit="10" stroke-linecap="round" stroke-linejoin="round"/>
<path d="M44.292 25.9903C43.6069 26.6004 42.8809 27.1662 42.1209 27.6808C41.8959 27.8342 42.1073 28.2023 42.3356 28.0489C43.1263 27.5138 43.8796 26.9242 44.5919 26.2902C44.7964 26.1096 44.4965 25.8097 44.292 25.9903Z" fill="#E30413"/>
<path d="M45.7203 26.5629C46.5349 27.0094 47.3495 27.4558 48.1675 27.9023C48.4095 28.0353 48.6242 27.6672 48.3822 27.5342C47.5676 27.0878 46.753 26.6413 45.935 26.1948C45.693 26.0653 45.4783 26.4334 45.7203 26.5629Z" fill="#E30413"/>
<path d="M43.9684 28.581C44.5273 28.581 45.0829 28.581 45.6418 28.581C45.8941 28.581 46.1497 28.5673 46.3985 28.5844C46.5791 28.598 46.7223 28.6696 46.7529 28.8604C46.7802 29.0343 46.7325 29.2149 46.6746 29.3785C46.5996 29.5966 46.5007 29.8079 46.3917 30.0124C46.2826 30.2238 46.1599 30.4283 46.0202 30.6191C46.0065 30.643 45.9895 30.6634 45.9724 30.6839C45.9418 30.7077 45.9486 30.718 45.9997 30.7112C45.9895 30.6839 45.9622 30.6566 45.9486 30.6259C45.8975 30.5032 45.8634 30.3942 45.7748 30.2919C45.5975 30.084 45.2942 30.3874 45.4748 30.5919C45.5362 30.6634 45.5464 30.7827 45.5941 30.8679C45.6418 30.9566 45.7168 31.0384 45.8054 31.0861C46.0304 31.202 46.2315 31.052 46.361 30.8747C46.6473 30.4828 46.8722 30.0465 47.0461 29.5966C47.179 29.2592 47.2744 28.8264 47.0665 28.4957C46.8007 28.0765 46.2417 28.1515 45.8157 28.1515C45.1988 28.1515 44.5853 28.1515 43.9684 28.1515C43.6957 28.1549 43.6923 28.581 43.9684 28.581Z" fill="#E30413"/>
<path d="M44.868 28.4037C44.5408 29.2899 43.9852 30.0738 43.2661 30.6839C43.1774 30.7589 43.1877 30.9088 43.2661 30.9838C43.3513 31.069 43.4808 31.0588 43.566 30.9838C44.3397 30.326 44.9259 29.4705 45.277 28.5162C45.3179 28.4071 45.2327 28.2844 45.127 28.2538C45.0111 28.2231 44.9089 28.2947 44.868 28.4037Z" fill="#E30413"/>
<path d="M28.7549 33.643C28.298 33.643 27.8589 33.4516 27.5525 33.1146L15.9417 20.457C15.3341 19.7933 15.3775 18.7593 16.0412 18.1517L17.3662 16.9365C17.6675 16.6608 18.0581 16.5076 18.4691 16.5076C18.9261 16.5076 19.3652 16.6991 19.6715 17.0361L31.2824 29.6962C31.89 30.3599 31.8466 31.3939 31.1828 32.0015L29.8578 33.2167C29.5566 33.4924 29.166 33.643 28.7549 33.643Z" fill="#CA9F70"/>
<path d="M18.4665 17.0207C18.7703 17.0207 19.0741 17.1432 19.2937 17.3832L30.9045 30.0433C31.3207 30.4977 31.29 31.21 30.8356 31.6287L29.5106 32.8439C29.2962 33.0405 29.0255 33.1375 28.7524 33.1375C28.4486 33.1375 28.1448 33.0149 27.9252 32.775L16.317 20.1123C15.9008 19.6579 15.9315 18.9456 16.3859 18.5269L17.7109 17.3117C17.9253 17.1177 18.1959 17.0207 18.4665 17.0207ZM18.4665 15.9995C17.9279 15.9995 17.4147 16.1986 17.019 16.5612L15.694 17.7764C15.2728 18.1619 15.0277 18.6903 15.0022 19.2622C14.9767 19.834 15.1758 20.3829 15.5613 20.8016L27.1721 33.4617C27.5755 33.9008 28.1524 34.1536 28.7524 34.1536C29.2911 34.1536 29.8042 33.9544 30.1999 33.5919L31.5249 32.3767C31.9461 31.9912 32.1912 31.4627 32.2167 30.8909C32.2423 30.319 32.0431 29.7701 31.6576 29.3515L20.0468 16.6914C19.6435 16.2523 19.0665 15.9995 18.4665 15.9995Z" fill="#543714"/>
<path d="M33.2455 36.7623C33.0667 36.7623 32.8829 36.7138 32.7042 36.6142C32.2396 36.3641 31.7979 36.3539 31.2873 36.3411C30.4934 36.3232 29.5922 36.3028 28.6782 35.3071C27.9685 34.5336 27.5294 33.5865 27.44 32.647C27.3481 31.6539 27.6519 30.7782 28.3004 30.1859C28.8008 29.7264 29.4569 29.4839 30.1947 29.4839C31.3103 29.4839 32.4974 30.0532 33.3705 31.0029C34.4683 32.2002 34.7721 34.7991 34.2411 36.0066C33.9501 36.6628 33.4905 36.7623 33.2455 36.7623Z" fill="#E30413"/>
<path d="M30.1922 29.9949C31.1317 29.9949 32.1809 30.4672 32.9902 31.3505C34.2437 32.7163 34.2845 36.2522 33.2429 36.2522C33.151 36.2522 33.0515 36.2241 32.9442 36.1654C31.5682 35.4199 30.3632 36.3926 29.051 34.9604C27.7362 33.5282 27.555 31.5573 28.6425 30.5591C29.0612 30.1787 29.605 29.9949 30.1922 29.9949ZM30.1922 28.9737C29.3242 28.9737 28.5481 29.2622 27.9532 29.8085C27.1976 30.5029 26.8248 31.5522 26.932 32.6933C27.0291 33.7452 27.5167 34.797 28.3004 35.6522C29.3625 36.8087 30.4679 36.8342 31.2746 36.8521C31.7393 36.8623 32.1043 36.87 32.4617 37.064C32.717 37.2019 32.9825 37.2733 33.2455 37.2733C33.5442 37.2733 34.2871 37.1712 34.7058 36.2139C35.3083 34.8429 34.9841 32.0092 33.7433 30.6586C32.7758 29.6043 31.4482 28.9737 30.1922 28.9737Z" fill="#543714"/>
<path d="M29.2858 35.7028C29.1607 35.7028 29.0407 35.6569 28.9463 35.5726C28.8493 35.4858 28.7625 35.399 28.6757 35.3071C27.9659 34.5336 27.5268 33.5865 27.4375 32.647C27.3456 31.6539 27.6494 30.7782 28.2978 30.1859C28.7982 29.7264 29.4543 29.4839 30.1921 29.4839C31.3078 29.4839 32.4949 30.0532 33.368 31.0029C33.442 31.0846 33.5186 31.179 33.5977 31.2913C33.6922 31.4266 33.7177 31.5977 33.6641 31.7534C33.6105 31.9092 33.4829 32.0291 33.3246 32.0751C32.4693 32.3253 31.7341 32.7338 31.1367 33.2878C30.5419 33.8392 30.0798 34.5387 29.7632 35.371C29.7045 35.5267 29.5692 35.6441 29.4058 35.685C29.3675 35.6977 29.3267 35.7028 29.2858 35.7028Z" fill="white"/>
<path d="M30.1922 29.9949C31.1317 29.9949 32.1809 30.4672 32.9902 31.3505C33.0566 31.4245 33.1204 31.5062 33.1817 31.5905C32.2703 31.8585 31.4533 32.3027 30.7896 32.918C30.1283 33.5307 29.6229 34.3094 29.2859 35.1927C29.2093 35.1238 29.1301 35.0472 29.051 34.9629C27.7362 33.5307 27.555 31.5598 28.6425 30.5616C29.0612 30.1787 29.605 29.9949 30.1922 29.9949ZM30.1922 28.9737C29.3242 28.9737 28.5481 29.2622 27.9532 29.8085C27.1976 30.5029 26.8248 31.5522 26.932 32.6933C27.0291 33.7452 27.5167 34.797 28.3004 35.6522C28.3974 35.7594 28.4996 35.8565 28.6068 35.956C28.7957 36.1245 29.0382 36.2139 29.2859 36.2139C29.3676 36.2139 29.4467 36.2037 29.5284 36.1858C29.8552 36.1066 30.1207 35.8718 30.2407 35.5578C30.5292 34.7995 30.9478 34.1638 31.484 33.666C32.0226 33.1656 32.6915 32.798 33.4702 32.5682C33.7867 32.4763 34.0395 32.2338 34.1467 31.9224C34.2539 31.6109 34.2054 31.2662 34.0139 30.9956C33.922 30.8654 33.8327 30.7557 33.7433 30.6561C32.7758 29.6043 31.4482 28.9737 30.1922 28.9737Z" fill="#543714"/>
<path d="M70 34.8295C70 44.4474 66.0825 53.1548 59.7487 59.4577C53.415 65.7606 44.665 69.6591 35 69.6591C25.335 69.6591 16.585 65.7606 10.2513 59.4577C3.91751 53.1548 0 44.4474 0 34.8295C0 25.2116 3.91751 16.5042 10.2513 10.2013C16.585 3.89843 25.335 0 35 0C44.665 0 53.415 3.89843 59.7487 10.2013C66.0825 16.5042 70 25.2116 70 34.8295Z" fill="#573605"/>
<path d="M29.67 46.816C30.174 46.592 30.706 46.284 31.168 45.934C31.392 46.144 31.588 46.354 31.7 46.536C32.204 46.774 32.47 46.116 31.672 45.528C31.882 45.346 32.05 45.164 32.19 44.982C32.428 45.038 32.596 45.01 32.666 44.898L31.658 44.38C31.504 44.646 31.308 44.926 31.084 45.192C30.79 45.08 30.44 44.968 30.02 44.884L29.894 45.024C30.16 45.164 30.454 45.36 30.734 45.57C30.37 45.962 29.936 46.326 29.516 46.606L29.67 46.816ZM31.882 46.76C31.728 47.04 31.518 47.334 31.266 47.614C30.944 47.46 30.566 47.32 30.076 47.222L29.95 47.348C30.244 47.516 30.58 47.754 30.888 48.006C30.468 48.412 29.992 48.79 29.516 49.084L29.656 49.308C30.216 49.07 30.79 48.748 31.294 48.398C31.504 48.636 31.686 48.874 31.784 49.112C32.344 49.392 32.638 48.65 31.826 47.978C32.064 47.768 32.26 47.558 32.428 47.348C32.666 47.418 32.806 47.39 32.89 47.264L31.882 46.76ZM35.284 53.424H31.476V52.892C31.784 52.85 31.91 52.752 31.952 52.542H31.938C32.82 52.276 33.73 51.884 34.388 51.576C34.668 51.562 34.85 51.534 34.962 51.436L33.898 50.47L33.282 51.044H27.262L27.388 51.464H32.96C32.54 51.8 31.994 52.192 31.476 52.486L30.566 52.388V53.424H24.798L24.924 53.83H30.566V55.692C30.566 55.902 30.496 55.972 30.258 55.972C29.95 55.972 28.41 55.874 28.41 55.874V56.084C29.082 56.168 29.446 56.294 29.656 56.448C29.866 56.588 29.95 56.826 29.992 57.106C31.322 56.98 31.476 56.504 31.476 55.762V53.83H36.81C37.006 53.83 37.146 53.76 37.188 53.606C36.712 53.158 35.956 52.584 35.956 52.584L35.284 53.424ZM36.334 48.832L35.76 49.434H35.382L35.662 45.5C35.9 45.472 36.012 45.444 36.11 45.332L35.13 44.506L34.682 45.01H32.806L32.932 45.43H34.78L34.71 46.494H32.918L33.044 46.9H34.682L34.612 47.964H32.89L33.016 48.384H34.584L34.514 49.434H27.444L27.402 48.384H29.208C29.376 48.384 29.502 48.314 29.544 48.16C29.222 47.824 28.704 47.404 28.704 47.404L28.242 47.964H27.388L27.346 46.9H29.124C29.292 46.9 29.418 46.83 29.46 46.676C29.152 46.354 28.634 45.962 28.634 45.962L28.2 46.494H27.318L27.276 45.458C28.004 45.332 28.76 45.136 29.208 44.996C29.39 45.066 29.53 45.052 29.6 44.968L28.69 44.24C28.382 44.45 27.892 44.758 27.402 45.024L26.408 44.758L26.59 49.434H26.128C26.1 49.238 26.058 49.028 26.002 48.818L25.806 48.832C25.778 49.714 25.274 50.33 24.952 50.512C24.126 50.988 24.672 51.814 25.442 51.422C25.918 51.17 26.17 50.596 26.156 49.84H35.76C35.592 50.26 35.368 50.764 35.214 51.044L35.396 51.156C35.858 50.862 36.516 50.358 36.88 49.994C37.16 49.98 37.314 49.966 37.398 49.868L36.334 48.832ZM40.38 44.716C40.926 45.192 41.542 46.032 41.654 46.704C42.508 47.348 43.222 45.514 40.534 44.604L40.38 44.716ZM38.686 56.728C40.142 56.336 41.99 55.524 43.292 54.404C43.558 54.502 43.698 54.46 43.81 54.334L42.718 53.522C41.542 54.824 39.918 55.888 38.602 56.476L38.686 56.728ZM46.12 54.026C47.912 54.838 49.298 55.762 50.026 56.532C50.992 57.33 52.532 55.356 46.204 53.816L46.12 54.026ZM43.488 49.154C43.894 48.888 43.866 47.88 42.186 47.334H47.002C46.75 47.894 46.372 48.608 46.036 49.154H43.488ZM49.508 46.914H47.506C48.178 46.424 48.85 45.78 49.298 45.262C49.592 45.304 49.774 45.22 49.858 45.052L48.57 44.562C48.22 45.304 47.618 46.242 47.114 46.914H46.596V44.786C46.904 44.73 47.03 44.604 47.058 44.422L45.742 44.282V46.914H44.3V44.772C44.608 44.73 44.734 44.604 44.748 44.422L43.446 44.282V46.914H38.714L38.84 47.334H42.13L41.99 47.432C42.41 47.81 42.858 48.524 42.914 49.07C42.956 49.098 42.998 49.126 43.04 49.154H39.582L39.694 49.574H44.51V50.876H40.282L40.394 51.296H44.51V52.654H38.91L39.036 53.074H44.51V57.078H44.664C45.112 57.078 45.42 56.896 45.42 56.826V53.074H50.81C51.006 53.074 51.146 53.004 51.188 52.85C50.726 52.416 49.998 51.856 49.998 51.856L49.354 52.654H45.42V51.296H49.34C49.522 51.296 49.662 51.226 49.704 51.072C49.284 50.666 48.612 50.162 48.612 50.162L48.024 50.876H45.42V49.574H50.236C50.432 49.574 50.572 49.504 50.6 49.35C50.152 48.93 49.452 48.398 49.452 48.398L48.822 49.154H46.54C47.016 48.776 47.464 48.314 47.772 47.922C48.08 47.936 48.262 47.838 48.304 47.684L47.24 47.334H50.964C51.16 47.334 51.3 47.264 51.342 47.11C50.88 46.676 50.152 46.144 50.152 46.144L49.508 46.914Z" fill="#FFFAE7"/>
<path d="M40.7737 37.9757C37.9652 37.9757 35.6816 35.6922 35.6816 32.8837V18.7767C35.6816 15.9682 37.9652 13.6847 40.7737 13.6847H49.2263C52.0347 13.6847 54.3183 15.9682 54.3183 18.7767V32.8837C54.3183 35.6922 52.0347 37.9757 49.2263 37.9757H40.7737Z" fill="white"/>
<path d="M49.2263 14.3628C51.653 14.3628 53.6367 16.3465 53.6367 18.7732V32.8802C53.6367 35.3069 51.653 37.2906 49.2263 37.2906H40.7737C38.347 37.2906 36.3633 35.3069 36.3633 32.8802V18.7732C36.3633 16.3465 38.347 14.3628 40.7737 14.3628H49.2263V14.3628ZM49.2263 12.9995H40.7737C37.5903 12.9995 35 15.5898 35 18.7732V32.8802C35 36.0636 37.5903 38.6539 40.7737 38.6539H49.2263C52.4097 38.6539 55 36.0636 55 32.8802V18.7732C55 15.5898 52.4097 12.9995 49.2263 12.9995Z" fill="#553711"/>
<path d="M41.6473 20.2511V23.6765" stroke="#E30413" stroke-miterlimit="10" stroke-linecap="round" stroke-linejoin="round"/>
<path d="M44.6056 23.6763C45.2305 23.6763 45.7371 22.9103 45.7371 21.9653C45.7371 21.0204 45.2305 20.2544 44.6056 20.2544C43.9806 20.2544 43.474 21.0204 43.474 21.9653C43.474 22.9103 43.9806 23.6763 44.6056 23.6763Z" stroke="#E30413" stroke-miterlimit="10" stroke-linecap="round" stroke-linejoin="round"/>
<path d="M47.8298 23.6763C48.4547 23.6763 48.9614 22.9103 48.9614 21.9653C48.9614 21.0204 48.4547 20.2544 47.8298 20.2544C47.2049 20.2544 46.6982 21.0204 46.6982 21.9653C46.6982 22.9103 47.2049 23.6763 47.8298 23.6763Z" stroke="#E30413" stroke-miterlimit="10" stroke-linecap="round" stroke-linejoin="round"/>
<path d="M44.292 25.9903C43.6069 26.6004 42.8809 27.1662 42.1209 27.6808C41.8959 27.8342 42.1073 28.2023 42.3356 28.0489C43.1263 27.5138 43.8796 26.9242 44.5919 26.2902C44.7964 26.1096 44.4965 25.8097 44.292 25.9903Z" fill="#E30413"/>
<path d="M45.7203 26.5629C46.5349 27.0094 47.3495 27.4558 48.1675 27.9023C48.4095 28.0353 48.6242 27.6672 48.3822 27.5342C47.5676 27.0878 46.753 26.6413 45.935 26.1948C45.693 26.0653 45.4783 26.4334 45.7203 26.5629Z" fill="#E30413"/>
<path d="M43.9684 28.581C44.5273 28.581 45.0829 28.581 45.6418 28.581C45.8941 28.581 46.1497 28.5673 46.3985 28.5844C46.5791 28.598 46.7223 28.6696 46.7529 28.8604C46.7802 29.0343 46.7325 29.2149 46.6746 29.3785C46.5996 29.5966 46.5007 29.8079 46.3917 30.0124C46.2826 30.2238 46.1599 30.4283 46.0202 30.6191C46.0065 30.643 45.9895 30.6634 45.9724 30.6839C45.9418 30.7077 45.9486 30.718 45.9997 30.7112C45.9895 30.6839 45.9622 30.6566 45.9486 30.6259C45.8975 30.5032 45.8634 30.3942 45.7748 30.2919C45.5975 30.084 45.2942 30.3874 45.4748 30.5919C45.5362 30.6634 45.5464 30.7827 45.5941 30.8679C45.6418 30.9566 45.7168 31.0384 45.8054 31.0861C46.0304 31.202 46.2315 31.052 46.361 30.8747C46.6473 30.4828 46.8722 30.0465 47.0461 29.5966C47.179 29.2592 47.2744 28.8264 47.0665 28.4957C46.8007 28.0765 46.2417 28.1515 45.8157 28.1515C45.1988 28.1515 44.5853 28.1515 43.9684 28.1515C43.6957 28.1549 43.6923 28.581 43.9684 28.581Z" fill="#E30413"/>
<path d="M44.868 28.4037C44.5408 29.2899 43.9852 30.0738 43.2661 30.6839C43.1774 30.7589 43.1877 30.9088 43.2661 30.9838C43.3513 31.069 43.4808 31.0588 43.566 30.9838C44.3397 30.326 44.9259 29.4705 45.277 28.5162C45.3179 28.4071 45.2327 28.2844 45.127 28.2538C45.0111 28.2231 44.9089 28.2947 44.868 28.4037Z" fill="#E30413"/>
<path d="M28.7549 33.643C28.298 33.643 27.8589 33.4516 27.5525 33.1146L15.9417 20.457C15.3341 19.7933 15.3775 18.7593 16.0412 18.1517L17.3662 16.9365C17.6675 16.6608 18.0581 16.5076 18.4691 16.5076C18.9261 16.5076 19.3652 16.6991 19.6715 17.0361L31.2824 29.6962C31.89 30.3599 31.8466 31.3939 31.1828 32.0015L29.8578 33.2167C29.5566 33.4924 29.166 33.643 28.7549 33.643Z" fill="#CA9F70"/>
<path d="M18.4665 17.0207C18.7703 17.0207 19.0741 17.1432 19.2937 17.3832L30.9045 30.0433C31.3207 30.4977 31.29 31.21 30.8356 31.6287L29.5106 32.8439C29.2962 33.0405 29.0255 33.1375 28.7524 33.1375C28.4486 33.1375 28.1448 33.0149 27.9252 32.775L16.317 20.1123C15.9008 19.6579 15.9315 18.9456 16.3859 18.5269L17.7109 17.3117C17.9253 17.1177 18.1959 17.0207 18.4665 17.0207ZM18.4665 15.9995C17.9279 15.9995 17.4147 16.1986 17.019 16.5612L15.694 17.7764C15.2728 18.1619 15.0277 18.6903 15.0022 19.2622C14.9767 19.834 15.1758 20.3829 15.5613 20.8016L27.1721 33.4617C27.5755 33.9008 28.1524 34.1536 28.7524 34.1536C29.2911 34.1536 29.8042 33.9544 30.1999 33.5919L31.5249 32.3767C31.9461 31.9912 32.1912 31.4627 32.2167 30.8909C32.2423 30.319 32.0431 29.7701 31.6576 29.3515L20.0468 16.6914C19.6435 16.2523 19.0665 15.9995 18.4665 15.9995Z" fill="#543714"/>
<path d="M33.2455 36.7623C33.0667 36.7623 32.8829 36.7138 32.7042 36.6142C32.2396 36.3641 31.7979 36.3539 31.2873 36.3411C30.4934 36.3232 29.5922 36.3028 28.6782 35.3071C27.9685 34.5336 27.5294 33.5865 27.44 32.647C27.3481 31.6539 27.6519 30.7782 28.3004 30.1859C28.8008 29.7264 29.4569 29.4839 30.1947 29.4839C31.3103 29.4839 32.4974 30.0532 33.3705 31.0029C34.4683 32.2002 34.7721 34.7991 34.2411 36.0066C33.9501 36.6628 33.4905 36.7623 33.2455 36.7623Z" fill="#E30413"/>
<path d="M30.1922 29.9949C31.1317 29.9949 32.1809 30.4672 32.9902 31.3505C34.2437 32.7163 34.2845 36.2522 33.2429 36.2522C33.151 36.2522 33.0515 36.2241 32.9442 36.1654C31.5682 35.4199 30.3632 36.3926 29.051 34.9604C27.7362 33.5282 27.555 31.5573 28.6425 30.5591C29.0612 30.1787 29.605 29.9949 30.1922 29.9949ZM30.1922 28.9737C29.3242 28.9737 28.5481 29.2622 27.9532 29.8085C27.1976 30.5029 26.8248 31.5522 26.932 32.6933C27.0291 33.7452 27.5167 34.797 28.3004 35.6522C29.3625 36.8087 30.4679 36.8342 31.2746 36.8521C31.7393 36.8623 32.1043 36.87 32.4617 37.064C32.717 37.2019 32.9825 37.2733 33.2455 37.2733C33.5442 37.2733 34.2871 37.1712 34.7058 36.2139C35.3083 34.8429 34.9841 32.0092 33.7433 30.6586C32.7758 29.6043 31.4482 28.9737 30.1922 28.9737Z" fill="#543714"/>
<path d="M29.2858 35.7028C29.1607 35.7028 29.0407 35.6569 28.9463 35.5726C28.8493 35.4858 28.7625 35.399 28.6757 35.3071C27.9659 34.5336 27.5268 33.5865 27.4375 32.647C27.3456 31.6539 27.6494 30.7782 28.2978 30.1859C28.7982 29.7264 29.4543 29.4839 30.1921 29.4839C31.3078 29.4839 32.4949 30.0532 33.368 31.0029C33.442 31.0846 33.5186 31.179 33.5977 31.2913C33.6922 31.4266 33.7177 31.5977 33.6641 31.7534C33.6105 31.9092 33.4829 32.0291 33.3246 32.0751C32.4693 32.3253 31.7341 32.7338 31.1367 33.2878C30.5419 33.8392 30.0798 34.5387 29.7632 35.371C29.7045 35.5267 29.5692 35.6441 29.4058 35.685C29.3675 35.6977 29.3267 35.7028 29.2858 35.7028Z" fill="white"/>
<path d="M30.1922 29.9949C31.1317 29.9949 32.1809 30.4672 32.9902 31.3505C33.0566 31.4245 33.1204 31.5062 33.1817 31.5905C32.2703 31.8585 31.4533 32.3027 30.7896 32.918C30.1283 33.5307 29.6229 34.3094 29.2859 35.1927C29.2093 35.1238 29.1301 35.0472 29.051 34.9629C27.7362 33.5307 27.555 31.5598 28.6425 30.5616C29.0612 30.1787 29.605 29.9949 30.1922 29.9949ZM30.1922 28.9737C29.3242 28.9737 28.5481 29.2622 27.9532 29.8085C27.1976 30.5029 26.8248 31.5522 26.932 32.6933C27.0291 33.7452 27.5167 34.797 28.3004 35.6522C28.3974 35.7594 28.4996 35.8565 28.6068 35.956C28.7957 36.1245 29.0382 36.2139 29.2859 36.2139C29.3676 36.2139 29.4467 36.2037 29.5284 36.1858C29.8552 36.1066 30.1207 35.8718 30.2407 35.5578C30.5292 34.7995 30.9478 34.1638 31.484 33.666C32.0226 33.1656 32.6915 32.798 33.4702 32.5682C33.7867 32.4763 34.0395 32.2338 34.1467 31.9224C34.2539 31.6109 34.2054 31.2662 34.0139 30.9956C33.922 30.8654 33.8327 30.7557 33.7433 30.6561C32.7758 29.6043 31.4482 28.9737 30.1922 28.9737Z" fill="#543714"/>
</svg>
