<svg width="70" height="70" viewBox="0 0 70 70" fill="none" xmlns="http://www.w3.org/2000/svg">
<path d="M70 34.8296C70 44.4475 66.0825 53.1549 59.7487 59.4578C53.415 65.7607 44.665 69.6591 35 69.6591C25.335 69.6591 16.585 65.7607 10.2513 59.4578C3.91751 53.1549 0 44.4475 0 34.8296C0 25.2116 3.91751 16.5043 10.2513 10.2013C16.585 3.89843 25.335 0 35 0C44.665 0 53.415 3.89843 59.7487 10.2013C66.0825 16.5043 70 25.2116 70 34.8296Z" fill="#FCDBA3"/>
<path d="M40.3127 37.8955H39.1249C38.1981 37.8955 37.4378 37.1352 37.4378 36.2085V16.2709C37.4378 15.3442 38.1981 14.5839 39.1249 14.5839H40.3127C41.2394 14.5839 41.9997 15.3442 41.9997 16.2709V36.2085C41.9997 37.1381 41.2394 37.8955 40.3127 37.8955Z" fill="#CA9F70" stroke="#543714" stroke-miterlimit="10" stroke-linecap="round" stroke-linejoin="round"/>
<path d="M33.318 16.3867C33.318 15.8387 33.7627 15.3968 34.3079 15.3968C34.9936 15.3968 35.5473 15.9506 35.5473 16.6363C35.5473 17.4913 34.853 18.1856 33.998 18.1856C32.9278 18.1856 32.0614 17.3191 32.0614 16.249C32.0614 14.9119 33.1459 13.8303 34.48 13.8303C36.1499 13.8303 37.5041 15.1845 37.5041 16.8543C37.5041 18.9431 35.8113 20.6358 33.7226 20.6358C31.1174 20.6358 29 18.5184 29 15.9075C29 12.6453 31.6453 10 34.9075 10C38.2673 10 42 12.8376 42 16.2834" fill="#CA9F70"/>
<path d="M33.318 16.3867C33.318 15.8387 33.7627 15.3968 34.3079 15.3968C34.9936 15.3968 35.5473 15.9506 35.5473 16.6363C35.5473 17.4913 34.853 18.1856 33.998 18.1856C32.9278 18.1856 32.0614 17.3191 32.0614 16.249C32.0614 14.9119 33.1459 13.8303 34.48 13.8303C36.1499 13.8303 37.5041 15.1845 37.5041 16.8543C37.5041 18.9431 35.8113 20.6358 33.7226 20.6358C31.1174 20.6358 29 18.5184 29 15.9075C29 12.6453 31.6453 10 34.9075 10C38.2673 10 42 12.8376 42 16.2834" stroke="#543714" stroke-miterlimit="10" stroke-linecap="round" stroke-linejoin="round"/>
<path d="M70 34.8296C70 44.4475 66.0825 53.1549 59.7487 59.4578C53.415 65.7607 44.665 69.6591 35 69.6591C25.335 69.6591 16.585 65.7607 10.2513 59.4578C3.91751 53.1549 0 44.4475 0 34.8296C0 25.2116 3.91751 16.5043 10.2513 10.2013C16.585 3.89843 25.335 0 35 0C44.665 0 53.415 3.89843 59.7487 10.2013C66.0825 16.5043 70 25.2116 70 34.8296Z" fill="#FCDBA3"/>
<path d="M37.018 46.074V47.544H35.73V46.074H37.018ZM37.018 49.462H35.73V47.95H37.018V49.462ZM32.944 46.074H34.582V47.544H32.048L32.16 47.95H34.582V49.462H32.986L33.112 49.854H34.582V51.352H32.79L32.902 51.758H34.582V53.158H32.328L32.44 53.564H34.582V55.37H34.82C35.226 55.37 35.73 55.09 35.73 54.964V53.564H38.908C39.09 53.564 39.216 53.494 39.244 53.34C38.838 52.892 38.11 52.276 38.11 52.276L37.494 53.158H35.73V51.758H38.306C38.502 51.758 38.642 51.688 38.67 51.534C38.264 51.114 37.564 50.526 37.564 50.526L36.976 51.352H35.73V49.854H37.018V50.232H37.2C37.564 50.232 38.11 49.994 38.124 49.91V47.95H39.3C39.482 47.95 39.608 47.88 39.636 47.726C39.342 47.32 38.796 46.732 38.796 46.732L38.32 47.544H38.124V46.2C38.334 46.158 38.516 46.06 38.586 45.976L37.452 45.094L36.892 45.668H35.73V44.758C36.066 44.702 36.178 44.562 36.206 44.394L34.582 44.212V45.668H32.818L32.944 46.074ZM28.968 48.552C29.22 48.51 29.346 48.412 29.402 48.286L28.688 48.02C29.108 47.082 29.486 46.074 29.794 45.01C30.102 45.024 30.27 44.898 30.326 44.716L28.478 44.17C28.072 46.816 27.176 49.588 26.266 51.422L26.476 51.534C26.924 51.016 27.358 50.456 27.75 49.812V57.19H27.974C28.436 57.19 28.954 56.91 28.968 56.812V48.552ZM31.922 49.21L31.292 49.868H30.746C31.194 48.804 31.824 47.222 32.146 46.27C32.426 46.242 32.664 46.172 32.776 46.046L31.614 45.024L31.04 45.584H29.64L29.766 45.99H31.096C30.76 47.054 30.144 48.692 29.696 49.686C29.514 49.756 29.332 49.84 29.206 49.938L30.242 50.68L30.676 50.274H31.418C31.348 51.464 31.236 52.612 30.942 53.69C30.466 53.06 30.102 52.262 29.794 51.212L29.612 51.296C29.892 52.584 30.242 53.606 30.718 54.39C30.34 55.37 29.794 56.266 28.94 56.98L29.066 57.176C30.046 56.602 30.732 55.916 31.25 55.118C32.426 56.49 34.134 56.882 36.612 56.882H38.88C38.908 56.378 39.132 55.93 39.594 55.832V55.65C38.852 55.664 37.382 55.664 36.724 55.664C34.442 55.664 32.804 55.412 31.642 54.432C32.23 53.2 32.454 51.828 32.594 50.428C32.874 50.386 33 50.344 33.098 50.204L31.922 49.21ZM46.328 44.198C46.65 44.548 47.014 45.122 47.084 45.64C48.232 46.494 49.478 44.38 46.454 44.114L46.328 44.198ZM42.898 46.27H52.992C53.188 46.27 53.328 46.2 53.37 46.046C52.852 45.542 51.97 44.842 51.97 44.842L51.214 45.864H43.108L41.68 45.304V49.63C41.68 52.164 41.582 54.88 40.35 57.036L40.532 57.162C42.758 55.09 42.898 52.01 42.898 49.63V46.27ZM46.342 53.942C44.704 54.572 43.08 55.16 42.394 55.342L43.15 56.756C43.29 56.7 43.402 56.546 43.444 56.364C44.774 55.412 45.754 54.642 46.398 54.11L46.342 53.942ZM43.43 52.08C44.032 52.472 44.858 53.172 45.208 53.746C46.482 54.264 47.014 51.898 43.528 51.954L43.43 52.08ZM48.554 54.348C49.604 54.88 51.116 55.888 51.774 56.658C53.216 57.036 53.342 54.446 48.652 54.194L48.554 54.348ZM50.416 51.184H48.176V49.826H50.416V51.184ZM48.176 48.09H50.416V49.42H48.176V48.09ZM51.956 49.42H51.732V48.216C51.928 48.174 52.082 48.09 52.152 48.006L50.906 47.054L50.304 47.684H48.176V46.97C48.512 46.928 48.652 46.802 48.68 46.606L46.86 46.41V47.684H43.78L43.892 48.09H46.86V49.42H43.094L43.206 49.826H46.86V51.184H43.71L43.836 51.59H46.86V55.594C46.86 55.776 46.804 55.832 46.58 55.832C46.328 55.832 45.124 55.748 45.124 55.748V55.944C45.712 56.042 45.992 56.196 46.174 56.378C46.342 56.56 46.412 56.868 46.44 57.26C47.98 57.12 48.176 56.588 48.176 55.65V51.59H50.416V51.954C49.912 52.5 49.198 53.214 48.694 53.634L48.806 53.774C49.618 53.522 50.906 53.074 51.536 52.766C51.844 52.85 51.97 52.808 52.054 52.696L51.046 51.898C51.382 51.8 51.718 51.604 51.732 51.506V49.826H53.132C53.314 49.826 53.454 49.756 53.482 49.602C53.118 49.21 52.502 48.664 52.502 48.664L51.956 49.42Z" fill="#573605"/>
<path d="M40.3127 37.8955H39.1249C38.1981 37.8955 37.4378 37.1352 37.4378 36.2085V16.2709C37.4378 15.3442 38.1981 14.5839 39.1249 14.5839H40.3127C41.2394 14.5839 41.9997 15.3442 41.9997 16.2709V36.2085C41.9997 37.1381 41.2394 37.8955 40.3127 37.8955Z" fill="#CA9F70" stroke="#543714" stroke-miterlimit="10" stroke-linecap="round" stroke-linejoin="round"/>
<path d="M33.318 16.3867C33.318 15.8387 33.7627 15.3968 34.3079 15.3968C34.9936 15.3968 35.5473 15.9506 35.5473 16.6363C35.5473 17.4913 34.853 18.1856 33.998 18.1856C32.9278 18.1856 32.0614 17.3191 32.0614 16.249C32.0614 14.9119 33.1459 13.8303 34.48 13.8303C36.1499 13.8303 37.5041 15.1845 37.5041 16.8543C37.5041 18.9431 35.8113 20.6358 33.7226 20.6358C31.1174 20.6358 29 18.5184 29 15.9075C29 12.6453 31.6453 10 34.9075 10C38.2673 10 42 12.8376 42 16.2834" fill="#CA9F70"/>
<path d="M33.318 16.3867C33.318 15.8387 33.7627 15.3968 34.3079 15.3968C34.9936 15.3968 35.5473 15.9506 35.5473 16.6363C35.5473 17.4913 34.853 18.1856 33.998 18.1856C32.9278 18.1856 32.0614 17.3191 32.0614 16.249C32.0614 14.9119 33.1459 13.8303 34.48 13.8303C36.1499 13.8303 37.5041 15.1845 37.5041 16.8543C37.5041 18.9431 35.8113 20.6358 33.7226 20.6358C31.1174 20.6358 29 18.5184 29 15.9075C29 12.6453 31.6453 10 34.9075 10C38.2673 10 42 12.8376 42 16.2834" stroke="#543714" stroke-miterlimit="10" stroke-linecap="round" stroke-linejoin="round"/>
</svg>
