<svg width="70" height="70" viewBox="0 0 70 70" fill="none" xmlns="http://www.w3.org/2000/svg">
<path d="M59.7462 58.7498L35.7088 34.8295L59.7462 10.9092C65.7836 17.0924 69.5 25.5289 69.5 34.8295C69.5 44.1302 65.7836 52.5666 59.7462 58.7498ZM59.0373 10.2039L35 34.1241L10.9627 10.2039C17.1759 4.1978 25.6533 0.5 35 0.5C44.3467 0.5 52.8241 4.1978 59.0373 10.2039ZM35 35.5349L59.0373 59.4552C52.8241 65.4613 44.3467 69.1591 35 69.1591C25.6533 69.1591 17.1759 65.4613 10.9627 59.4552L35 35.5349ZM34.2912 34.8295L10.2538 58.7498C4.21636 52.5666 0.5 44.1302 0.5 34.8295C0.5 25.5289 4.21636 17.0924 10.2538 10.9092L34.2912 34.8295Z" fill="white" stroke="white"/>
<path d="M32.046 51.52H28.644V45.71H33.544C33.74 45.71 33.894 45.64 33.922 45.486C33.32 44.982 32.326 44.268 32.326 44.268L31.458 45.304H22.162L22.288 45.71H27.286V51.52H21.504L21.616 51.926H27.286V57.19H27.524C28.224 57.19 28.644 56.896 28.644 56.798V51.926H34.118C34.328 51.926 34.482 51.856 34.51 51.702C33.922 51.17 32.928 50.442 32.928 50.442L32.046 51.52ZM23.366 46.62C23.912 47.642 24.486 49.084 24.556 50.302C25.858 51.548 27.188 48.65 23.534 46.536L23.366 46.62ZM29.876 50.778C30.842 49.938 31.822 48.72 32.606 47.446C32.914 47.474 33.096 47.348 33.152 47.194L31.304 46.508C30.856 47.978 30.212 49.63 29.694 50.652L29.876 50.778ZM46.424 46.858C46.312 47.418 46.13 48.104 46.004 48.566L46.13 48.65C46.732 48.272 47.488 47.628 47.922 47.138C48.188 47.124 48.342 47.096 48.454 46.984L47.11 45.682L46.34 46.452H42.504C43.414 46.256 43.68 44.506 40.796 44.142L40.684 44.24C41.202 44.702 41.65 45.514 41.692 46.214C41.86 46.34 42.014 46.424 42.154 46.452H37.338C37.282 46.2 37.198 45.948 37.086 45.668H36.862C36.974 46.48 36.54 47.278 36.092 47.6C35.728 47.796 35.49 48.174 35.658 48.594C35.854 49.056 36.484 49.098 36.862 48.79C37.254 48.468 37.534 47.796 37.408 46.858H46.424ZM43.582 50.792C43.302 51.982 42.784 53.074 41.902 53.998C41.02 53.802 40.012 53.634 38.822 53.452C39.298 52.682 39.83 51.73 40.292 50.792H43.582ZM46.06 50.386H45.206C45.276 50.064 45.332 49.742 45.374 49.42C45.668 49.42 45.85 49.322 45.92 49.098L43.876 48.678C43.834 49.28 43.778 49.84 43.666 50.386H40.502C40.936 49.546 41.314 48.762 41.58 48.202C42 48.23 42.112 48.104 42.182 47.95L40.25 47.334C40.04 48.006 39.55 49.196 38.99 50.386H35.812L35.91 50.792H38.808C38.304 51.842 37.786 52.878 37.394 53.536C38.738 53.9 39.984 54.306 41.09 54.74C39.9 55.664 38.22 56.406 35.868 56.98L35.952 57.162C38.766 56.756 40.74 56.084 42.126 55.174C43.554 55.776 44.674 56.42 45.486 57.008C46.788 57.708 48.51 55.846 43.19 54.334C44.198 53.354 44.772 52.164 45.108 50.792H47.978C48.174 50.792 48.314 50.722 48.356 50.568C47.796 50.078 46.872 49.406 46.872 49.406L46.06 50.386Z" fill="#573605"/>
<path d="M29.5093 35.7856C28.8192 35.7856 28.2546 35.221 28.2546 34.531V17.4996C28.2546 17.1672 28.3864 16.8472 28.6247 16.6151L34.6155 10.6244C34.8602 10.3797 35.1801 10.2542 35.5 10.2542C35.82 10.2542 36.1399 10.3797 36.3845 10.6244L42.3753 16.6151C42.6137 16.8535 42.7454 17.1672 42.7454 17.4996V34.531C42.7454 35.221 42.1808 35.7856 41.4908 35.7856H29.5093Z" fill="#CA9F70"/>
<path d="M35.5 11.5092L41.4908 17.5V34.5314H35.5H29.5092V17.5L35.5 11.5092ZM35.5 9C34.8351 9 34.1952 9.26348 33.7247 9.73396L27.7339 15.7247C27.2635 16.1952 27 16.8351 27 17.5V34.5314C27 35.9177 28.1229 37.0406 29.5092 37.0406H35.5H41.4908C42.8771 37.0406 44 35.9177 44 34.5314V17.5C44 16.8351 43.7365 16.1952 43.2661 15.7247L40.2675 12.7262L38.21 10.6686C36.8299 9.28856 36.5413 9 35.5 9Z" fill="#543714"/>
<path d="M59.7462 58.7498L35.7088 34.8295L59.7462 10.9092C65.7836 17.0924 69.5 25.5289 69.5 34.8295C69.5 44.1302 65.7836 52.5666 59.7462 58.7498ZM59.0373 10.2039L35 34.1241L10.9627 10.2039C17.1759 4.1978 25.6533 0.5 35 0.5C44.3467 0.5 52.8241 4.1978 59.0373 10.2039ZM35 35.5349L59.0373 59.4552C52.8241 65.4613 44.3467 69.1591 35 69.1591C25.6533 69.1591 17.1759 65.4613 10.9627 59.4552L35 35.5349ZM34.2912 34.8295L10.2538 58.7498C4.21636 52.5666 0.5 44.1302 0.5 34.8295C0.5 25.5289 4.21636 17.0924 10.2538 10.9092L34.2912 34.8295Z" fill="white" stroke="white"/>
<path d="M32.046 51.52H28.644V45.71H33.544C33.74 45.71 33.894 45.64 33.922 45.486C33.32 44.982 32.326 44.268 32.326 44.268L31.458 45.304H22.162L22.288 45.71H27.286V51.52H21.504L21.616 51.926H27.286V57.19H27.524C28.224 57.19 28.644 56.896 28.644 56.798V51.926H34.118C34.328 51.926 34.482 51.856 34.51 51.702C33.922 51.17 32.928 50.442 32.928 50.442L32.046 51.52ZM23.366 46.62C23.912 47.642 24.486 49.084 24.556 50.302C25.858 51.548 27.188 48.65 23.534 46.536L23.366 46.62ZM29.876 50.778C30.842 49.938 31.822 48.72 32.606 47.446C32.914 47.474 33.096 47.348 33.152 47.194L31.304 46.508C30.856 47.978 30.212 49.63 29.694 50.652L29.876 50.778ZM46.424 46.858C46.312 47.418 46.13 48.104 46.004 48.566L46.13 48.65C46.732 48.272 47.488 47.628 47.922 47.138C48.188 47.124 48.342 47.096 48.454 46.984L47.11 45.682L46.34 46.452H42.504C43.414 46.256 43.68 44.506 40.796 44.142L40.684 44.24C41.202 44.702 41.65 45.514 41.692 46.214C41.86 46.34 42.014 46.424 42.154 46.452H37.338C37.282 46.2 37.198 45.948 37.086 45.668H36.862C36.974 46.48 36.54 47.278 36.092 47.6C35.728 47.796 35.49 48.174 35.658 48.594C35.854 49.056 36.484 49.098 36.862 48.79C37.254 48.468 37.534 47.796 37.408 46.858H46.424ZM43.582 50.792C43.302 51.982 42.784 53.074 41.902 53.998C41.02 53.802 40.012 53.634 38.822 53.452C39.298 52.682 39.83 51.73 40.292 50.792H43.582ZM46.06 50.386H45.206C45.276 50.064 45.332 49.742 45.374 49.42C45.668 49.42 45.85 49.322 45.92 49.098L43.876 48.678C43.834 49.28 43.778 49.84 43.666 50.386H40.502C40.936 49.546 41.314 48.762 41.58 48.202C42 48.23 42.112 48.104 42.182 47.95L40.25 47.334C40.04 48.006 39.55 49.196 38.99 50.386H35.812L35.91 50.792H38.808C38.304 51.842 37.786 52.878 37.394 53.536C38.738 53.9 39.984 54.306 41.09 54.74C39.9 55.664 38.22 56.406 35.868 56.98L35.952 57.162C38.766 56.756 40.74 56.084 42.126 55.174C43.554 55.776 44.674 56.42 45.486 57.008C46.788 57.708 48.51 55.846 43.19 54.334C44.198 53.354 44.772 52.164 45.108 50.792H47.978C48.174 50.792 48.314 50.722 48.356 50.568C47.796 50.078 46.872 49.406 46.872 49.406L46.06 50.386Z" fill="#573605"/>
<path d="M29.5093 35.7856C28.8192 35.7856 28.2546 35.221 28.2546 34.531V17.4996C28.2546 17.1672 28.3864 16.8472 28.6247 16.6151L34.6155 10.6244C34.8602 10.3797 35.1801 10.2542 35.5 10.2542C35.82 10.2542 36.1399 10.3797 36.3845 10.6244L42.3753 16.6151C42.6137 16.8535 42.7454 17.1672 42.7454 17.4996V34.531C42.7454 35.221 42.1808 35.7856 41.4908 35.7856H29.5093Z" fill="#CA9F70"/>
<path d="M35.5 11.5092L41.4908 17.5V34.5314H35.5H29.5092V17.5L35.5 11.5092ZM35.5 9C34.8351 9 34.1952 9.26348 33.7247 9.73396L27.7339 15.7247C27.2635 16.1952 27 16.8351 27 17.5V34.5314C27 35.9177 28.1229 37.0406 29.5092 37.0406H35.5H41.4908C42.8771 37.0406 44 35.9177 44 34.5314V17.5C44 16.8351 43.7365 16.1952 43.2661 15.7247L40.2675 12.7262L38.21 10.6686C36.8299 9.28856 36.5413 9 35.5 9Z" fill="#543714"/>
</svg>
