<svg width="70" height="70" viewBox="0 0 70 70" fill="none" xmlns="http://www.w3.org/2000/svg">
<path d="M70 34.8295C70 44.4474 66.0825 53.1548 59.7487 59.4577C53.415 65.7606 44.665 69.6591 35 69.6591C25.335 69.6591 16.585 65.7606 10.2513 59.4577C3.91751 53.1548 0 44.4474 0 34.8295C0 25.2116 3.91751 16.5042 10.2513 10.2013C16.585 3.89843 25.335 0 35 0C44.665 0 53.415 3.89843 59.7487 10.2013C66.0825 16.5042 70 25.2116 70 34.8295Z" fill="#FCDBA3"/>
<path d="M25.648 45.5145V47.6005H23.492V45.5145H25.648ZM25.648 50.1485H23.492V48.0065H25.648V50.1485ZM23.492 52.7525V50.5545H25.648V52.7525H23.492ZM23.492 53.1445H25.648V53.8305H25.872C26.488 53.8305 26.95 53.5505 26.95 53.4665V45.6265C27.258 45.5845 27.426 45.4865 27.524 45.3605L26.222 44.3525L25.592 45.1085H23.66L22.232 44.5485V54.1105H22.442C22.708 54.1105 22.932 54.0685 23.114 53.9985C22.778 54.9785 22.106 56.1965 21.35 56.9945L21.49 57.1625C22.694 56.5605 23.744 55.5385 24.346 54.6845C24.668 54.7265 24.794 54.6425 24.864 54.5025L23.45 53.8165C23.478 53.7885 23.492 53.7605 23.492 53.7465V53.1445ZM24.85 53.9145C25.34 54.5865 25.872 55.5945 25.942 56.4765C27.174 57.4845 28.406 54.9365 24.99 53.8305L24.85 53.9145ZM32.886 47.6845H32.508V44.8705C32.844 44.8285 32.984 44.6885 33.026 44.4925L31.192 44.2965V47.6845H27.076L27.188 48.0905H30.814C30.086 50.4425 28.7 52.7945 26.74 54.3765L26.894 54.5445C28.728 53.5085 30.17 52.1645 31.192 50.5685V55.3705C31.192 55.5805 31.122 55.6645 30.842 55.6645C30.52 55.6645 28.966 55.5525 28.966 55.5525V55.7625C29.68 55.8605 30.03 56.0145 30.268 56.2385C30.478 56.4485 30.562 56.7565 30.618 57.1765C32.298 57.0225 32.508 56.4485 32.508 55.4685V48.0905H34.384C34.58 48.0905 34.706 48.0205 34.748 47.8665C34.314 47.3765 33.558 46.6625 33.558 46.6625L32.886 47.6845ZM42.644 55.8745V54.4185H45.486V55.8745H42.644ZM38.528 54.4185H41.356V55.8745H38.528V54.4185ZM41.356 52.5845V54.0125H38.528V52.5845H41.356ZM45.486 52.5845V54.0125H42.644V52.5845H45.486ZM45.346 52.1785H38.626L37.212 51.5905V57.1625H37.408C37.94 57.1625 38.528 56.8825 38.528 56.7565V56.2805H45.486V57.0925H45.696C46.13 57.0925 46.774 56.8405 46.788 56.7565V52.8225C47.082 52.7525 47.292 52.6405 47.376 52.5285L45.99 51.4785L45.346 52.1785ZM39.69 50.6105V49.1825H44.324V50.6105H39.69ZM44.548 51.5625C44.968 51.5625 45.626 51.3245 45.64 51.2265V49.3645C45.892 49.3225 46.074 49.1965 46.158 49.0985L44.828 48.1185L44.198 48.7625H44.324V48.7765H39.76L38.388 48.2305V51.7165H38.57C39.088 51.7165 39.69 51.4365 39.69 51.3245V51.0165H44.324V51.5625H44.548ZM44.156 47.2925H37.898L38.01 47.6985H45.78C45.976 47.6985 46.116 47.6285 46.144 47.4745C45.64 47.0405 44.856 46.4665 44.856 46.4665L44.156 47.2925ZM47.152 45.1085L46.438 45.8505H42.434C43.218 45.5985 43.33 44.0445 40.796 44.0445L40.684 44.1425C41.146 44.4925 41.594 45.1365 41.692 45.7245C41.79 45.7805 41.874 45.8225 41.958 45.8505H37.492C37.464 45.6265 37.394 45.3745 37.31 45.1225L37.1 45.1365C37.142 45.9345 36.61 46.6485 36.092 46.9145C35.714 47.0965 35.476 47.4465 35.616 47.8525C35.784 48.3005 36.372 48.3565 36.778 48.1045C37.226 47.8245 37.59 47.1945 37.534 46.2565H46.522C46.466 46.7605 46.368 47.4045 46.27 47.8245L46.424 47.9225C46.914 47.5725 47.558 46.9565 47.922 46.5225C48.202 46.4945 48.342 46.4665 48.454 46.3545L47.152 45.1085Z" fill="#573605"/>
<path d="M24.3129 27.4003C24.0728 27.4003 23.8501 27.2842 23.7214 27.0971C23.5926 26.9069 23.5822 26.6715 23.6866 26.4715C25.9275 22.2632 30.2596 19.6479 34.9989 19.6479C39.7382 19.6479 44.0704 22.2632 46.3113 26.4715C46.4191 26.6715 46.4052 26.9069 46.2765 27.0971C46.1512 27.2874 45.925 27.4003 45.6849 27.4003H24.3129Z" fill="#FFCE32"/>
<path d="M35.0032 20.2904C39.6242 20.2904 43.6432 22.9057 45.6892 26.7528H24.3137C26.3632 22.9089 30.3788 20.2904 35.0032 20.2904ZM35.0032 19.0005C29.9995 19.0005 25.4237 21.7512 23.068 26.182C22.8557 26.5819 22.8801 27.0559 23.1341 27.4332C23.3881 27.8105 23.8335 28.0427 24.3172 28.0427H45.6927C46.1729 28.0427 46.6218 27.8138 46.8758 27.4332C47.1298 27.0559 47.1542 26.5819 46.9419 26.182C44.5792 21.7544 40.007 19.0005 35.0032 19.0005Z" fill="#543714"/>
<path d="M24.8909 33.9442C24.5325 33.9442 24.2158 33.725 24.1149 33.4057L20.8406 23.0671C20.7466 22.7737 20.8545 22.4576 21.1155 22.2706C21.2616 22.1642 21.4391 22.1094 21.6165 22.1094C21.7522 22.1094 21.8914 22.1416 22.0167 22.2061C25.8478 24.2313 30.3365 25.3019 34.9993 25.3019C39.662 25.3019 44.1542 24.2313 47.9819 22.2061C48.1071 22.1416 48.2428 22.1094 48.382 22.1094C48.5595 22.1094 48.737 22.1642 48.8831 22.2706C49.1406 22.4609 49.2485 22.7769 49.158 23.0671L45.8836 33.4057C45.7827 33.725 45.4661 33.9442 45.1077 33.9442H24.8909V33.9442Z" fill="#FFCE32"/>
<path d="M48.3854 22.8566L45.1111 33.1952H35.0027H24.8908L21.6165 22.8566C25.4267 24.8721 30.0338 26.0491 34.9992 26.0491C39.9682 26.0491 44.5752 24.8721 48.3854 22.8566ZM48.3854 21.3604C48.3646 21.3604 48.3472 21.3604 48.3263 21.3604C48.3263 21.3604 48.3263 21.3604 48.3228 21.3604C48.0444 21.37 47.7835 21.4442 47.5608 21.57C43.8584 23.5209 39.5158 24.5529 34.9992 24.5529C30.4757 24.5529 26.1226 23.5177 22.4168 21.5571C22.1663 21.4248 21.8914 21.3604 21.6165 21.3604C21.2615 21.3604 20.9066 21.47 20.6143 21.6828C20.0993 22.0601 19.8801 22.6922 20.0645 23.2791L23.3389 33.6177C23.5407 34.2562 24.1705 34.6915 24.8873 34.6915H34.9992H45.1111C45.8279 34.6915 46.4577 34.2529 46.6595 33.6177L49.9165 23.3339C49.9722 23.1856 50 23.0243 50 22.8566C50 22.0311 49.2832 21.3636 48.3924 21.3604C48.3924 21.3604 48.3889 21.3604 48.3854 21.3604Z" fill="#543714"/>
<path d="M32.0891 27.1092C32.0891 28.2572 32.0891 29.4052 32.0891 30.5532C32.0891 30.8531 32.5937 30.8531 32.5937 30.5532C32.5937 29.4052 32.5937 28.2572 32.5937 27.1092C32.5937 26.8093 32.0891 26.8093 32.0891 27.1092Z" fill="#E30413"/>
<path d="M32.5937 27.8118C32.8791 27.6538 33.2131 27.4474 33.5646 27.5119C33.9543 27.5829 33.9578 27.9247 33.9543 28.2278C33.9508 29.034 33.9439 29.8434 33.9404 30.6496C33.9369 30.9495 34.4414 30.9495 34.4449 30.6496C34.4484 30.1627 34.4519 29.6757 34.4519 29.1888C34.4554 28.7277 34.511 28.2375 34.4275 27.7828C34.3545 27.3862 34.0378 27.1056 33.6098 27.0476C33.1435 26.9863 32.726 27.1927 32.3363 27.4087C32.0614 27.5635 32.3154 27.9698 32.5937 27.8118Z" fill="#E30413"/>
<path d="M32.6077 28.7451C32.6668 28.7354 32.726 28.7225 32.7851 28.716C32.8164 28.7096 32.8512 28.7064 32.8826 28.7032C32.8443 28.7096 32.9278 28.6967 32.9278 28.6967C33.0426 28.6838 33.1609 28.6741 33.2758 28.6709C33.5124 28.6612 33.7525 28.6709 33.9891 28.6935C34.1213 28.7064 34.2466 28.5774 34.2431 28.4581C34.2361 28.3194 34.1318 28.2388 33.9891 28.2259C33.4811 28.1743 32.973 28.2001 32.472 28.2936C32.3432 28.3162 32.2562 28.4677 32.2945 28.5806C32.3432 28.7096 32.4685 28.7709 32.6077 28.7451Z" fill="#E30413"/>
<path d="M32.5487 29.9282C32.9627 29.9282 33.3733 29.9282 33.7874 29.9282C33.9196 29.9282 34.0449 29.8218 34.038 29.6961C34.031 29.5703 33.9266 29.4639 33.7874 29.4639C33.3733 29.4639 32.9627 29.4639 32.5487 29.4639C32.4164 29.4639 32.2912 29.5703 32.2981 29.6961C32.3016 29.8186 32.406 29.9282 32.5487 29.9282Z" fill="#E30413"/>
<path d="M32.2353 31.2534C32.8652 31.1728 33.495 31.1083 34.1283 31.0599C34.264 31.0502 34.3788 30.9599 34.3788 30.8277C34.3788 30.7084 34.264 30.5826 34.1283 30.5923C33.4497 30.6439 32.7747 30.7149 32.1031 30.8019C31.9674 30.8181 31.8943 30.9793 31.9257 31.0889C31.9639 31.2276 32.0996 31.2727 32.2353 31.2534Z" fill="#E30413"/>
<path d="M32.7294 31.0986C32.7016 31.2469 32.6598 31.392 32.6077 31.5307C32.5937 31.5662 32.5798 31.5984 32.5659 31.6307C32.5624 31.6403 32.5589 31.65 32.552 31.6597C32.5415 31.6823 32.545 31.679 32.5589 31.6468C32.5589 31.6597 32.545 31.679 32.5381 31.6887C32.5033 31.7597 32.465 31.8274 32.4267 31.8951C32.3641 32.0015 32.3954 32.1563 32.5172 32.2144C32.6355 32.2724 32.7956 32.2434 32.8617 32.1305C33.0287 31.8467 33.154 31.5371 33.2166 31.2179C33.2305 31.1534 33.227 31.0954 33.1922 31.0373C33.1609 30.9889 33.1018 30.9438 33.0426 30.9309C32.9173 30.9115 32.7538 30.9696 32.7294 31.0986Z" fill="#E30413"/>
<path d="M33.5299 31.3108C33.589 31.4075 33.6412 31.5075 33.6864 31.6107C33.6795 31.5913 33.669 31.572 33.6621 31.5558C33.7212 31.6848 33.77 31.8203 33.8117 31.9557C33.8465 32.075 33.9927 32.1589 34.1214 32.1202C34.2502 32.0815 34.3371 31.9589 34.2989 31.8332C34.2188 31.572 34.1075 31.3172 33.9648 31.0754C33.9022 30.9689 33.7317 30.9238 33.6203 30.9915C33.502 31.0625 33.4603 31.1947 33.5299 31.3108Z" fill="#E30413"/>
<path d="M35.193 29.1668C35.8472 29.0959 36.5048 29.0249 37.159 28.954C37.2947 28.9379 37.4095 28.8573 37.4095 28.7218C37.4095 28.6057 37.2947 28.4735 37.159 28.4896C36.5048 28.5606 35.8472 28.6315 35.193 28.7025C35.0573 28.7186 34.939 28.7992 34.939 28.9346C34.939 29.0475 35.0573 29.1797 35.193 29.1668Z" fill="#E30413"/>
<path d="M36.414 27.5572C36.4279 28.2763 36.4418 28.9954 36.4209 29.7146C36.4105 30.0725 36.3896 30.4337 36.3583 30.7916C36.3444 30.9561 36.327 31.1205 36.3061 31.285C36.2957 31.3689 36.2643 31.4688 36.2678 31.5527C36.2469 31.6139 36.2539 31.6204 36.2887 31.572C36.2643 31.5333 36.24 31.4946 36.2226 31.4527C36.0799 31.1818 35.645 31.4205 35.7876 31.6881C35.8746 31.8526 35.9999 32.0138 36.2052 32.0589C36.3896 32.1009 36.5845 32.0331 36.6854 31.8816C36.7932 31.7171 36.7898 31.4688 36.8141 31.285C36.8454 31.0367 36.8698 30.7916 36.8872 30.5433C36.9603 29.5501 36.9394 28.5504 36.922 27.5572C36.9116 27.2573 36.407 27.2541 36.414 27.5572Z" fill="#E30413"/>
<path d="M36.244 28.8223C36.1779 28.9577 36.1013 29.0899 36.0108 29.2157C35.9656 29.2802 35.9204 29.3382 35.8717 29.3995C35.8543 29.4188 35.8891 29.3801 35.8612 29.4124C35.8473 29.4253 35.8369 29.4414 35.8264 29.4543C35.7986 29.4833 35.7707 29.5156 35.7429 29.5446C35.6385 29.6542 35.5237 29.7542 35.4019 29.851C35.388 29.8639 35.3706 29.8735 35.3567 29.8864C35.3532 29.8896 35.294 29.9316 35.3358 29.9025C35.3045 29.9251 35.2732 29.9445 35.2418 29.967C35.1722 30.0122 35.1027 30.0541 35.0296 30.096C34.9147 30.1573 34.866 30.3089 34.9391 30.4153C35.0122 30.5217 35.1618 30.5669 35.2836 30.4991C35.8891 30.1638 36.3866 29.6607 36.6789 29.0641C36.7346 28.9545 36.7172 28.8061 36.5885 28.7449C36.4771 28.6836 36.2997 28.7029 36.244 28.8223Z" fill="#E30413"/>
<path d="M70 34.8295C70 44.4474 66.0825 53.1548 59.7487 59.4577C53.415 65.7606 44.665 69.6591 35 69.6591C25.335 69.6591 16.585 65.7606 10.2513 59.4577C3.91751 53.1548 0 44.4474 0 34.8295C0 25.2116 3.91751 16.5042 10.2513 10.2013C16.585 3.89843 25.335 0 35 0C44.665 0 53.415 3.89843 59.7487 10.2013C66.0825 16.5042 70 25.2116 70 34.8295Z" fill="#FCDBA3"/>
<path d="M25.648 45.5145V47.6005H23.492V45.5145H25.648ZM25.648 50.1485H23.492V48.0065H25.648V50.1485ZM23.492 52.7525V50.5545H25.648V52.7525H23.492ZM23.492 53.1445H25.648V53.8305H25.872C26.488 53.8305 26.95 53.5505 26.95 53.4665V45.6265C27.258 45.5845 27.426 45.4865 27.524 45.3605L26.222 44.3525L25.592 45.1085H23.66L22.232 44.5485V54.1105H22.442C22.708 54.1105 22.932 54.0685 23.114 53.9985C22.778 54.9785 22.106 56.1965 21.35 56.9945L21.49 57.1625C22.694 56.5605 23.744 55.5385 24.346 54.6845C24.668 54.7265 24.794 54.6425 24.864 54.5025L23.45 53.8165C23.478 53.7885 23.492 53.7605 23.492 53.7465V53.1445ZM24.85 53.9145C25.34 54.5865 25.872 55.5945 25.942 56.4765C27.174 57.4845 28.406 54.9365 24.99 53.8305L24.85 53.9145ZM32.886 47.6845H32.508V44.8705C32.844 44.8285 32.984 44.6885 33.026 44.4925L31.192 44.2965V47.6845H27.076L27.188 48.0905H30.814C30.086 50.4425 28.7 52.7945 26.74 54.3765L26.894 54.5445C28.728 53.5085 30.17 52.1645 31.192 50.5685V55.3705C31.192 55.5805 31.122 55.6645 30.842 55.6645C30.52 55.6645 28.966 55.5525 28.966 55.5525V55.7625C29.68 55.8605 30.03 56.0145 30.268 56.2385C30.478 56.4485 30.562 56.7565 30.618 57.1765C32.298 57.0225 32.508 56.4485 32.508 55.4685V48.0905H34.384C34.58 48.0905 34.706 48.0205 34.748 47.8665C34.314 47.3765 33.558 46.6625 33.558 46.6625L32.886 47.6845ZM42.644 55.8745V54.4185H45.486V55.8745H42.644ZM38.528 54.4185H41.356V55.8745H38.528V54.4185ZM41.356 52.5845V54.0125H38.528V52.5845H41.356ZM45.486 52.5845V54.0125H42.644V52.5845H45.486ZM45.346 52.1785H38.626L37.212 51.5905V57.1625H37.408C37.94 57.1625 38.528 56.8825 38.528 56.7565V56.2805H45.486V57.0925H45.696C46.13 57.0925 46.774 56.8405 46.788 56.7565V52.8225C47.082 52.7525 47.292 52.6405 47.376 52.5285L45.99 51.4785L45.346 52.1785ZM39.69 50.6105V49.1825H44.324V50.6105H39.69ZM44.548 51.5625C44.968 51.5625 45.626 51.3245 45.64 51.2265V49.3645C45.892 49.3225 46.074 49.1965 46.158 49.0985L44.828 48.1185L44.198 48.7625H44.324V48.7765H39.76L38.388 48.2305V51.7165H38.57C39.088 51.7165 39.69 51.4365 39.69 51.3245V51.0165H44.324V51.5625H44.548ZM44.156 47.2925H37.898L38.01 47.6985H45.78C45.976 47.6985 46.116 47.6285 46.144 47.4745C45.64 47.0405 44.856 46.4665 44.856 46.4665L44.156 47.2925ZM47.152 45.1085L46.438 45.8505H42.434C43.218 45.5985 43.33 44.0445 40.796 44.0445L40.684 44.1425C41.146 44.4925 41.594 45.1365 41.692 45.7245C41.79 45.7805 41.874 45.8225 41.958 45.8505H37.492C37.464 45.6265 37.394 45.3745 37.31 45.1225L37.1 45.1365C37.142 45.9345 36.61 46.6485 36.092 46.9145C35.714 47.0965 35.476 47.4465 35.616 47.8525C35.784 48.3005 36.372 48.3565 36.778 48.1045C37.226 47.8245 37.59 47.1945 37.534 46.2565H46.522C46.466 46.7605 46.368 47.4045 46.27 47.8245L46.424 47.9225C46.914 47.5725 47.558 46.9565 47.922 46.5225C48.202 46.4945 48.342 46.4665 48.454 46.3545L47.152 45.1085Z" fill="#573605"/>
<path d="M24.3129 27.4003C24.0728 27.4003 23.8501 27.2842 23.7214 27.0971C23.5926 26.9069 23.5822 26.6715 23.6866 26.4715C25.9275 22.2632 30.2596 19.6479 34.9989 19.6479C39.7382 19.6479 44.0704 22.2632 46.3113 26.4715C46.4191 26.6715 46.4052 26.9069 46.2765 27.0971C46.1512 27.2874 45.925 27.4003 45.6849 27.4003H24.3129Z" fill="#FFCE32"/>
<path d="M35.0032 20.2904C39.6242 20.2904 43.6432 22.9057 45.6892 26.7528H24.3137C26.3632 22.9089 30.3788 20.2904 35.0032 20.2904ZM35.0032 19.0005C29.9995 19.0005 25.4237 21.7512 23.068 26.182C22.8557 26.5819 22.8801 27.0559 23.1341 27.4332C23.3881 27.8105 23.8335 28.0427 24.3172 28.0427H45.6927C46.1729 28.0427 46.6218 27.8138 46.8758 27.4332C47.1298 27.0559 47.1542 26.5819 46.9419 26.182C44.5792 21.7544 40.007 19.0005 35.0032 19.0005Z" fill="#543714"/>
<path d="M24.8909 33.9442C24.5325 33.9442 24.2158 33.725 24.1149 33.4057L20.8406 23.0671C20.7466 22.7737 20.8545 22.4576 21.1155 22.2706C21.2616 22.1642 21.4391 22.1094 21.6165 22.1094C21.7522 22.1094 21.8914 22.1416 22.0167 22.2061C25.8478 24.2313 30.3365 25.3019 34.9993 25.3019C39.662 25.3019 44.1542 24.2313 47.9819 22.2061C48.1071 22.1416 48.2428 22.1094 48.382 22.1094C48.5595 22.1094 48.737 22.1642 48.8831 22.2706C49.1406 22.4609 49.2485 22.7769 49.158 23.0671L45.8836 33.4057C45.7827 33.725 45.4661 33.9442 45.1077 33.9442H24.8909V33.9442Z" fill="#FFCE32"/>
<path d="M48.3854 22.8566L45.1111 33.1952H35.0027H24.8908L21.6165 22.8566C25.4267 24.8721 30.0338 26.0491 34.9992 26.0491C39.9682 26.0491 44.5752 24.8721 48.3854 22.8566ZM48.3854 21.3604C48.3646 21.3604 48.3472 21.3604 48.3263 21.3604C48.3263 21.3604 48.3263 21.3604 48.3228 21.3604C48.0444 21.37 47.7835 21.4442 47.5608 21.57C43.8584 23.5209 39.5158 24.5529 34.9992 24.5529C30.4757 24.5529 26.1226 23.5177 22.4168 21.5571C22.1663 21.4248 21.8914 21.3604 21.6165 21.3604C21.2615 21.3604 20.9066 21.47 20.6143 21.6828C20.0993 22.0601 19.8801 22.6922 20.0645 23.2791L23.3389 33.6177C23.5407 34.2562 24.1705 34.6915 24.8873 34.6915H34.9992H45.1111C45.8279 34.6915 46.4577 34.2529 46.6595 33.6177L49.9165 23.3339C49.9722 23.1856 50 23.0243 50 22.8566C50 22.0311 49.2832 21.3636 48.3924 21.3604C48.3924 21.3604 48.3889 21.3604 48.3854 21.3604Z" fill="#543714"/>
<path d="M32.0891 27.1092C32.0891 28.2572 32.0891 29.4052 32.0891 30.5532C32.0891 30.8531 32.5937 30.8531 32.5937 30.5532C32.5937 29.4052 32.5937 28.2572 32.5937 27.1092C32.5937 26.8093 32.0891 26.8093 32.0891 27.1092Z" fill="#E30413"/>
<path d="M32.5937 27.8118C32.8791 27.6538 33.2131 27.4474 33.5646 27.5119C33.9543 27.5829 33.9578 27.9247 33.9543 28.2278C33.9508 29.034 33.9439 29.8434 33.9404 30.6496C33.9369 30.9495 34.4414 30.9495 34.4449 30.6496C34.4484 30.1627 34.4519 29.6757 34.4519 29.1888C34.4554 28.7277 34.511 28.2375 34.4275 27.7828C34.3545 27.3862 34.0378 27.1056 33.6098 27.0476C33.1435 26.9863 32.726 27.1927 32.3363 27.4087C32.0614 27.5635 32.3154 27.9698 32.5937 27.8118Z" fill="#E30413"/>
<path d="M32.6077 28.7451C32.6668 28.7354 32.726 28.7225 32.7851 28.716C32.8164 28.7096 32.8512 28.7064 32.8826 28.7032C32.8443 28.7096 32.9278 28.6967 32.9278 28.6967C33.0426 28.6838 33.1609 28.6741 33.2758 28.6709C33.5124 28.6612 33.7525 28.6709 33.9891 28.6935C34.1213 28.7064 34.2466 28.5774 34.2431 28.4581C34.2361 28.3194 34.1318 28.2388 33.9891 28.2259C33.4811 28.1743 32.973 28.2001 32.472 28.2936C32.3432 28.3162 32.2562 28.4677 32.2945 28.5806C32.3432 28.7096 32.4685 28.7709 32.6077 28.7451Z" fill="#E30413"/>
<path d="M32.5487 29.9282C32.9627 29.9282 33.3733 29.9282 33.7874 29.9282C33.9196 29.9282 34.0449 29.8218 34.038 29.6961C34.031 29.5703 33.9266 29.4639 33.7874 29.4639C33.3733 29.4639 32.9627 29.4639 32.5487 29.4639C32.4164 29.4639 32.2912 29.5703 32.2981 29.6961C32.3016 29.8186 32.406 29.9282 32.5487 29.9282Z" fill="#E30413"/>
<path d="M32.2353 31.2534C32.8652 31.1728 33.495 31.1083 34.1283 31.0599C34.264 31.0502 34.3788 30.9599 34.3788 30.8277C34.3788 30.7084 34.264 30.5826 34.1283 30.5923C33.4497 30.6439 32.7747 30.7149 32.1031 30.8019C31.9674 30.8181 31.8943 30.9793 31.9257 31.0889C31.9639 31.2276 32.0996 31.2727 32.2353 31.2534Z" fill="#E30413"/>
<path d="M32.7294 31.0986C32.7016 31.2469 32.6598 31.392 32.6077 31.5307C32.5937 31.5662 32.5798 31.5984 32.5659 31.6307C32.5624 31.6403 32.5589 31.65 32.552 31.6597C32.5415 31.6823 32.545 31.679 32.5589 31.6468C32.5589 31.6597 32.545 31.679 32.5381 31.6887C32.5033 31.7597 32.465 31.8274 32.4267 31.8951C32.3641 32.0015 32.3954 32.1563 32.5172 32.2144C32.6355 32.2724 32.7956 32.2434 32.8617 32.1305C33.0287 31.8467 33.154 31.5371 33.2166 31.2179C33.2305 31.1534 33.227 31.0954 33.1922 31.0373C33.1609 30.9889 33.1018 30.9438 33.0426 30.9309C32.9173 30.9115 32.7538 30.9696 32.7294 31.0986Z" fill="#E30413"/>
<path d="M33.5299 31.3108C33.589 31.4075 33.6412 31.5075 33.6864 31.6107C33.6795 31.5913 33.669 31.572 33.6621 31.5558C33.7212 31.6848 33.77 31.8203 33.8117 31.9557C33.8465 32.075 33.9927 32.1589 34.1214 32.1202C34.2502 32.0815 34.3371 31.9589 34.2989 31.8332C34.2188 31.572 34.1075 31.3172 33.9648 31.0754C33.9022 30.9689 33.7317 30.9238 33.6203 30.9915C33.502 31.0625 33.4603 31.1947 33.5299 31.3108Z" fill="#E30413"/>
<path d="M35.193 29.1668C35.8472 29.0959 36.5048 29.0249 37.159 28.954C37.2947 28.9379 37.4095 28.8573 37.4095 28.7218C37.4095 28.6057 37.2947 28.4735 37.159 28.4896C36.5048 28.5606 35.8472 28.6315 35.193 28.7025C35.0573 28.7186 34.939 28.7992 34.939 28.9346C34.939 29.0475 35.0573 29.1797 35.193 29.1668Z" fill="#E30413"/>
<path d="M36.414 27.5572C36.4279 28.2763 36.4418 28.9954 36.4209 29.7146C36.4105 30.0725 36.3896 30.4337 36.3583 30.7916C36.3444 30.9561 36.327 31.1205 36.3061 31.285C36.2957 31.3689 36.2643 31.4688 36.2678 31.5527C36.2469 31.6139 36.2539 31.6204 36.2887 31.572C36.2643 31.5333 36.24 31.4946 36.2226 31.4527C36.0799 31.1818 35.645 31.4205 35.7876 31.6881C35.8746 31.8526 35.9999 32.0138 36.2052 32.0589C36.3896 32.1009 36.5845 32.0331 36.6854 31.8816C36.7932 31.7171 36.7898 31.4688 36.8141 31.285C36.8454 31.0367 36.8698 30.7916 36.8872 30.5433C36.9603 29.5501 36.9394 28.5504 36.922 27.5572C36.9116 27.2573 36.407 27.2541 36.414 27.5572Z" fill="#E30413"/>
<path d="M36.244 28.8223C36.1779 28.9577 36.1013 29.0899 36.0108 29.2157C35.9656 29.2802 35.9204 29.3382 35.8717 29.3995C35.8543 29.4188 35.8891 29.3801 35.8612 29.4124C35.8473 29.4253 35.8369 29.4414 35.8264 29.4543C35.7986 29.4833 35.7707 29.5156 35.7429 29.5446C35.6385 29.6542 35.5237 29.7542 35.4019 29.851C35.388 29.8639 35.3706 29.8735 35.3567 29.8864C35.3532 29.8896 35.294 29.9316 35.3358 29.9025C35.3045 29.9251 35.2732 29.9445 35.2418 29.967C35.1722 30.0122 35.1027 30.0541 35.0296 30.096C34.9147 30.1573 34.866 30.3089 34.9391 30.4153C35.0122 30.5217 35.1618 30.5669 35.2836 30.4991C35.8891 30.1638 36.3866 29.6607 36.6789 29.0641C36.7346 28.9545 36.7172 28.8061 36.5885 28.7449C36.4771 28.6836 36.2997 28.7029 36.244 28.8223Z" fill="#E30413"/>
</svg>
