<svg width="20" height="21" viewBox="0 0 20 21" fill="none" xmlns="http://www.w3.org/2000/svg">
<path d="M0 5.71287V18.6109C0 19.6817 0.867468 20.5091 1.87951 20.5091H14.6507C15.711 20.5091 16.5302 19.633 16.5302 18.6109V12.1863H15.8556V18.6597C15.8556 19.3411 15.3255 19.8766 14.6507 19.8766L1.87951 19.8764C1.20487 19.8764 0.674642 19.3411 0.674642 18.6596L0.674803 5.71312C0.674803 5.03178 1.20487 4.49628 1.87967 4.49628H8.28943V3.81494H1.87967C0.819546 3.81494 0.000161359 4.69103 0.000161359 5.71312L0 5.71287Z" fill="#573605"/>
<path d="M18.4579 0.845893C17.735 0.115822 16.5302 0.115822 15.8073 0.845893L6.84348 9.89877C6.79523 9.9475 6.74715 9.99606 6.74715 10.0448L5.83143 14.1817C5.78318 14.279 5.83143 14.425 5.92776 14.5225C5.97601 14.5712 6.07234 14.6198 6.16867 14.6198H6.265L10.3614 13.695C10.4097 13.695 10.4578 13.6462 10.506 13.5977L19.4698 4.54481C19.8072 4.20405 19.9999 3.71745 19.9999 3.23068C19.9999 2.74391 19.8071 2.25731 19.4698 1.91655L18.4579 0.845893ZM6.60257 13.8412L7.22913 10.9209L9.44604 13.1598L6.60257 13.8412ZM10.1688 12.9163L7.51812 10.2394L14.5545 3.08467L17.2051 5.76165L10.1688 12.9163ZM18.988 4.00948L17.735 5.27488L15.0844 2.5979L16.3374 1.3325C16.8193 0.845726 17.5422 0.845726 18.024 1.3325L19.0361 2.35459C19.4217 2.79264 19.4217 3.57143 18.988 4.00948H18.988Z" fill="#573605"/>
</svg>
