<svg width="41" height="40" viewBox="0 0 41 40" fill="none" xmlns="http://www.w3.org/2000/svg">
<path fill-rule="evenodd" clip-rule="evenodd" d="M20.2831 9.77734C17.5775 9.77734 17.2379 9.78863 16.1748 9.83605C15.114 9.88346 14.3896 10.049 13.7558 10.2906C13.091 10.5365 12.4889 10.9217 11.9913 11.4195C11.4842 11.9083 11.0919 12.4998 10.8416 13.1528C10.5955 13.7745 10.4277 14.4857 10.3786 15.5273C10.3303 16.5712 10.3188 16.9046 10.3188 19.5613C10.3188 22.218 10.3303 22.5514 10.3786 23.5953C10.4269 24.6369 10.5955 25.3481 10.8416 25.9698C11.0968 26.6133 11.4371 27.1589 11.9913 27.7031C12.4889 28.2009 13.091 28.5861 13.7558 28.832C14.3896 29.0728 15.114 29.2384 16.1748 29.2866C17.2379 29.334 17.5775 29.3453 20.2831 29.3453C22.9888 29.3453 23.3284 29.334 24.3915 29.2866C25.4523 29.2391 26.1766 29.0736 26.8097 28.832C27.4748 28.5863 28.0772 28.201 28.575 27.7031C29.082 27.2143 29.4744 26.6228 29.7247 25.9698C29.97 25.3481 30.1386 24.6369 30.1876 23.5953C30.2359 22.5514 30.2474 22.218 30.2474 19.5613C30.2474 16.9046 30.2359 16.5712 30.1876 15.5273C30.1394 14.4857 29.9707 13.7745 29.7239 13.1528C29.4739 12.4999 29.0818 11.9084 28.575 11.4195C28.0772 10.9216 27.4748 10.5363 26.8097 10.2906C26.1766 10.0498 25.4523 9.88421 24.3915 9.83605C23.3284 9.78863 22.9888 9.77734 20.2831 9.77734ZM20.2831 11.54C22.9436 11.54 23.2586 11.5505 24.3095 11.5972C25.2806 11.6408 25.8087 11.8004 26.1598 11.9343C26.625 12.1119 26.9569 12.3234 27.3057 12.6659C27.6544 13.0083 27.8698 13.3342 28.0507 13.791C28.1871 14.1357 28.3496 14.6535 28.3941 15.6078C28.4416 16.6389 28.4523 16.949 28.4523 19.5613C28.4523 22.1736 28.4416 22.4829 28.3941 23.5148C28.3496 24.4691 28.1871 24.9869 28.0507 25.3316C27.8911 25.7566 27.6365 26.141 27.3057 26.4567C26.9842 26.7816 26.5926 27.0316 26.1598 27.1883C25.8087 27.3222 25.2806 27.4818 24.3095 27.5254C23.2594 27.5721 22.9436 27.5826 20.2831 27.5826C17.6227 27.5826 17.3069 27.5721 16.2568 27.5254C15.2849 27.4818 14.7576 27.3222 14.4065 27.1883C13.9737 27.0316 13.5821 26.7816 13.2606 26.4567C12.9298 26.141 12.6752 25.7565 12.5156 25.3316C12.3792 24.9869 12.2167 24.4691 12.1722 23.5148C12.1247 22.4837 12.114 22.1736 12.114 19.5613C12.114 16.949 12.1247 16.6397 12.1722 15.6078C12.2167 14.6535 12.3792 14.1357 12.5156 13.791C12.6965 13.3342 12.9119 13.0083 13.2606 12.6659C13.5821 12.341 13.9737 12.0911 14.4065 11.9343C14.7576 11.8004 15.2849 11.6408 16.2568 11.5972C17.3069 11.5505 17.6227 11.54 20.2831 11.54Z" fill="#FFFAE7"/>
<path fill-rule="evenodd" clip-rule="evenodd" d="M20.2753 14.294C18.8523 14.294 17.4876 14.849 16.4814 15.837C15.4752 16.825 14.9099 18.165 14.9099 19.5622C14.9099 20.9595 15.4752 22.2995 16.4814 23.2875C17.4876 24.2755 18.8523 24.8305 20.2753 24.8305C21.6983 24.8305 23.063 24.2755 24.0692 23.2875C25.0754 22.2995 25.6407 20.9595 25.6407 19.5622C25.6407 18.165 25.0754 16.825 24.0692 15.837C23.063 14.849 21.6983 14.294 20.2753 14.294ZM20.2753 22.949C19.3605 22.949 18.4832 22.5922 17.8364 21.957C17.1895 21.3219 16.8261 20.4605 16.8261 19.5622C16.8261 18.664 17.1895 17.8026 17.8364 17.1674C18.4832 16.5323 19.3605 16.1755 20.2753 16.1755C21.1901 16.1755 22.0674 16.5323 22.7142 17.1674C23.3611 17.8026 23.7245 18.664 23.7245 19.5622C23.7245 20.4605 23.3611 21.3219 22.7142 21.957C22.0674 22.5922 21.1901 22.949 20.2753 22.949ZM26.9437 14.3692C26.9437 14.5274 26.912 14.6839 26.8504 14.83C26.7887 14.9761 26.6984 15.1089 26.5845 15.2207C26.4706 15.3325 26.3354 15.4212 26.1866 15.4817C26.0379 15.5423 25.8784 15.5734 25.7173 15.5734C25.5563 15.5734 25.3968 15.5423 25.248 15.4817C25.0992 15.4212 24.964 15.3325 24.8502 15.2207C24.7363 15.1089 24.6459 14.9761 24.5843 14.83C24.5227 14.6839 24.491 14.5274 24.491 14.3692C24.491 14.0499 24.6202 13.7436 24.8502 13.5177C25.0801 13.2919 25.3921 13.165 25.7173 13.165C26.0426 13.165 26.3545 13.2919 26.5845 13.5177C26.8145 13.7436 26.9437 14.0499 26.9437 14.3692Z" fill="#FFFAE7"/>
<path d="M39.4275 20C39.4275 30.4968 30.9495 39 20.4989 39C10.0483 39 1.57031 30.4968 1.57031 20C1.57031 9.50321 10.0483 1 20.4989 1C30.9495 1 39.4275 9.50321 39.4275 20Z" stroke="#FFFAE7" stroke-width="2"/>
</svg>
