<svg width="40" height="40" viewBox="0 0 40 40" fill="none" xmlns="http://www.w3.org/2000/svg">
<path d="M38.9971 20C38.9971 30.4968 30.5191 39 20.0685 39C9.61788 39 1.13989 30.4968 1.13989 20C1.13989 9.50321 9.61788 1 20.0685 1C30.5191 1 38.9971 9.50321 38.9971 20Z" stroke="#FFFAE7" stroke-width="2"/>
<path d="M31.9599 14.8984C31.822 14.4249 31.5534 13.9962 31.1826 13.6579C30.8014 13.3092 30.3341 13.0598 29.8249 12.9332C27.9192 12.4497 20.2843 12.4497 20.2843 12.4497C17.1014 12.4148 13.9192 12.5681 10.7558 12.9087C10.2466 13.0447 9.7802 13.2997 9.39809 13.6511C9.02263 13.9988 8.75068 14.4276 8.60861 14.8974C8.26735 16.667 8.10154 18.4638 8.11342 20.2636C8.10124 22.0618 8.26665 23.858 8.60861 25.6298C8.74763 26.0977 9.01857 26.5245 9.39504 26.8693C9.77151 27.2141 10.2403 27.4632 10.7558 27.595C12.6869 28.0776 20.2843 28.0776 20.2843 28.0776C23.4712 28.1125 26.6574 27.9592 29.8249 27.6185C30.3341 27.4919 30.8014 27.2424 31.1826 26.8937C31.5581 26.549 31.825 26.1202 31.9589 25.6533C32.3091 23.8844 32.4794 22.0868 32.4673 20.2861C32.4936 18.4777 32.3236 16.6717 31.9599 14.8974V14.8984ZM17.857 23.608V16.9202L24.2093 20.2646L17.857 23.608Z" fill="#FFFAE7"/>
</svg>
