<svg width="36" height="50" viewBox="0 0 36 50" fill="none" xmlns="http://www.w3.org/2000/svg">
<g filter="url(#filter0_d_1454_6445)">
<path d="M31.8246 27.8246V13.9123C31.8246 6.2604 25.5642 0 17.9123 0C10.2604 0 4 6.2604 4 13.9123V27.8246C4 35.4765 10.2604 41.7369 17.9123 41.7369C25.5642 41.7369 31.8246 35.4765 31.8246 27.8246ZM17.9123 38.645C11.9608 38.645 7.0919 33.7756 7.0919 27.8246V13.9123C7.0919 7.96079 11.9613 3.0919 17.9123 3.0919C23.8638 3.0919 28.7327 7.96134 28.7327 13.9123V27.8246C28.7327 33.7761 23.8638 38.645 17.9123 38.645Z" fill="#FFFAE7"/>
<path d="M17.9124 8.50195C17.0621 8.50195 16.3667 9.19744 16.3667 10.0476V14.6853C16.3667 15.5356 17.0622 16.231 17.9124 16.231C18.7626 16.231 19.458 15.5355 19.458 14.6853V10.0476C19.458 9.1974 18.7626 8.50195 17.9124 8.50195V8.50195Z" fill="#FFFAE7"/>
</g>
<defs>
<filter id="filter0_d_1454_6445" x="0" y="0" width="35.8247" height="49.7368" filterUnits="userSpaceOnUse" color-interpolation-filters="sRGB">
<feFlood flood-opacity="0" result="BackgroundImageFix"/>
<feColorMatrix in="SourceAlpha" type="matrix" values="0 0 0 0 0 0 0 0 0 0 0 0 0 0 0 0 0 0 127 0" result="hardAlpha"/>
<feOffset dy="4"/>
<feGaussianBlur stdDeviation="2"/>
<feComposite in2="hardAlpha" operator="out"/>
<feColorMatrix type="matrix" values="0 0 0 0 0 0 0 0 0 0 0 0 0 0 0 0 0 0 0.25 0"/>
<feBlend mode="normal" in2="BackgroundImageFix" result="effect1_dropShadow_1454_6445"/>
<feBlend mode="normal" in="SourceGraphic" in2="effect1_dropShadow_1454_6445" result="shape"/>
</filter>
</defs>
</svg>
