<svg width="24" height="27" viewBox="0 0 24 27" fill="none" xmlns="http://www.w3.org/2000/svg">
<g filter="url(#filter0_d_1454_6446)">
<path d="M17.0137 9.56713L11.9124 14.6679L6.81104 9.56658C6.19264 8.94818 5.26536 8.94818 4.6469 9.56658C4.02851 10.185 4.02851 11.1123 4.6469 11.7307L10.8303 17.9141C11.1392 18.2236 11.5258 18.3783 11.9123 18.3783C12.2989 18.3783 12.6854 18.2236 12.9944 17.9146L19.1777 11.7313C19.7961 11.1129 19.7961 10.1856 19.1777 9.56711C18.5594 8.94865 17.6321 8.94872 17.0136 9.56711L17.0137 9.56713Z" fill="#FFFAE7"/>
<path d="M19.1778 1.06511C18.5594 0.44672 17.6321 0.44672 17.0137 1.06511L11.9124 6.16643L6.81104 1.06511C6.19264 0.44672 5.26536 0.44672 4.6469 1.06511C4.02851 1.68351 4.02851 2.61079 4.6469 3.22925L10.8303 9.41263C11.1392 9.72156 11.5258 9.87629 11.9123 9.87629C12.2989 9.87629 12.6854 9.72156 12.9944 9.41263L19.1777 3.22925C19.7961 2.61085 19.7961 1.68358 19.1777 1.06511H19.1778Z" fill="#FFFAE7"/>
</g>
<defs>
<filter id="filter0_d_1454_6446" x="0.183105" y="0.601318" width="23.4585" height="25.7771" filterUnits="userSpaceOnUse" color-interpolation-filters="sRGB">
<feFlood flood-opacity="0" result="BackgroundImageFix"/>
<feColorMatrix in="SourceAlpha" type="matrix" values="0 0 0 0 0 0 0 0 0 0 0 0 0 0 0 0 0 0 127 0" result="hardAlpha"/>
<feOffset dy="4"/>
<feGaussianBlur stdDeviation="2"/>
<feComposite in2="hardAlpha" operator="out"/>
<feColorMatrix type="matrix" values="0 0 0 0 0 0 0 0 0 0 0 0 0 0 0 0 0 0 0.25 0"/>
<feBlend mode="normal" in2="BackgroundImageFix" result="effect1_dropShadow_1454_6446"/>
<feBlend mode="normal" in="SourceGraphic" in2="effect1_dropShadow_1454_6446" result="shape"/>
</filter>
</defs>
</svg>
