<svg id="圖層_1" data-name="圖層 1" xmlns="http://www.w3.org/2000/svg" viewBox="0 0 168.06 121"><defs><style>.cls-1,.cls-2{fill:#f9be53;}.cls-1{opacity:0.35;}</style></defs><path class="cls-1" d="M163.54,164.25v34.18a3.81,3.81,0,0,0,4.25,3.78,38.19,38.19,0,0,0,0-75.91,3.81,3.81,0,0,0-4.25,3.78Z" transform="translate(-57.7 -81.23)"/><path class="cls-2" d="M80,134.2H64.1q-3.45,0-4.93-1.55t-1.47-4.92V88.59q0-3.45,1.51-5c1-1,2.63-1.51,4.89-1.51H81a39,39,0,0,1,6.46.46,13.78,13.78,0,0,1,4.91,1.78,12.55,12.55,0,0,1,3.26,2.79,12.27,12.27,0,0,1,2.17,3.73,12.4,12.4,0,0,1,.75,4.31q0,7.82-7.82,11.44Q101,109.9,101,119.35a14.32,14.32,0,0,1-2.24,7.87,13.45,13.45,0,0,1-6,5.17,21.54,21.54,0,0,1-5.47,1.4A56.09,56.09,0,0,1,80,134.2ZM68.25,90v13.47h9.66a19.39,19.39,0,0,0,6.1-.75,5.85,5.85,0,0,0,3.28-2.84,6.44,6.44,0,0,0,.89-3.34q0-3.94-2.81-5.24T76.81,90Zm11,21h-11v15.21H79.58q10.69,0,10.7-7.71c0-2.63-.93-4.54-2.77-5.72S82.9,111.07,79.23,111.07Z" transform="translate(-57.7 -81.23)"/><path class="cls-2" d="M128.2,81.23a27.82,27.82,0,0,1,13.91,3.29,21.29,21.29,0,0,1,8.79,9.34,31.84,31.84,0,0,1,3,14.23,34.71,34.71,0,0,1-1.64,11,23.74,23.74,0,0,1-4.9,8.57,21.53,21.53,0,0,1-8,5.54,31.66,31.66,0,0,1-21.85,0,21.74,21.74,0,0,1-8.06-5.56,23.69,23.69,0,0,1-4.88-8.64,34.58,34.58,0,0,1-1.66-10.9,33.69,33.69,0,0,1,1.73-11,23.64,23.64,0,0,1,5-8.52,21.46,21.46,0,0,1,8-5.38A28.45,28.45,0,0,1,128.2,81.23Zm15,26.79a24.42,24.42,0,0,0-1.84-9.91,13.8,13.8,0,0,0-5.28-6.35,14.51,14.51,0,0,0-7.87-2.14,14.12,14.12,0,0,0-5.84,1.19,12.73,12.73,0,0,0-4.62,3.46,16.47,16.47,0,0,0-3,5.81,26.08,26.08,0,0,0-1.12,7.94,26.82,26.82,0,0,0,1.12,8,16.3,16.3,0,0,0,3.16,6,13.25,13.25,0,0,0,4.69,3.53,14,14,0,0,0,18.65-7.1A24.31,24.31,0,0,0,143.19,108Z" transform="translate(-57.7 -81.23)"/><path class="cls-2" d="M157.91,182.51v-41a6.94,6.94,0,0,1,1.45-4.8,4.88,4.88,0,0,1,3.77-1.59,5,5,0,0,1,3.85,1.58,6.81,6.81,0,0,1,1.48,4.81v41a6.86,6.86,0,0,1-1.48,4.83,5,5,0,0,1-3.85,1.6,4.88,4.88,0,0,1-3.75-1.61A7,7,0,0,1,157.91,182.51Z" transform="translate(-57.7 -81.23)"/><path class="cls-2" d="M200.08,135.09A27.82,27.82,0,0,1,214,138.37a21.34,21.34,0,0,1,8.79,9.34,31.87,31.87,0,0,1,3,14.23,34.78,34.78,0,0,1-1.63,11,23.7,23.7,0,0,1-4.9,8.56,21.42,21.42,0,0,1-8,5.54,31.66,31.66,0,0,1-21.85-.05,21.74,21.74,0,0,1-8.06-5.56,23.67,23.67,0,0,1-4.89-8.63,34.89,34.89,0,0,1-1.65-10.91,33.63,33.63,0,0,1,1.72-11,23.68,23.68,0,0,1,5-8.53,21.67,21.67,0,0,1,8-5.38A28.74,28.74,0,0,1,200.08,135.09Zm15,26.78a24.44,24.44,0,0,0-1.85-9.91,13.81,13.81,0,0,0-5.27-6.34,14.54,14.54,0,0,0-7.87-2.15,14.25,14.25,0,0,0-5.84,1.19,12.84,12.84,0,0,0-4.62,3.46,16.74,16.74,0,0,0-3.06,5.81,26.49,26.49,0,0,0-1.12,7.94,27.1,27.1,0,0,0,1.12,8,16.52,16.52,0,0,0,3.16,5.95,13.45,13.45,0,0,0,4.69,3.54,14.8,14.8,0,0,0,13.25-.86,13.89,13.89,0,0,0,5.4-6.25A24.16,24.16,0,0,0,215.07,161.87Z" transform="translate(-57.7 -81.23)"/><path class="cls-2" d="M108.62,175.13v-4.25m0,0V142.44q0-3.45,1.51-5c1-1,2.63-1.51,4.88-1.51h16.88a39,39,0,0,1,6.46.47,13.77,13.77,0,0,1,4.91,1.77,13,13,0,0,1,3.26,2.79,12.32,12.32,0,0,1,2.92,8.05q0,7.81-7.82,11.44,10.27,3.27,10.27,12.71a14.29,14.29,0,0,1-2.24,7.87,13.38,13.38,0,0,1-6,5.17,21.54,21.54,0,0,1-5.47,1.4,54.34,54.34,0,0,1-7.21.41H115q-3.44,0-4.92-1.54t-1.47-4.92v-6.46m10.55-31.23v13.46h9.66a19.39,19.39,0,0,0,6.1-.75,5.78,5.78,0,0,0,3.28-2.84,6.42,6.42,0,0,0,.89-3.34c0-2.63-.94-4.37-2.81-5.24s-4.72-1.29-8.56-1.29Zm11,21h-11v15.2H130.5q10.69,0,10.7-7.71a6.29,6.29,0,0,0-2.78-5.72Q135.66,164.93,130.15,164.93Z" transform="translate(-57.7 -81.23)"/><path class="cls-2" d="M158.47,173.42l-.58,0a39.45,39.45,0,0,1,0-78.38,5.07,5.07,0,0,1,5.65,5v68.35a5.07,5.07,0,0,1-5.07,5Zm0-75.95a1.51,1.51,0,0,0-.3,0,36.94,36.94,0,0,0,0,73.42,2.59,2.59,0,0,0,2-.64,2.5,2.5,0,0,0,.85-1.9V100a2.5,2.5,0,0,0-.85-1.89A2.55,2.55,0,0,0,158.47,97.47Z" transform="translate(-57.7 -81.23)"/></svg>