<svg width="20" height="20" viewBox="0 0 20 20" fill="none" xmlns="http://www.w3.org/2000/svg">
<path d="M7.27561 20C6.73603 20 6.20857 19.84 5.75993 19.5404C5.31129 19.2407 4.96161 18.8148 4.75513 18.3164C4.54864 17.8181 4.49461 17.2697 4.59988 16.7407C4.70514 16.2116 4.96498 15.7257 5.34651 15.3443C5.72805 14.9628 6.21416 14.7031 6.74337 14.5979C7.27258 14.4926 7.82112 14.5466 8.31962 14.7531C8.81813 14.9595 9.2442 15.309 9.54398 15.7575C9.84375 16.206 10.0038 16.7333 10.0038 17.2727C10.003 17.9958 9.71527 18.689 9.20382 19.2003C8.69237 19.7116 7.99891 19.9992 7.27561 20ZM14.5511 20C14.0115 20 13.4841 19.84 13.0354 19.5404C12.5868 19.2407 12.2371 18.8148 12.0306 18.3164C11.8242 17.8181 11.7701 17.2697 11.8754 16.7407C11.9807 16.2116 12.2405 15.7257 12.622 15.3443C13.0036 14.9628 13.4897 14.7031 14.0189 14.5979C14.5481 14.4926 15.0966 14.5466 15.5951 14.7531C16.0936 14.9595 16.5197 15.309 16.8195 15.7575C17.1193 16.206 17.2793 16.7333 17.2793 17.2727C17.2785 17.9958 16.9908 18.689 16.4793 19.2003C15.9679 19.7116 15.2744 19.9992 14.5511 20ZM13.1325 13.6364H7.91536C6.77112 13.6315 5.67037 13.1975 4.83087 12.4203C3.99136 11.643 3.47424 10.5791 3.38181 9.43891L2.79517 1.81818H0.909383C0.668199 1.81818 0.436894 1.7224 0.266352 1.55192C0.0958096 1.38143 0 1.1502 0 0.909091C0 0.667985 0.0958096 0.436754 0.266352 0.266267C0.436894 0.0957789 0.668199 2.67268e-09 0.909383 2.67268e-09H3.63753C3.86659 -1.75456e-05 4.08722 0.086379 4.25532 0.241922C4.42342 0.397465 4.52661 0.610697 4.54428 0.839L4.75962 3.63636H15.6025C16.4257 3.63642 17.2323 3.86746 17.9307 4.3032C18.6291 4.73893 19.1911 5.36187 19.5528 6.10113C19.9145 6.84039 20.0613 7.6663 19.9767 8.48489C19.892 9.30348 19.5793 10.0819 19.0739 10.7315C18.3725 11.6386 17.4719 12.3723 16.4417 12.876C15.4114 13.3797 14.2791 13.6398 13.1323 13.6364H13.1325Z" fill="#573605"/>
</svg>
