<svg width="15" height="20" viewBox="0 0 15 20" fill="none" xmlns="http://www.w3.org/2000/svg">
<path d="M2.81257 4.53766C2.81257 3.6402 3.08749 2.76289 3.60255 2.01667C4.11761 1.27046 4.84968 0.688855 5.7062 0.345411C6.56272 0.00196609 7.5052 -0.0878947 8.41447 0.0871919C9.32374 0.262278 10.159 0.694448 10.8145 1.32905C11.4701 1.96365 11.9165 2.77219 12.0974 3.65241C12.2782 4.53263 12.1854 5.445 11.8306 6.27415C11.4758 7.1033 10.875 7.81198 10.1042 8.31058C9.33335 8.80919 8.42709 9.07532 7.5 9.07532C6.25727 9.0739 5.06585 8.59537 4.1871 7.7447C3.30836 6.89403 2.81404 5.74069 2.81257 4.53766ZM12.1874 9.98285H10.3125C9.81518 9.98285 9.33828 10.1741 8.98665 10.5145C8.63503 10.8549 8.43749 11.3165 8.43749 11.7979V13.613C8.43749 13.8537 8.33872 14.0845 8.1629 14.2547C7.98709 14.4249 7.74864 14.5205 7.5 14.5205C7.25136 14.5205 7.01291 14.4249 6.8371 14.2547C6.66129 14.0845 6.56252 13.8537 6.56252 13.613V11.7979C6.56252 11.3165 6.36497 10.8549 6.01335 10.5145C5.66172 10.1741 5.18482 9.98285 4.68754 9.98285H2.81257C2.44061 9.98409 2.07257 10.0565 1.72961 10.1959C1.38665 10.3353 1.07555 10.539 0.814178 10.7952C0.55281 11.0514 0.346337 11.3551 0.206631 11.6888C0.0669244 12.0225 -0.00325909 12.3797 0.000116207 12.7397C0.000116207 14.6653 0.790281 16.512 2.19678 17.8735C3.60328 19.2351 5.51091 20 7.5 20C9.48909 20 11.3967 19.2351 12.8032 17.8735C14.2097 16.512 14.9999 14.6653 14.9999 12.7397C15.0033 12.3797 14.9331 12.0225 14.7934 11.6888C14.6537 11.3551 14.4472 11.0514 14.1858 10.7952C13.9245 10.539 13.6133 10.3353 13.2704 10.1959C12.9274 10.0565 12.5594 9.98409 12.1874 9.98285Z" fill="#573605"/>
</svg>
